Ume-P-Mincho-stroke.ufo
<glyph name="exclam" format="1">
  <advance width="8"/>
  <unicode hex="0021"/>
  <outline>
    <contour>
      <point x="0" y="3114" type="move"/>
      <point x="0" y="953" type="line"/>
    </contour>
    <contour>
      <point x="7" y="179" type="move"/>
      <point x="8" y="179" type="line"/>
    </contour>
  </outline>
</glyph>
<glyph name="numbersign" format="1">
  <advance width="1455"/>
  <unicode hex="0023"/>
  <outline>
    <contour>
      <point x="1455" y="2250" type="move"/>
      <point x="666" y="2250" type="line"/>
      <point x="473" y="2250" type="line"/>
      <point x="426" y="2250" type="line" smooth="yes"/>
      <point x="422" y="2250"/>
      <point x="412" y="2248"/>
      <point x="410" y="2251" type="curve" smooth="yes"/>
      <point x="407" y="2255"/>
      <point x="409" y="2264"/>
      <point x="409" y="2269" type="curve" smooth="yes"/>
      <point x="409" y="2315" type="line" smooth="yes"/>
      <point x="409" y="2378"/>
      <point x="413" y="2441"/>
      <point x="417" y="2505" type="curve" smooth="yes"/>
      <point x="429" y="2667"/>
      <point x="443" y="2830"/>
      <point x="455" y="2993" type="curve" smooth="yes"/>
      <point x="458" y="3045"/>
      <point x="463" y="3097"/>
      <point x="467" y="3150" type="curve" smooth="yes"/>
      <point x="468" y="3176"/>
      <point x="473" y="3202"/>
      <point x="473" y="3229" type="curve" smooth="yes"/>
    </contour>
    <contour>
      <point x="1215" y="3223" type="move" smooth="yes"/>
      <point x="1208" y="3173"/>
      <point x="1207" y="3123"/>
      <point x="1202" y="3074" type="curve" smooth="yes"/>
      <point x="1194" y="2984"/>
      <point x="1188" y="2894"/>
      <point x="1181" y="2805" type="curve" smooth="yes"/>
      <point x="1174" y="2690"/>
      <point x="1161" y="2575"/>
      <point x="1154" y="2461" type="curve" smooth="yes"/>
      <point x="1149" y="2391"/>
      <point x="1150" y="2320"/>
      <point x="1150" y="2251" type="curve" smooth="yes"/>
    </contour>
    <contour>
      <point x="0" y="2250" type="move"/>
      <point x="408" y="2250" type="line"/>
    </contour>
    <contour>
      <point x="1455" y="937" type="move"/>
      <point x="591" y="937" type="line"/>
      <point x="379" y="937" type="line"/>
      <point x="328" y="937" type="line" smooth="yes"/>
      <point x="323" y="937"/>
      <point x="312" y="935"/>
      <point x="310" y="938" type="curve" smooth="yes"/>
      <point x="306" y="942"/>
      <point x="309" y="955"/>
      <point x="309" y="961" type="curve" smooth="yes"/>
      <point x="309" y="1023" type="line" smooth="yes"/>
      <point x="309" y="1108"/>
      <point x="318" y="1193"/>
      <point x="323" y="1278" type="curve" smooth="yes"/>
      <point x="335" y="1453"/>
      <point x="352" y="1628"/>
      <point x="364" y="1804" type="curve" smooth="yes"/>
      <point x="369" y="1884"/>
      <point x="377" y="1964"/>
      <point x="382" y="2045" type="curve" smooth="yes"/>
      <point x="387" y="2112"/>
      <point x="387" y="2181"/>
      <point x="387" y="2249" type="curve" smooth="yes"/>
    </contour>
    <contour>
      <point x="1126" y="2249" type="move" smooth="yes"/>
      <point x="1126" y="2177"/>
      <point x="1125" y="2105"/>
      <point x="1120" y="2034" type="curve" smooth="yes"/>
      <point x="1115" y="1959"/>
      <point x="1108" y="1885"/>
      <point x="1103" y="1811" type="curve" smooth="yes"/>
      <point x="1092" y="1655"/>
      <point x="1077" y="1501"/>
      <point x="1066" y="1346" type="curve" smooth="yes"/>
      <point x="1062" y="1281"/>
      <point x="1055" y="1218"/>
      <point x="1051" y="1154" type="curve" smooth="yes"/>
      <point x="1046" y="1082"/>
      <point x="1046" y="1009"/>
      <point x="1046" y="938" type="curve" smooth="yes"/>
    </contour>
    <contour>
      <point x="0" y="937" type="move"/>
      <point x="308" y="937" type="line"/>
    </contour>
    <contour>
      <point x="217" y="-121" type="move" smooth="yes"/>
      <point x="217" y="-87"/>
      <point x="221" y="-52"/>
      <point x="224" y="-19" type="curve" smooth="yes"/>
      <point x="230" y="42"/>
      <point x="234" y="103"/>
      <point x="238" y="165" type="curve" smooth="yes"/>
      <point x="256" y="421"/>
      <point x="286" y="678"/>
      <point x="286" y="936" type="curve" smooth="yes"/>
    </contour>
    <contour>
      <point x="1023" y="936" type="move" smooth="yes"/>
      <point x="1023" y="872"/>
      <point x="1023" y="807"/>
      <point x="1018" y="744" type="curve" smooth="yes"/>
      <point x="1014" y="681"/>
      <point x="1008" y="618"/>
      <point x="1004" y="556" type="curve" smooth="yes"/>
      <point x="998" y="471"/>
      <point x="992" y="387"/>
      <point x="984" y="303" type="curve" smooth="yes"/>
      <point x="974" y="205"/>
      <point x="967" y="106"/>
      <point x="961" y="9" type="curve" smooth="yes"/>
      <point x="958" y="-34"/>
      <point x="956" y="-78"/>
      <point x="951" y="-121" type="curve" smooth="yes"/>
    </contour>
  </outline>
</glyph>
<glyph name="percent" format="1">
  <advance width="1384"/>
  <unicode hex="0025"/>
  <outline>
    <contour>
      <point x="426" y="3236" type="curve" smooth="yes"/>
      <point x="551" y="3216"/>
      <point x="632" y="3100"/>
      <point x="683" y="2995" type="curve" smooth="yes"/>
      <point x="720" y="2918"/>
      <point x="740" y="2831"/>
      <point x="750" y="2747" type="curve" smooth="yes"/>
      <point x="769" y="2572"/>
      <point x="756" y="2385"/>
      <point x="676" y="2226" type="curve" smooth="yes"/>
      <point x="643" y="2159"/>
      <point x="598" y="2096"/>
      <point x="537" y="2051" type="curve" smooth="yes"/>
      <point x="507" y="2028"/>
      <point x="469" y="2009"/>
      <point x="430" y="2005" type="curve" smooth="yes"/>
      <point x="389" y="2000"/>
      <point x="346" y="1998"/>
      <point x="305" y="2008" type="curve" smooth="yes"/>
      <point x="175" y="2043"/>
      <point x="88" y="2179"/>
      <point x="47" y="2300" type="curve" smooth="yes"/>
      <point x="5" y="2425"/>
      <point x="-6" y="2558"/>
      <point x="2" y="2690" type="curve" smooth="yes"/>
      <point x="9" y="2789"/>
      <point x="28" y="2888"/>
      <point x="67" y="2980" type="curve" smooth="yes"/>
      <point x="110" y="3079"/>
      <point x="181" y="3184"/>
      <point x="285" y="3225" type="curve" smooth="yes"/>
      <point x="315" y="3237"/>
      <point x="345" y="3236"/>
      <point x="375" y="3240" type="curve" smooth="yes"/>
      <point x="391" y="3242"/>
      <point x="411" y="3238"/>
    </contour>
    <contour>
      <point x="1311" y="3183" type="move"/>
      <point x="1278" y="3096" type="line"/>
      <point x="1203" y="2899" type="line"/>
      <point x="986" y="2329" type="line"/>
      <point x="335" y="619" type="line"/>
      <point x="161" y="162" type="line"/>
      <point x="102" y="7" type="line"/>
      <point x="70" y="-75" type="line"/>
    </contour>
    <contour>
      <point x="1000" y="1115" type="move" smooth="yes"/>
      <point x="1016" y="1117"/>
      <point x="1036" y="1113"/>
      <point x="1051" y="1111" type="curve" smooth="yes"/>
      <point x="1178" y="1091"/>
      <point x="1262" y="970"/>
      <point x="1312" y="862" type="curve" smooth="yes"/>
      <point x="1346" y="785"/>
      <point x="1364" y="703"/>
      <point x="1375" y="621" type="curve" smooth="yes"/>
      <point x="1386" y="535"/>
      <point x="1386" y="448"/>
      <point x="1375" y="363" type="curve" smooth="yes"/>
      <point x="1363" y="272"/>
      <point x="1342" y="183"/>
      <point x="1301" y="101" type="curve" smooth="yes"/>
      <point x="1268" y="35"/>
      <point x="1223" y="-28"/>
      <point x="1163" y="-72" type="curve" smooth="yes"/>
      <point x="1132" y="-96"/>
      <point x="1095" y="-115"/>
      <point x="1055" y="-119" type="curve" smooth="yes"/>
      <point x="1015" y="-124"/>
      <point x="971" y="-126"/>
      <point x="930" y="-116" type="curve" smooth="yes"/>
      <point x="800" y="-81"/>
      <point x="713" y="54"/>
      <point x="672" y="175" type="curve" smooth="yes"/>
      <point x="630" y="300"/>
      <point x="618" y="433"/>
      <point x="627" y="565" type="curve" smooth="yes"/>
      <point x="634" y="664"/>
      <point x="653" y="763"/>
      <point x="692" y="855" type="curve" smooth="yes"/>
      <point x="735" y="954"/>
      <point x="806" y="1059"/>
      <point x="910" y="1100" type="curve" smooth="yes"/>
      <point x="940" y="1112"/>
      <point x="970" y="1111"/>
      <point x="1000" y="1115" type="curve" smooth="yes"/>
    </contour>
  </outline>
</glyph>
<glyph name="quotesingle" format="1">
  <advance width="333"/>
  <unicode hex="0027"/>
  <outline>
    <contour>
      <point x="218" y="3145" type="move" smooth="yes"/>
      <point x="233" y="3132"/>
      <point x="247" y="3117"/>
      <point x="262" y="3104" type="curve" smooth="yes"/>
      <point x="269" y="3097"/>
      <point x="279" y="3090"/>
      <point x="285" y="3082" type="curve" smooth="yes"/>
      <point x="294" y="3067"/>
      <point x="300" y="3049"/>
      <point x="308" y="3034" type="curve" smooth="yes"/>
      <point x="314" y="3022"/>
      <point x="328" y="3007"/>
      <point x="331" y="2995" type="curve" smooth="yes"/>
      <point x="334" y="2984"/>
      <point x="328" y="2968"/>
      <point x="327" y="2958" type="curve" smooth="yes"/>
      <point x="322" y="2928"/>
      <point x="316" y="2899"/>
      <point x="311" y="2871" type="curve" smooth="yes"/>
      <point x="306" y="2848"/>
      <point x="303" y="2824"/>
      <point x="295" y="2803" type="curve" smooth="yes"/>
      <point x="282" y="2765"/>
      <point x="260" y="2729"/>
      <point x="239" y="2695" type="curve" smooth="yes"/>
      <point x="180" y="2596"/>
      <point x="98" y="2502"/>
      <point x="0" y="2442" type="curve" smooth="yes"/>
    </contour>
  </outline>
</glyph>
<glyph name="plus" format="1">
  <advance width="1580"/>
  <unicode hex="002B"/>
  <outline>
    <contour>
      <point x="814" y="2789" type="move"/>
      <point x="814" y="352" type="line"/>
    </contour>
    <contour>
      <point x="0" y="1648" type="move"/>
      <point x="1580" y="1648" type="line"/>
    </contour>
  </outline>
</glyph>
<glyph name="hyphen" format="1">
  <advance width="1580"/>
  <unicode hex="002D"/>
  <outline>
    <contour>
      <point x="0" y="1648" type="move"/>
      <point x="1580" y="1648" type="line"/>
    </contour>
  </outline>
</glyph>
<glyph name="slash" format="1">
  <advance width="1769"/>
  <unicode hex="002F"/>
  <outline>
    <contour>
      <point x="1769" y="3205" type="move" smooth="yes"/>
      <point x="1747" y="3175"/>
      <point x="1732" y="3141"/>
      <point x="1714" y="3109" type="curve" smooth="yes"/>
      <point x="1684" y="3053"/>
      <point x="1654" y="2997"/>
      <point x="1624" y="2942" type="curve" smooth="yes"/>
      <point x="1527" y="2761"/>
      <point x="1430" y="2580"/>
      <point x="1332" y="2400" type="curve" smooth="yes"/>
      <point x="1040" y="1859"/>
      <point x="749" y="1317"/>
      <point x="457" y="777" type="curve" smooth="yes"/>
      <point x="356" y="590"/>
      <point x="256" y="403"/>
      <point x="155" y="217" type="curve" smooth="yes"/>
      <point x="61" y="43" type="line" smooth="yes"/>
      <point x="42" y="8"/>
      <point x="26" y="-29"/>
      <point x="0" y="-59" type="curve" smooth="yes"/>
    </contour>
  </outline>
</glyph>
<glyph name="zero" format="1">
  <advance width="1307"/>
  <unicode hex="0030"/>
  <outline>
    <contour>
      <point x="650" y="2793" type="move" smooth="yes"/>
      <point x="673" y="2794"/>
      <point x="696" y="2790"/>
      <point x="718" y="2788" type="curve" smooth="yes"/>
      <point x="747" y="2785"/>
      <point x="775" y="2779"/>
      <point x="802" y="2769" type="curve" smooth="yes"/>
      <point x="984" y="2706"/>
      <point x="1089" y="2535"/>
      <point x="1163" y="2368" type="curve" smooth="yes"/>
      <point x="1179" y="2333"/>
      <point x="1192" y="2297"/>
      <point x="1204" y="2262" type="curve" smooth="yes"/>
      <point x="1262" y="2086"/>
      <point x="1288" y="1904"/>
      <point x="1300" y="1721" type="curve" smooth="yes"/>
      <point x="1308" y="1605"/>
      <point x="1308" y="1491"/>
      <point x="1300" y="1376" type="curve" smooth="yes"/>
      <point x="1285" y="1159"/>
      <point x="1253" y="946"/>
      <point x="1180" y="741" type="curve" smooth="yes"/>
      <point x="1114" y="557"/>
      <point x="1004" y="351"/>
      <point x="811" y="278" type="curve" smooth="yes"/>
      <point x="761" y="259"/>
      <point x="706" y="252"/>
      <point x="653" y="251" type="curve" smooth="yes"/>
      <point x="619" y="250"/>
      <point x="581" y="255"/>
      <point x="548" y="262" type="curve" smooth="yes"/>
      <point x="335" y="310"/>
      <point x="213" y="516"/>
      <point x="139" y="706" type="curve" smooth="yes"/>
      <point x="127" y="735"/>
      <point x="117" y="765"/>
      <point x="106" y="796" type="curve" smooth="yes"/>
      <point x="41" y="985"/>
      <point x="19" y="1185"/>
      <point x="5" y="1384" type="curve" smooth="yes"/>
      <point x="-2" y="1500"/>
      <point x="-1" y="1617"/>
      <point x="6" y="1734" type="curve" smooth="yes"/>
      <point x="19" y="1926"/>
      <point x="46" y="2118"/>
      <point x="111" y="2301" type="curve" smooth="yes"/>
      <point x="178" y="2487"/>
      <point x="288" y="2690"/>
      <point x="483" y="2764" type="curve" smooth="yes"/>
      <point x="536" y="2785"/>
      <point x="594" y="2791"/>
      <point x="650" y="2793" type="curve" smooth="yes"/>
    </contour>
  </outline>
</glyph>
<glyph name="one" format="1">
  <advance width="915"/>
  <unicode hex="0031"/>
  <outline>
    <contour>
      <point x="915" y="242" type="move"/>
      <point x="642" y="242" type="line"/>
      <point x="561" y="242" type="line" smooth="yes"/>
      <point x="550" y="242"/>
      <point x="535" y="239"/>
      <point x="526" y="242" type="curve" smooth="yes"/>
      <point x="518" y="245"/>
      <point x="512" y="254"/>
      <point x="507" y="260" type="curve" smooth="yes"/>
      <point x="492" y="274"/>
      <point x="475" y="287"/>
      <point x="463" y="304" type="curve" smooth="yes"/>
      <point x="457" y="311"/>
      <point x="461" y="329"/>
      <point x="461" y="339" type="curve" smooth="yes"/>
      <point x="461" y="429" type="line"/>
      <point x="461" y="776" type="line"/>
      <point x="461" y="2112" type="line"/>
      <point x="461" y="2570" type="line"/>
      <point x="461" y="2662" type="line" smooth="yes"/>
      <point x="461" y="2673"/>
      <point x="464" y="2691"/>
      <point x="460" y="2702" type="curve" smooth="yes"/>
      <point x="457" y="2710"/>
      <point x="442" y="2723"/>
      <point x="435" y="2728" type="curve" smooth="yes"/>
      <point x="428" y="2732"/>
      <point x="413" y="2727"/>
      <point x="406" y="2726" type="curve" smooth="yes"/>
      <point x="380" y="2721"/>
      <point x="353" y="2718"/>
      <point x="328" y="2713" type="curve" smooth="yes"/>
      <point x="242" y="2699"/>
      <point x="158" y="2669"/>
      <point x="75" y="2646" type="curve" smooth="yes"/>
      <point x="50" y="2639"/>
      <point x="25" y="2630"/>
      <point x="0" y="2625" type="curve" smooth="yes"/>
    </contour>
    <contour>
      <point x="461" y="306" type="move"/>
      <point x="416" y="261" type="line"/>
      <point x="396" y="242" type="line"/>
      <point x="361" y="242" type="line"/>
      <point x="280" y="242" type="line"/>
      <point x="7" y="242" type="line"/>
    </contour>
  </outline>
</glyph>
<glyph name="two" format="1">
  <advance width="1467"/>
  <unicode hex="0032"/>
  <outline>
    <contour>
      <point x="47" y="2218" type="move" smooth="yes"/>
      <point x="34" y="2235"/>
      <point x="7" y="2249"/>
      <point x="0" y="2271" type="curve" smooth="yes"/>
      <point x="-1" y="2280"/>
      <point x="2" y="2294"/>
      <point x="4" y="2304" type="curve" smooth="yes"/>
      <point x="7" y="2330"/>
      <point x="12" y="2357"/>
      <point x="17" y="2384" type="curve" smooth="yes"/>
      <point x="22" y="2409"/>
      <point x="25" y="2438"/>
      <point x="34" y="2463" type="curve" smooth="yes"/>
      <point x="45" y="2488"/>
      <point x="60" y="2513"/>
      <point x="74" y="2537" type="curve" smooth="yes"/>
      <point x="131" y="2626"/>
      <point x="212" y="2701"/>
      <point x="307" y="2748" type="curve" smooth="yes"/>
      <point x="405" y="2797"/>
      <point x="512" y="2812"/>
      <point x="621" y="2810" type="curve" smooth="yes"/>
      <point x="696" y="2808"/>
      <point x="769" y="2800"/>
      <point x="842" y="2779" type="curve" smooth="yes"/>
      <point x="1000" y="2734"/>
      <point x="1145" y="2631"/>
      <point x="1222" y="2484" type="curve" smooth="yes"/>
      <point x="1253" y="2423"/>
      <point x="1273" y="2356"/>
      <point x="1285" y="2290" type="curve" smooth="yes"/>
      <point x="1292" y="2252"/>
      <point x="1296" y="2215"/>
      <point x="1300" y="2178" type="curve" smooth="yes"/>
      <point x="1301" y="2162"/>
      <point x="1305" y="2146"/>
      <point x="1304" y="2131" type="curve" smooth="yes"/>
      <point x="1302" y="2105"/>
      <point x="1298" y="2080"/>
      <point x="1294" y="2055" type="curve" smooth="yes"/>
      <point x="1287" y="2009"/>
      <point x="1280" y="1965"/>
      <point x="1265" y="1922" type="curve" smooth="yes"/>
      <point x="1232" y="1828"/>
      <point x="1176" y="1744"/>
      <point x="1116" y="1667" type="curve" smooth="yes"/>
      <point x="1006" y="1525"/>
      <point x="872" y="1408"/>
      <point x="740" y="1288" type="curve" smooth="yes"/>
      <point x="678" y="1233"/>
      <point x="617" y="1177"/>
      <point x="557" y="1120" type="curve" smooth="yes"/>
      <point x="479" y="1048"/>
      <point x="402" y="973"/>
      <point x="330" y="895" type="curve" smooth="yes"/>
      <point x="265" y="825"/>
      <point x="201" y="756"/>
      <point x="144" y="681" type="curve" smooth="yes"/>
      <point x="111" y="637"/>
      <point x="76" y="591"/>
      <point x="55" y="541" type="curve" smooth="yes"/>
      <point x="41" y="508"/>
      <point x="35" y="471"/>
      <point x="28" y="437" type="curve" smooth="yes"/>
      <point x="23" y="409"/>
      <point x="17" y="382"/>
      <point x="12" y="355" type="curve" smooth="yes"/>
      <point x="11" y="344"/>
      <point x="5" y="329"/>
      <point x="7" y="320" type="curve" smooth="yes"/>
      <point x="9" y="307"/>
      <point x="30" y="311"/>
      <point x="40" y="311" type="curve" smooth="yes"/>
      <point x="145" y="311" type="line"/>
      <point x="593" y="311" type="line"/>
      <point x="1118" y="311" type="line"/>
      <point x="1258" y="311" type="line"/>
      <point x="1295" y="311" type="line" smooth="yes"/>
      <point x="1300" y="311"/>
      <point x="1307" y="309"/>
      <point x="1312" y="313" type="curve" smooth="yes"/>
      <point x="1329" y="324"/>
      <point x="1331" y="340"/>
      <point x="1335" y="359" type="curve" smooth="yes"/>
      <point x="1343" y="390"/>
      <point x="1352" y="420"/>
      <point x="1360" y="452" type="curve" smooth="yes"/>
      <point x="1382" y="543"/>
      <point x="1408" y="634"/>
      <point x="1433" y="726" type="curve" smooth="yes"/>
      <point x="1441" y="754"/>
      <point x="1448" y="782"/>
      <point x="1455" y="811" type="curve" smooth="yes"/>
      <point x="1459" y="825"/>
      <point x="1465" y="840"/>
      <point x="1467" y="855" type="curve" smooth="yes"/>
    </contour>
  </outline>
</glyph>
<glyph name="five" format="1">
  <advance width="1364"/>
  <unicode hex="0035"/>
  <outline>
    <contour>
      <point x="48" y="813" type="move" smooth="yes"/>
      <point x="38" y="801"/>
      <point x="26" y="790"/>
      <point x="15" y="780" type="curve" smooth="yes"/>
      <point x="10" y="775"/>
      <point x="3" y="769"/>
      <point x="1" y="763" type="curve" smooth="yes"/>
      <point x="-2" y="754"/>
      <point x="3" y="738"/>
      <point x="5" y="730" type="curve" smooth="yes"/>
      <point x="10" y="702"/>
      <point x="16" y="674"/>
      <point x="23" y="647" type="curve" smooth="yes"/>
      <point x="28" y="626"/>
      <point x="34" y="606"/>
      <point x="40" y="586" type="curve" smooth="yes"/>
      <point x="43" y="574"/>
      <point x="45" y="562"/>
      <point x="51" y="552" type="curve" smooth="yes"/>
      <point x="72" y="513"/>
      <point x="107" y="480"/>
      <point x="139" y="451" type="curve" smooth="yes"/>
      <point x="198" y="400"/>
      <point x="264" y="355"/>
      <point x="335" y="323" type="curve" smooth="yes"/>
      <point x="455" y="268"/>
      <point x="585" y="243"/>
      <point x="717" y="252" type="curve" smooth="yes"/>
      <point x="767" y="256"/>
      <point x="816" y="259"/>
      <point x="864" y="273" type="curve" smooth="yes"/>
      <point x="990" y="308"/>
      <point x="1106" y="383"/>
      <point x="1190" y="484" type="curve" smooth="yes"/>
      <point x="1228" y="530"/>
      <point x="1261" y="583"/>
      <point x="1285" y="639" type="curve" smooth="yes"/>
      <point x="1327" y="737"/>
      <point x="1347" y="841"/>
      <point x="1357" y="948" type="curve" smooth="yes"/>
      <point x="1360" y="977"/>
      <point x="1363" y="1006"/>
      <point x="1363" y="1036" type="curve" smooth="yes"/>
      <point x="1363" y="1077"/>
      <point x="1358" y="1119"/>
      <point x="1353" y="1161" type="curve" smooth="yes"/>
      <point x="1342" y="1265"/>
      <point x="1317" y="1371"/>
      <point x="1266" y="1464" type="curve" smooth="yes"/>
      <point x="1217" y="1554"/>
      <point x="1151" y="1633"/>
      <point x="1070" y="1697" type="curve" smooth="yes"/>
      <point x="1003" y="1750"/>
      <point x="925" y="1791"/>
      <point x="841" y="1810" type="curve" smooth="yes"/>
      <point x="780" y="1823"/>
      <point x="716" y="1828"/>
      <point x="653" y="1822" type="curve" smooth="yes"/>
      <point x="601" y="1817"/>
      <point x="551" y="1808"/>
      <point x="502" y="1790" type="curve" smooth="yes"/>
      <point x="400" y="1753"/>
      <point x="306" y="1683"/>
      <point x="229" y="1608" type="curve" smooth="yes"/>
      <point x="203" y="1582"/>
      <point x="163" y="1574"/>
      <point x="129" y="1562" type="curve" smooth="yes"/>
      <point x="118" y="1558"/>
      <point x="102" y="1548"/>
      <point x="91" y="1557" type="curve" smooth="yes"/>
      <point x="87" y="1560"/>
      <point x="81" y="1565"/>
      <point x="79" y="1571" type="curve" smooth="yes"/>
      <point x="76" y="1577"/>
      <point x="78" y="1587"/>
      <point x="79" y="1594" type="curve" smooth="yes"/>
      <point x="80" y="1604"/>
      <point x="80" y="1616"/>
      <point x="80" y="1627" type="curve" smooth="yes"/>
      <point x="80" y="1691"/>
      <point x="88" y="1754"/>
      <point x="91" y="1819" type="curve" smooth="yes"/>
      <point x="96" y="1925"/>
      <point x="109" y="2032"/>
      <point x="116" y="2139" type="curve" smooth="yes"/>
      <point x="125" y="2266"/>
      <point x="134" y="2395"/>
      <point x="146" y="2523" type="curve" smooth="yes"/>
      <point x="150" y="2569"/>
      <point x="152" y="2617"/>
      <point x="157" y="2664" type="curve" smooth="yes"/>
      <point x="158" y="2676"/>
      <point x="159" y="2690"/>
      <point x="160" y="2703" type="curve" smooth="yes"/>
      <point x="160" y="2708"/>
      <point x="160" y="2715"/>
      <point x="162" y="2721" type="curve" smooth="yes"/>
      <point x="164" y="2725"/>
      <point x="169" y="2728"/>
      <point x="173" y="2732" type="curve" smooth="yes"/>
      <point x="182" y="2739"/>
      <point x="191" y="2750"/>
      <point x="201" y="2755" type="curve" smooth="yes"/>
      <point x="208" y="2759"/>
      <point x="220" y="2757"/>
      <point x="228" y="2757" type="curve" smooth="yes"/>
      <point x="291" y="2757" type="line"/>
      <point x="517" y="2757" type="line"/>
      <point x="1328" y="2757" type="line"/>
    </contour>
  </outline>
</glyph>
<glyph name="six" format="1">
  <advance width="1345"/>
  <unicode hex="0036"/>
  <outline>
    <contour>
      <point x="1187" y="2817" type="move" smooth="yes"/>
      <point x="1163" y="2817"/>
      <point x="1140" y="2812"/>
      <point x="1117" y="2809" type="curve" smooth="yes"/>
      <point x="1065" y="2802"/>
      <point x="1014" y="2793"/>
      <point x="964" y="2781" type="curve" smooth="yes"/>
      <point x="768" y="2735"/>
      <point x="582" y="2647"/>
      <point x="435" y="2509" type="curve" smooth="yes"/>
      <point x="286" y="2371"/>
      <point x="181" y="2190"/>
      <point x="110" y="2002" type="curve" smooth="yes"/>
      <point x="68" y="1890"/>
      <point x="43" y="1775"/>
      <point x="23" y="1659" type="curve" smooth="yes"/>
      <point x="18" y="1627"/>
      <point x="13" y="1594"/>
      <point x="12" y="1563" type="curve" smooth="yes"/>
      <point x="11" y="1553"/>
      <point x="6" y="1539"/>
      <point x="9" y="1531" type="curve" smooth="yes"/>
      <point x="11" y="1525"/>
      <point x="18" y="1521"/>
      <point x="22" y="1517" type="curve" smooth="yes"/>
      <point x="51" y="1488" type="line"/>
      <point x="121" y="1418" type="line" smooth="yes"/>
      <point x="133" y="1406"/>
      <point x="144" y="1391"/>
      <point x="158" y="1382" type="curve"/>
      <point x="179" y="1409"/>
      <point x="197" y="1438"/>
      <point x="218" y="1466" type="curve" smooth="yes"/>
      <point x="285" y="1548"/>
      <point x="358" y="1621"/>
      <point x="454" y="1670" type="curve" smooth="yes"/>
      <point x="520" y="1704"/>
      <point x="591" y="1721"/>
      <point x="665" y="1728" type="curve" smooth="yes"/>
      <point x="724" y="1733"/>
      <point x="789" y="1734"/>
      <point x="848" y="1719" type="curve" smooth="yes"/>
      <point x="898" y="1706"/>
      <point x="947" y="1690"/>
      <point x="993" y="1665" type="curve" smooth="yes"/>
      <point x="1057" y="1629"/>
      <point x="1113" y="1579"/>
      <point x="1160" y="1523" type="curve" smooth="yes"/>
      <point x="1307" y="1346"/>
      <point x="1361" y="1111"/>
      <point x="1340" y="886" type="curve" smooth="yes"/>
      <point x="1335" y="830"/>
      <point x="1328" y="775"/>
      <point x="1314" y="721" type="curve" smooth="yes"/>
      <point x="1278" y="576"/>
      <point x="1202" y="442"/>
      <point x="1080" y="353" type="curve" smooth="yes"/>
      <point x="970" y="274"/>
      <point x="833" y="243"/>
      <point x="699" y="252" type="curve" smooth="yes"/>
      <point x="639" y="256"/>
      <point x="582" y="263"/>
      <point x="525" y="283" type="curve" smooth="yes"/>
      <point x="435" y="314"/>
      <point x="352" y="372"/>
      <point x="287" y="441" type="curve" smooth="yes"/>
      <point x="168" y="566"/>
      <point x="85" y="728"/>
      <point x="47" y="897" type="curve" smooth="yes"/>
      <point x="16" y="1037"/>
      <point x="3" y="1181"/>
      <point x="0" y="1325" type="curve" smooth="yes"/>
      <point x="-1" y="1393"/>
      <point x="8" y="1461"/>
      <point x="8" y="1529" type="curve" smooth="yes"/>
    </contour>
    <contour>
      <point x="158" y="1382" type="move" smooth="yes"/>
      <point x="143" y="1370"/>
      <point x="120" y="1364"/>
      <point x="103" y="1356" type="curve" smooth="yes"/>
      <point x="65" y="1339"/>
      <point x="31" y="1321"/>
      <point x="2" y="1292" type="curve" smooth="yes"/>
    </contour>
  </outline>
</glyph>
<glyph name="seven" format="1">
  <advance width="1352"/>
  <unicode hex="0037"/>
  <outline>
    <contour>
      <point x="0" y="2173" type="move" smooth="yes"/>
      <point x="29" y="2315"/>
      <point x="61" y="2456"/>
      <point x="111" y="2594" type="curve" smooth="yes"/>
      <point x="124" y="2630"/>
      <point x="140" y="2665"/>
      <point x="158" y="2700" type="curve" smooth="yes"/>
      <point x="164" y="2711"/>
      <point x="171" y="2731"/>
      <point x="181" y="2739" type="curve" smooth="yes"/>
      <point x="185" y="2742"/>
      <point x="194" y="2742"/>
      <point x="200" y="2743" type="curve" smooth="yes"/>
      <point x="215" y="2746"/>
      <point x="230" y="2749"/>
      <point x="246" y="2751" type="curve" smooth="yes"/>
      <point x="307" y="2758"/>
      <point x="369" y="2756"/>
      <point x="431" y="2756" type="curve" smooth="yes"/>
      <point x="1087" y="2756" type="line"/>
      <point x="1284" y="2756" type="line" smooth="yes"/>
      <point x="1294" y="2756"/>
      <point x="1312" y="2759"/>
      <point x="1322" y="2754" type="curve" smooth="yes"/>
      <point x="1328" y="2751"/>
      <point x="1334" y="2743"/>
      <point x="1340" y="2738" type="curve" smooth="yes"/>
      <point x="1343" y="2734"/>
      <point x="1349" y="2730"/>
      <point x="1351" y="2725" type="curve" smooth="yes"/>
      <point x="1352" y="2720"/>
      <point x="1349" y="2712"/>
      <point x="1348" y="2708" type="curve" smooth="yes"/>
      <point x="1346" y="2694"/>
      <point x="1343" y="2681"/>
      <point x="1340" y="2668" type="curve" smooth="yes"/>
      <point x="1335" y="2643"/>
      <point x="1333" y="2617"/>
      <point x="1325" y="2594" type="curve" smooth="yes"/>
      <point x="1316" y="2568"/>
      <point x="1298" y="2544"/>
      <point x="1286" y="2521" type="curve" smooth="yes"/>
      <point x="1207" y="2369"/>
      <point x="1133" y="2216"/>
      <point x="1064" y="2060" type="curve" smooth="yes"/>
      <point x="899" y="1682"/>
      <point x="771" y="1288"/>
      <point x="671" y="889" type="curve" smooth="yes"/>
      <point x="640" y="765"/>
      <point x="613" y="640"/>
      <point x="588" y="515" type="curve" smooth="yes"/>
      <point x="580" y="476"/>
      <point x="572" y="437"/>
      <point x="566" y="399" type="curve" smooth="yes"/>
      <point x="562" y="374"/>
      <point x="560" y="347"/>
      <point x="553" y="324" type="curve" smooth="yes"/>
    </contour>
  </outline>
</glyph>
<glyph name="eight" format="1">
  <advance width="1479"/>
  <unicode hex="0038"/>
  <outline>
    <contour>
      <point x="986" y="1485" type="curve" smooth="yes"/>
      <point x="992" y="1479"/>
      <point x="1003" y="1475"/>
      <point x="1011" y="1471" type="curve" smooth="yes"/>
      <point x="1028" y="1462"/>
      <point x="1045" y="1452"/>
      <point x="1062" y="1443" type="curve" smooth="yes"/>
      <point x="1114" y="1413"/>
      <point x="1165" y="1382"/>
      <point x="1214" y="1347" type="curve" smooth="yes"/>
      <point x="1265" y="1311"/>
      <point x="1315" y="1272"/>
      <point x="1355" y="1224" type="curve" smooth="yes"/>
      <point x="1422" y="1143"/>
      <point x="1456" y="1048"/>
      <point x="1470" y="946" type="curve" smooth="yes"/>
      <point x="1474" y="915"/>
      <point x="1481" y="883"/>
      <point x="1478" y="853" type="curve" smooth="yes"/>
      <point x="1474" y="787"/>
      <point x="1465" y="719"/>
      <point x="1445" y="657" type="curve" smooth="yes"/>
      <point x="1412" y="555"/>
      <point x="1347" y="465"/>
      <point x="1264" y="399" type="curve" smooth="yes"/>
      <point x="1190" y="341"/>
      <point x="1105" y="301"/>
      <point x="1015" y="278" type="curve" smooth="yes"/>
      <point x="945" y="260"/>
      <point x="875" y="255"/>
      <point x="804" y="251" type="curve" smooth="yes"/>
      <point x="545" y="240"/>
      <point x="256" y="309"/>
      <point x="98" y="531" type="curve" smooth="yes"/>
      <point x="76" y="562"/>
      <point x="58" y="596"/>
      <point x="44" y="632" type="curve" smooth="yes"/>
      <point x="-2" y="752"/>
      <point x="-10" y="889"/>
      <point x="12" y="1016" type="curve" smooth="yes"/>
      <point x="21" y="1065"/>
      <point x="31" y="1112"/>
      <point x="48" y="1160" type="curve" smooth="yes"/>
      <point x="75" y="1239"/>
      <point x="120" y="1314"/>
      <point x="178" y="1376" type="curve" smooth="yes"/>
      <point x="256" y="1459"/>
      <point x="345" y="1528"/>
      <point x="437" y="1596" type="curve" smooth="yes"/>
      <point x="442" y="1599"/>
      <point x="448" y="1603"/>
      <point x="452" y="1608" type="curve" smooth="yes"/>
      <point x="460" y="1619"/>
      <point x="461" y="1637"/>
      <point x="468" y="1650" type="curve" smooth="yes"/>
      <point x="471" y="1656"/>
      <point x="478" y="1661"/>
      <point x="484" y="1667" type="curve" smooth="yes"/>
      <point x="488" y="1671"/>
      <point x="505" y="1683"/>
      <point x="503" y="1691" type="curve" smooth="yes"/>
      <point x="502" y="1697"/>
      <point x="498" y="1703"/>
      <point x="495" y="1709" type="curve" smooth="yes"/>
      <point x="491" y="1717"/>
      <point x="488" y="1729"/>
      <point x="481" y="1736" type="curve" smooth="yes"/>
      <point x="475" y="1742"/>
      <point x="466" y="1746"/>
      <point x="459" y="1751" type="curve" smooth="yes"/>
      <point x="441" y="1762"/>
      <point x="422" y="1773"/>
      <point x="405" y="1785" type="curve" smooth="yes"/>
      <point x="333" y="1834"/>
      <point x="263" y="1888"/>
      <point x="212" y="1960" type="curve" smooth="yes"/>
      <point x="169" y="2019"/>
      <point x="147" y="2084"/>
      <point x="135" y="2156" type="curve" smooth="yes"/>
      <point x="131" y="2183"/>
      <point x="125" y="2212"/>
      <point x="125" y="2240" type="curve" smooth="yes"/>
      <point x="124" y="2267"/>
      <point x="130" y="2297"/>
      <point x="134" y="2325" type="curve" smooth="yes"/>
      <point x="146" y="2403"/>
      <point x="169" y="2475"/>
      <point x="212" y="2542" type="curve" smooth="yes"/>
      <point x="279" y="2645"/>
      <point x="389" y="2723"/>
      <point x="505" y="2763" type="curve" smooth="yes"/>
      <point x="567" y="2784"/>
      <point x="631" y="2791"/>
      <point x="696" y="2794" type="curve" smooth="yes"/>
      <point x="763" y="2796"/>
      <point x="833" y="2792"/>
      <point x="899" y="2776" type="curve" smooth="yes"/>
      <point x="1051" y="2738"/>
      <point x="1189" y="2633"/>
      <point x="1262" y="2494" type="curve" smooth="yes"/>
      <point x="1287" y="2444"/>
      <point x="1304" y="2392"/>
      <point x="1314" y="2338" type="curve" smooth="yes"/>
      <point x="1321" y="2301"/>
      <point x="1331" y="2261"/>
      <point x="1330" y="2225" type="curve" smooth="yes"/>
      <point x="1329" y="2197"/>
      <point x="1324" y="2168"/>
      <point x="1321" y="2141" type="curve" smooth="yes"/>
      <point x="1305" y="2008"/>
      <point x="1260" y="1875"/>
      <point x="1176" y="1770" type="curve" smooth="yes"/>
      <point x="1147" y="1733"/>
      <point x="1115" y="1699"/>
      <point x="1080" y="1669" type="curve" smooth="yes"/>
      <point x="1061" y="1652"/>
      <point x="1037" y="1638"/>
      <point x="1020" y="1619" type="curve" smooth="yes"/>
      <point x="1008" y="1606"/>
      <point x="1008" y="1583"/>
      <point x="1000" y="1568" type="curve" smooth="yes"/>
      <point x="993" y="1553"/>
      <point x="974" y="1540"/>
      <point x="963" y="1529" type="curve"/>
      <point x="972" y="1516"/>
      <point x="975" y="1496"/>
    </contour>
    <contour>
      <point x="505" y="1688" type="move" smooth="yes"/>
      <point x="523" y="1686"/>
      <point x="542" y="1680"/>
      <point x="560" y="1676" type="curve" smooth="yes"/>
      <point x="577" y="1673"/>
      <point x="597" y="1671"/>
      <point x="614" y="1665" type="curve" smooth="yes"/>
      <point x="636" y="1656"/>
      <point x="657" y="1642"/>
      <point x="680" y="1631" type="curve" smooth="yes"/>
      <point x="736" y="1605"/>
      <point x="793" y="1576"/>
      <point x="851" y="1552" type="curve" smooth="yes"/>
      <point x="885" y="1538"/>
      <point x="927" y="1542"/>
      <point x="962" y="1529" type="curve" smooth="yes"/>
    </contour>
  </outline>
</glyph>
<glyph name="nine" format="1">
  <advance width="1360"/>
  <unicode hex="0039"/>
  <outline>
    <contour>
      <point x="1360" y="1732" type="move" smooth="yes"/>
      <point x="1353" y="1732"/>
      <point x="1344" y="1733"/>
      <point x="1338" y="1731" type="curve" smooth="yes"/>
      <point x="1331" y="1729"/>
      <point x="1325" y="1723"/>
      <point x="1319" y="1720" type="curve" smooth="yes"/>
      <point x="1306" y="1712"/>
      <point x="1293" y="1705"/>
      <point x="1281" y="1699" type="curve" smooth="yes"/>
      <point x="1263" y="1690"/>
      <point x="1246" y="1683"/>
      <point x="1229" y="1675" type="curve" smooth="yes"/>
      <point x="1221" y="1672"/>
      <point x="1212" y="1669"/>
      <point x="1206" y="1664" type="curve" smooth="yes"/>
      <point x="1200" y="1660"/>
      <point x="1197" y="1652"/>
      <point x="1193" y="1647" type="curve" smooth="yes"/>
      <point x="1183" y="1632"/>
      <point x="1174" y="1617"/>
      <point x="1164" y="1604" type="curve" smooth="yes"/>
      <point x="1129" y="1557"/>
      <point x="1095" y="1511"/>
      <point x="1054" y="1471" type="curve" smooth="yes"/>
      <point x="924" y="1343"/>
      <point x="738" y="1280"/>
      <point x="558" y="1302" type="curve" smooth="yes"/>
      <point x="505" y="1309"/>
      <point x="453" y="1319"/>
      <point x="405" y="1341" type="curve" smooth="yes"/>
      <point x="229" y="1421"/>
      <point x="105" y="1591"/>
      <point x="46" y="1772" type="curve" smooth="yes"/>
      <point x="23" y="1842"/>
      <point x="12" y="1915"/>
      <point x="5" y="1989" type="curve" smooth="yes"/>
      <point x="3" y="2014"/>
      <point x="0" y="2039"/>
      <point x="0" y="2065" type="curve" smooth="yes"/>
      <point x="-0" y="2109"/>
      <point x="4" y="2156"/>
      <point x="10" y="2201" type="curve" smooth="yes"/>
      <point x="16" y="2243"/>
      <point x="21" y="2285"/>
      <point x="32" y="2327" type="curve" smooth="yes"/>
      <point x="54" y="2411"/>
      <point x="87" y="2491"/>
      <point x="138" y="2563" type="curve" smooth="yes"/>
      <point x="213" y="2667"/>
      <point x="320" y="2743"/>
      <point x="445" y="2776" type="curve" smooth="yes"/>
      <point x="485" y="2786"/>
      <point x="528" y="2791"/>
      <point x="570" y="2793" type="curve" smooth="yes"/>
      <point x="591" y="2793"/>
      <point x="613" y="2795"/>
      <point x="635" y="2794" type="curve" smooth="yes"/>
      <point x="712" y="2788"/>
      <point x="784" y="2780"/>
      <point x="857" y="2751" type="curve" smooth="yes"/>
      <point x="1111" y="2650"/>
      <point x="1264" y="2381"/>
      <point x="1320" y="2125" type="curve" smooth="yes"/>
      <point x="1341" y="2028"/>
      <point x="1349" y="1930"/>
      <point x="1356" y="1832" type="curve" smooth="yes"/>
      <point x="1361" y="1754"/>
      <point x="1361" y="1679"/>
      <point x="1358" y="1602" type="curve" smooth="yes"/>
      <point x="1341" y="1230"/>
      <point x="1235" y="845"/>
      <point x="972" y="570" type="curve" smooth="yes"/>
      <point x="921" y="517"/>
      <point x="866" y="470"/>
      <point x="807" y="429" type="curve" smooth="yes"/>
      <point x="703" y="355"/>
      <point x="585" y="305"/>
      <point x="464" y="269" type="curve" smooth="yes"/>
      <point x="398" y="249"/>
      <point x="330" y="236"/>
      <point x="263" y="225" type="curve" smooth="yes"/>
      <point x="228" y="220"/>
      <point x="192" y="213"/>
      <point x="158" y="213" type="curve" smooth="yes"/>
    </contour>
  </outline>
</glyph>
<glyph name="semicolon" format="1">
  <advance width="0"/>
  <unicode hex="003B"/>
  <outline>
    <contour>
      <point x="210" y="1605" type="move"/>
      <point x="210" y="1604" type="line"/>
    </contour>
    <contour>
      <point x="212" y="880" type="move" smooth="yes"/>
      <point x="230" y="862"/>
      <point x="249" y="845"/>
      <point x="267" y="827" type="curve" smooth="yes"/>
      <point x="277" y="818"/>
      <point x="289" y="808"/>
      <point x="297" y="797" type="curve" smooth="yes"/>
      <point x="304" y="789"/>
      <point x="308" y="778"/>
      <point x="313" y="769" type="curve" smooth="yes"/>
      <point x="320" y="758"/>
      <point x="332" y="745"/>
      <point x="335" y="733" type="curve" smooth="yes"/>
      <point x="337" y="722"/>
      <point x="332" y="708"/>
      <point x="331" y="698" type="curve" smooth="yes"/>
      <point x="326" y="667"/>
      <point x="321" y="637"/>
      <point x="315" y="607" type="curve" smooth="yes"/>
      <point x="310" y="583"/>
      <point x="307" y="557"/>
      <point x="299" y="535" type="curve" smooth="yes"/>
      <point x="287" y="503"/>
      <point x="269" y="472"/>
      <point x="252" y="444" type="curve" smooth="yes"/>
      <point x="215" y="383"/>
      <point x="173" y="327"/>
      <point x="123" y="277" type="curve" smooth="yes"/>
      <point x="86" y="240"/>
      <point x="45" y="202"/>
      <point x="0" y="177" type="curve" smooth="yes"/>
    </contour>
  </outline>
</glyph>
<glyph name="less" format="1">
  <advance width="1206"/>
  <unicode hex="003C"/>
  <outline>
    <contour>
      <point x="1205" y="2785" type="move"/>
      <point x="295" y="1875" type="line"/>
      <point x="71" y="1651" type="line" smooth="yes"/>
      <point x="48" y="1628"/>
      <point x="16" y="1605"/>
      <point x="5" y="1574" type="curve" smooth="yes"/>
      <point x="3" y="1567"/>
      <point x="-0" y="1560"/>
      <point x="0" y="1554" type="curve" smooth="yes"/>
      <point x="1" y="1529"/>
      <point x="18" y="1511"/>
      <point x="34" y="1495" type="curve" smooth="yes"/>
      <point x="76" y="1453" type="line"/>
      <point x="302" y="1227" type="line"/>
      <point x="1205" y="324" type="line"/>
    </contour>
  </outline>
</glyph>
<glyph name="equal" format="1">
  <advance width="1534"/>
  <unicode hex="003D"/>
  <outline>
    <contour>
      <point x="1" y="1929" type="move"/>
      <point x="1532" y="1929" type="line"/>
    </contour>
    <contour>
      <point x="0" y="1164" type="move"/>
      <point x="1534" y="1164" type="line"/>
    </contour>
  </outline>
</glyph>
<glyph name="greater" format="1">
  <advance width="1221"/>
  <unicode hex="003E"/>
  <outline>
    <contour>
      <point x="0" y="2784" type="move"/>
      <point x="918" y="1866" type="line"/>
      <point x="1146" y="1638" type="line" smooth="yes"/>
      <point x="1169" y="1614"/>
      <point x="1204" y="1589"/>
      <point x="1215" y="1558" type="curve" smooth="yes"/>
      <point x="1217" y="1552"/>
      <point x="1220" y="1545"/>
      <point x="1220" y="1539" type="curve" smooth="yes"/>
      <point x="1220" y="1514"/>
      <point x="1200" y="1494"/>
      <point x="1185" y="1479" type="curve" smooth="yes"/>
      <point x="1170" y="1464"/>
      <point x="1155" y="1448"/>
      <point x="1140" y="1434" type="curve" smooth="yes"/>
      <point x="1113" y="1411"/>
      <point x="1089" y="1384"/>
      <point x="1064" y="1359" type="curve" smooth="yes"/>
      <point x="1016" y="1311"/>
      <point x="967" y="1264"/>
      <point x="920" y="1217" type="curve" smooth="yes"/>
      <point x="615" y="912"/>
      <point x="304" y="612"/>
      <point x="0" y="308" type="curve" smooth="yes"/>
    </contour>
  </outline>
</glyph>
<glyph name="at" format="1">
  <advance width="2287"/>
  <unicode hex="0040"/>
  <outline>
    <contour>
      <point x="2286" y="676" type="move" smooth="yes"/>
      <point x="2269" y="636"/>
      <point x="2239" y="598"/>
      <point x="2214" y="563" type="curve" smooth="yes"/>
      <point x="2145" y="466"/>
      <point x="2062" y="379"/>
      <point x="1968" y="305" type="curve" smooth="yes"/>
      <point x="1796" y="170"/>
      <point x="1586" y="72"/>
      <point x="1369" y="33" type="curve" smooth="yes"/>
      <point x="1287" y="18"/>
      <point x="1202" y="14"/>
      <point x="1118" y="17" type="curve" smooth="yes"/>
      <point x="956" y="25"/>
      <point x="791" y="56"/>
      <point x="646" y="134" type="curve" smooth="yes"/>
      <point x="571" y="174"/>
      <point x="502" y="225"/>
      <point x="439" y="285" type="curve" smooth="yes"/>
      <point x="314" y="404"/>
      <point x="226" y="561"/>
      <point x="159" y="719" type="curve" smooth="yes"/>
      <point x="59" y="950"/>
      <point x="13" y="1201"/>
      <point x="2" y="1452" type="curve" smooth="yes"/>
      <point x="-5" y="1644"/>
      <point x="3" y="1837"/>
      <point x="41" y="2027" type="curve" smooth="yes"/>
      <point x="98" y="2307"/>
      <point x="220" y="2571"/>
      <point x="400" y="2794" type="curve" smooth="yes"/>
      <point x="496" y="2911"/>
      <point x="611" y="3015"/>
      <point x="746" y="3085" type="curve" smooth="yes"/>
      <point x="894" y="3161"/>
      <point x="1056" y="3186"/>
      <point x="1219" y="3175" type="curve" smooth="yes"/>
      <point x="1305" y="3169"/>
      <point x="1391" y="3158"/>
      <point x="1473" y="3133" type="curve" smooth="yes"/>
      <point x="1626" y="3087"/>
      <point x="1764" y="3000"/>
      <point x="1871" y="2882" type="curve" smooth="yes"/>
      <point x="1923" y="2825"/>
      <point x="1966" y="2760"/>
      <point x="2005" y="2695" type="curve" smooth="yes"/>
      <point x="2125" y="2491"/>
      <point x="2194" y="2264"/>
      <point x="2210" y="2029" type="curve" smooth="yes"/>
      <point x="2215" y="1963"/>
      <point x="2215" y="1897"/>
      <point x="2213" y="1832" type="curve" smooth="yes"/>
      <point x="2201" y="1563"/>
      <point x="2148" y="1297"/>
      <point x="1996" y="1071" type="curve" smooth="yes"/>
      <point x="1969" y="1030"/>
      <point x="1939" y="990"/>
      <point x="1906" y="954" type="curve" smooth="yes"/>
      <point x="1844" y="888"/>
      <point x="1774" y="826"/>
      <point x="1686" y="798" type="curve" smooth="yes"/>
      <point x="1652" y="787"/>
      <point x="1616" y="783"/>
      <point x="1580" y="779" type="curve" smooth="yes"/>
      <point x="1527" y="774"/>
      <point x="1465" y="776"/>
      <point x="1419" y="807" type="curve" smooth="yes"/>
      <point x="1359" y="849"/>
      <point x="1351" y="934"/>
      <point x="1341" y="1002" type="curve" smooth="yes"/>
      <point x="1338" y="1017"/>
      <point x="1336" y="1033"/>
      <point x="1335" y="1049" type="curve" smooth="yes"/>
      <point x="1334" y="1056"/>
      <point x="1334" y="1065"/>
      <point x="1329" y="1072" type="curve"/>
      <point x="1312" y="1058"/>
      <point x="1294" y="1038"/>
      <point x="1273" y="1029" type="curve" smooth="yes"/>
      <point x="1254" y="1021"/>
      <point x="1233" y="1014"/>
      <point x="1213" y="1007" type="curve" smooth="yes"/>
      <point x="1205" y="1003"/>
      <point x="1194" y="1001"/>
      <point x="1186" y="996" type="curve" smooth="yes"/>
      <point x="1176" y="988"/>
      <point x="1168" y="974"/>
      <point x="1158" y="965" type="curve" smooth="yes"/>
      <point x="1140" y="945"/>
      <point x="1121" y="926"/>
      <point x="1100" y="908" type="curve" smooth="yes"/>
      <point x="1060" y="871"/>
      <point x="1012" y="838"/>
      <point x="959" y="821" type="curve" smooth="yes"/>
      <point x="937" y="814"/>
      <point x="913" y="811"/>
      <point x="889" y="807" type="curve" smooth="yes"/>
      <point x="872" y="805"/>
      <point x="852" y="800"/>
      <point x="834" y="801" type="curve" smooth="yes"/>
      <point x="715" y="810"/>
      <point x="642" y="932"/>
      <point x="620" y="1039" type="curve" smooth="yes"/>
      <point x="609" y="1087"/>
      <point x="607" y="1137"/>
      <point x="602" y="1187" type="curve" smooth="yes"/>
      <point x="599" y="1220"/>
      <point x="602" y="1252"/>
      <point x="603" y="1286" type="curve" smooth="yes"/>
      <point x="607" y="1362"/>
      <point x="618" y="1438"/>
      <point x="632" y="1514" type="curve" smooth="yes"/>
      <point x="665" y="1689"/>
      <point x="710" y="1861"/>
      <point x="773" y="2029" type="curve" smooth="yes"/>
      <point x="813" y="2134"/>
      <point x="850" y="2244"/>
      <point x="917" y="2336" type="curve" smooth="yes"/>
      <point x="963" y="2397"/>
      <point x="1019" y="2455"/>
      <point x="1094" y="2478" type="curve" smooth="yes"/>
      <point x="1116" y="2484"/>
      <point x="1140" y="2486"/>
      <point x="1162" y="2487" type="curve" smooth="yes"/>
      <point x="1186" y="2489"/>
      <point x="1214" y="2483"/>
      <point x="1237" y="2478" type="curve" smooth="yes"/>
      <point x="1279" y="2469"/>
      <point x="1314" y="2448"/>
      <point x="1353" y="2433" type="curve" smooth="yes"/>
      <point x="1380" y="2423"/>
      <point x="1414" y="2426"/>
      <point x="1439" y="2413" type="curve" smooth="yes"/>
      <point x="1451" y="2408"/>
      <point x="1461" y="2393"/>
      <point x="1469" y="2385" type="curve" smooth="yes"/>
      <point x="1475" y="2379"/>
      <point x="1485" y="2372"/>
      <point x="1488" y="2365" type="curve" smooth="yes"/>
      <point x="1491" y="2359"/>
      <point x="1489" y="2348"/>
      <point x="1488" y="2343" type="curve" smooth="yes"/>
      <point x="1486" y="2330"/>
      <point x="1486" y="2317"/>
      <point x="1486" y="2305" type="curve" smooth="yes"/>
      <point x="1483" y="2243"/>
      <point x="1474" y="2183"/>
      <point x="1466" y="2123" type="curve" smooth="yes"/>
      <point x="1452" y="1999"/>
      <point x="1433" y="1877"/>
      <point x="1418" y="1754" type="curve" smooth="yes"/>
      <point x="1399" y="1595"/>
      <point x="1375" y="1438"/>
      <point x="1356" y="1280" type="curve" smooth="yes"/>
      <point x="1351" y="1234"/>
      <point x="1344" y="1188"/>
      <point x="1338" y="1143" type="curve" smooth="yes"/>
      <point x="1335" y="1120"/>
      <point x="1330" y="1096"/>
      <point x="1330" y="1073" type="curve" smooth="yes"/>
    </contour>
    <contour>
      <point x="1515" y="2527" type="move" smooth="yes"/>
      <point x="1515" y="2511"/>
      <point x="1512" y="2496"/>
      <point x="1511" y="2482" type="curve" smooth="yes"/>
      <point x="1508" y="2457"/>
      <point x="1506" y="2433"/>
      <point x="1503" y="2409" type="curve" smooth="yes"/>
      <point x="1501" y="2393"/>
      <point x="1502" y="2376"/>
      <point x="1489" y="2366" type="curve" smooth="yes"/>
    </contour>
  </outline>
</glyph>
<glyph name="D" format="1">
  <advance width="2031"/>
  <unicode hex="0044"/>
  <outline>
    <contour>
      <point x="0" y="2820" type="move"/>
      <point x="174" y="2820" type="line"/>
      <point x="226" y="2820" type="line"/>
      <point x="249" y="2819" type="line"/>
      <point x="269" y="2801" type="line"/>
      <point x="314" y="2756" type="line"/>
      <point x="359" y="2801" type="line" smooth="yes"/>
      <point x="364" y="2806"/>
      <point x="371" y="2816"/>
      <point x="379" y="2819" type="curve" smooth="yes"/>
      <point x="386" y="2822"/>
      <point x="399" y="2820"/>
      <point x="408" y="2820" type="curve" smooth="yes"/>
      <point x="472" y="2820" type="line"/>
      <point x="690" y="2820" type="line" smooth="yes"/>
      <point x="817" y="2820"/>
      <point x="946" y="2825"/>
      <point x="1074" y="2812" type="curve" smooth="yes"/>
      <point x="1278" y="2792"/>
      <point x="1479" y="2717"/>
      <point x="1635" y="2580" type="curve" smooth="yes"/>
      <point x="1873" y="2371"/>
      <point x="1984" y="2045"/>
      <point x="2015" y="1737" type="curve" smooth="yes"/>
      <point x="2022" y="1659"/>
      <point x="2030" y="1581"/>
      <point x="2031" y="1503" type="curve" smooth="yes"/>
      <point x="2031" y="1462"/>
      <point x="2027" y="1421"/>
      <point x="2026" y="1381" type="curve" smooth="yes"/>
      <point x="2010" y="1027"/>
      <point x="1884" y="651"/>
      <point x="1588" y="435" type="curve" smooth="yes"/>
      <point x="1524" y="389"/>
      <point x="1454" y="351"/>
      <point x="1382" y="322" type="curve" smooth="yes"/>
      <point x="1268" y="277"/>
      <point x="1148" y="254"/>
      <point x="1027" y="245" type="curve" smooth="yes"/>
      <point x="875" y="235"/>
      <point x="722" y="242"/>
      <point x="571" y="242" type="curve" smooth="yes"/>
      <point x="437" y="242" type="line"/>
      <point x="397" y="242" type="line" smooth="yes"/>
      <point x="391" y="242"/>
      <point x="384" y="240"/>
      <point x="379" y="242" type="curve" smooth="yes"/>
      <point x="371" y="245"/>
      <point x="364" y="255"/>
      <point x="359" y="261" type="curve" smooth="yes"/>
      <point x="314" y="306" type="line"/>
      <point x="269" y="261" type="line"/>
      <point x="249" y="242" type="line"/>
      <point x="226" y="242" type="line"/>
      <point x="174" y="242" type="line"/>
      <point x="0" y="242" type="line"/>
    </contour>
    <contour>
      <point x="314" y="2756" type="move"/>
      <point x="314" y="306" type="line"/>
    </contour>
  </outline>
</glyph>
<glyph name="F" format="1">
  <advance width="1822"/>
  <unicode hex="0046"/>
  <outline>
    <contour>
      <point x="31" y="2820" type="move"/>
      <point x="184" y="2820" type="line"/>
      <point x="229" y="2820" type="line" smooth="yes"/>
      <point x="234" y="2820"/>
      <point x="243" y="2821"/>
      <point x="249" y="2819" type="curve" smooth="yes"/>
      <point x="255" y="2817"/>
      <point x="260" y="2809"/>
      <point x="265" y="2805" type="curve" smooth="yes"/>
      <point x="298" y="2772" type="line" smooth="yes"/>
      <point x="302" y="2767"/>
      <point x="310" y="2761"/>
      <point x="313" y="2755" type="curve" smooth="yes"/>
      <point x="318" y="2741"/>
      <point x="314" y="2719"/>
      <point x="314" y="2706" type="curve" smooth="yes"/>
      <point x="314" y="2593" type="line"/>
      <point x="314" y="2211" type="line"/>
      <point x="314" y="913" type="line"/>
      <point x="314" y="477" type="line"/>
      <point x="314" y="355" type="line"/>
      <point x="314" y="321" type="line" smooth="yes"/>
      <point x="314" y="316"/>
      <point x="315" y="310"/>
      <point x="312" y="306" type="curve" smooth="yes"/>
      <point x="309" y="299"/>
      <point x="302" y="294"/>
      <point x="298" y="290" type="curve" smooth="yes"/>
      <point x="267" y="259" type="line" smooth="yes"/>
      <point x="261" y="253"/>
      <point x="255" y="245"/>
      <point x="249" y="242" type="curve" smooth="yes"/>
      <point x="242" y="240"/>
      <point x="232" y="242"/>
      <point x="226" y="242" type="curve" smooth="yes"/>
      <point x="174" y="242" type="line"/>
      <point x="0" y="242" type="line"/>
    </contour>
    <contour>
      <point x="314" y="2757" type="move"/>
      <point x="358" y="2801" type="line" smooth="yes"/>
      <point x="363" y="2806"/>
      <point x="370" y="2816"/>
      <point x="378" y="2819" type="curve" smooth="yes"/>
      <point x="384" y="2821"/>
      <point x="395" y="2820"/>
      <point x="403" y="2820" type="curve" smooth="yes"/>
      <point x="457" y="2820" type="line"/>
      <point x="643" y="2820" type="line"/>
      <point x="1136" y="2820" type="line" smooth="yes"/>
      <point x="1241" y="2820"/>
      <point x="1347" y="2824"/>
      <point x="1452" y="2814" type="curve" smooth="yes"/>
      <point x="1532" y="2806"/>
      <point x="1614" y="2793"/>
      <point x="1692" y="2768" type="curve" smooth="yes"/>
      <point x="1709" y="2762"/>
      <point x="1727" y="2756"/>
      <point x="1745" y="2749" type="curve" smooth="yes"/>
      <point x="1751" y="2747"/>
      <point x="1761" y="2745"/>
      <point x="1766" y="2740" type="curve" smooth="yes"/>
      <point x="1772" y="2733"/>
      <point x="1773" y="2716"/>
      <point x="1775" y="2708" type="curve" smooth="yes"/>
      <point x="1783" y="2678"/>
      <point x="1789" y="2649"/>
      <point x="1794" y="2620" type="curve" smooth="yes"/>
      <point x="1813" y="2502"/>
      <point x="1822" y="2384"/>
      <point x="1822" y="2266" type="curve" smooth="yes"/>
    </contour>
    <contour>
      <point x="1470" y="1289" type="move" smooth="yes"/>
      <point x="1470" y="1358"/>
      <point x="1464" y="1429"/>
      <point x="1451" y="1498" type="curve" smooth="yes"/>
      <point x="1446" y="1521"/>
      <point x="1441" y="1544"/>
      <point x="1435" y="1568" type="curve" smooth="yes"/>
      <point x="1432" y="1578"/>
      <point x="1425" y="1592"/>
      <point x="1425" y="1604" type="curve" smooth="yes"/>
      <point x="1425" y="1614"/>
      <point x="1431" y="1626"/>
      <point x="1434" y="1637" type="curve" smooth="yes"/>
      <point x="1440" y="1660"/>
      <point x="1445" y="1684"/>
      <point x="1449" y="1709" type="curve" smooth="yes"/>
      <point x="1463" y="1786"/>
      <point x="1470" y="1866"/>
      <point x="1470" y="1945" type="curve" smooth="yes"/>
    </contour>
    <contour>
      <point x="315" y="1601" type="move"/>
      <point x="1424" y="1604" type="line"/>
      <point x="1251" y="1601" type="line"/>
    </contour>
    <contour>
      <point x="314" y="305" type="move"/>
      <point x="358" y="261" type="line"/>
      <point x="378" y="242" type="line"/>
      <point x="403" y="242" type="line"/>
      <point x="457" y="242" type="line"/>
      <point x="643" y="242" type="line"/>
    </contour>
  </outline>
</glyph>
<glyph name="J" format="1">
  <advance width="1149"/>
  <unicode hex="004A"/>
  <outline>
    <contour>
      <point x="553" y="2820" type="move"/>
      <point x="716" y="2820" type="line"/>
      <point x="764" y="2820" type="line" smooth="yes"/>
      <point x="771" y="2820"/>
      <point x="780" y="2821"/>
      <point x="786" y="2819" type="curve" smooth="yes"/>
      <point x="793" y="2816"/>
      <point x="799" y="2808"/>
      <point x="804" y="2803" type="curve" smooth="yes"/>
      <point x="835" y="2772" type="line" smooth="yes"/>
      <point x="840" y="2767"/>
      <point x="847" y="2762"/>
      <point x="850" y="2756" type="curve" smooth="yes"/>
      <point x="852" y="2751"/>
      <point x="851" y="2745"/>
      <point x="851" y="2741" type="curve" smooth="yes"/>
      <point x="851" y="2710" type="line"/>
      <point x="851" y="2596" type="line"/>
      <point x="851" y="2189" type="line"/>
      <point x="851" y="1425" type="line" smooth="yes"/>
      <point x="851" y="1271"/>
      <point x="855" y="1117"/>
      <point x="848" y="965" type="curve" smooth="yes"/>
      <point x="843" y="846"/>
      <point x="835" y="731"/>
      <point x="808" y="616" type="curve" smooth="yes"/>
      <point x="789" y="533"/>
      <point x="755" y="449"/>
      <point x="700" y="384" type="curve" smooth="yes"/>
      <point x="641" y="313"/>
      <point x="560" y="266"/>
      <point x="470" y="246" type="curve" smooth="yes"/>
      <point x="439" y="239"/>
      <point x="407" y="237"/>
      <point x="375" y="235" type="curve" smooth="yes"/>
      <point x="313" y="233"/>
      <point x="246" y="239"/>
      <point x="189" y="268" type="curve" smooth="yes"/>
      <point x="116" y="305"/>
      <point x="62" y="368"/>
      <point x="33" y="445" type="curve" smooth="yes"/>
      <point x="24" y="468"/>
      <point x="19" y="493"/>
      <point x="15" y="518" type="curve" smooth="yes"/>
      <point x="10" y="540"/>
      <point x="5" y="563"/>
      <point x="2" y="586" type="curve" smooth="yes"/>
      <point x="1" y="597"/>
      <point x="-1" y="609"/>
      <point x="1" y="621" type="curve" smooth="yes"/>
      <point x="5" y="634"/>
      <point x="18" y="644"/>
      <point x="25" y="656" type="curve" smooth="yes"/>
    </contour>
    <contour>
      <point x="851" y="2757" type="move"/>
      <point x="895" y="2801" type="line"/>
      <point x="915" y="2819" type="line"/>
      <point x="937" y="2820" type="line"/>
      <point x="985" y="2820" type="line"/>
      <point x="1148" y="2820" type="line"/>
    </contour>
  </outline>
</glyph>
<glyph name="K" format="1">
  <advance width="2268"/>
  <unicode hex="004B"/>
  <outline>
    <contour>
      <point x="0" y="2820" type="move"/>
      <point x="164" y="2820" type="line"/>
      <point x="212" y="2820" type="line" smooth="yes"/>
      <point x="218" y="2820"/>
      <point x="227" y="2821"/>
      <point x="234" y="2819" type="curve" smooth="yes"/>
      <point x="240" y="2816"/>
      <point x="246" y="2808"/>
      <point x="252" y="2803" type="curve" smooth="yes"/>
      <point x="283" y="2772" type="line" smooth="yes"/>
      <point x="287" y="2767"/>
      <point x="294" y="2762"/>
      <point x="297" y="2756" type="curve" smooth="yes"/>
      <point x="300" y="2751"/>
      <point x="299" y="2745"/>
      <point x="299" y="2741" type="curve" smooth="yes"/>
      <point x="299" y="2707" type="line"/>
      <point x="299" y="2585" type="line"/>
      <point x="299" y="2149" type="line"/>
      <point x="299" y="852" type="line"/>
      <point x="299" y="469" type="line"/>
      <point x="299" y="356" type="line" smooth="yes"/>
      <point x="299" y="342"/>
      <point x="303" y="320"/>
      <point x="298" y="307" type="curve" smooth="yes"/>
      <point x="296" y="300"/>
      <point x="288" y="295"/>
      <point x="284" y="291" type="curve" smooth="yes"/>
      <point x="251" y="258" type="line" smooth="yes"/>
      <point x="246" y="253"/>
      <point x="240" y="245"/>
      <point x="234" y="242" type="curve" smooth="yes"/>
      <point x="227" y="240"/>
      <point x="218" y="242"/>
      <point x="212" y="242" type="curve" smooth="yes"/>
      <point x="164" y="242" type="line"/>
      <point x="0" y="242" type="line"/>
    </contour>
    <contour>
      <point x="299" y="2757" type="move"/>
      <point x="343" y="2801" type="line"/>
      <point x="363" y="2819" type="line"/>
      <point x="385" y="2820" type="line"/>
      <point x="433" y="2820" type="line"/>
      <point x="597" y="2820" type="line"/>
    </contour>
    <contour>
      <point x="1438" y="2820" type="move"/>
      <point x="2065" y="2820" type="line" smooth="yes"/>
      <point x="1978" y="2820"/>
      <point x="1889" y="2824"/>
      <point x="1803" y="2819" type="curve" smooth="yes"/>
      <point x="1786" y="2819"/>
      <point x="1765" y="2808"/>
      <point x="1750" y="2802" type="curve" smooth="yes"/>
      <point x="1744" y="2800"/>
      <point x="1735" y="2795"/>
      <point x="1729" y="2796" type="curve" smooth="yes"/>
      <point x="1717" y="2797"/>
      <point x="1712" y="2817"/>
      <point x="1700" y="2819" type="curve" smooth="yes"/>
      <point x="1672" y="2824"/>
      <point x="1641" y="2820"/>
      <point x="1614" y="2820" type="curve" smooth="yes"/>
    </contour>
    <contour>
      <point x="1728" y="2794" type="move" smooth="yes"/>
      <point x="1718" y="2772"/>
      <point x="1716" y="2744"/>
      <point x="1704" y="2725" type="curve" smooth="yes"/>
      <point x="1696" y="2712"/>
      <point x="1683" y="2703"/>
      <point x="1674" y="2693" type="curve" smooth="yes"/>
      <point x="1651" y="2668"/>
      <point x="1627" y="2644"/>
      <point x="1604" y="2620" type="curve" smooth="yes"/>
      <point x="1530" y="2543"/>
      <point x="1456" y="2466"/>
      <point x="1383" y="2390" type="curve" smooth="yes"/>
      <point x="1293" y="2296"/>
      <point x="1203" y="2202"/>
      <point x="1113" y="2109" type="curve" smooth="yes"/>
      <point x="1080" y="2073"/>
      <point x="1046" y="2039"/>
      <point x="1012" y="2004" type="curve" smooth="yes"/>
      <point x="995" y="1986"/>
      <point x="976" y="1969"/>
      <point x="961" y="1950" type="curve" smooth="yes"/>
      <point x="953" y="1940"/>
      <point x="950" y="1925"/>
      <point x="947" y="1914" type="curve" smooth="yes"/>
      <point x="941" y="1894"/>
      <point x="934" y="1876"/>
      <point x="929" y="1857" type="curve" smooth="yes"/>
      <point x="926" y="1848"/>
      <point x="924" y="1833"/>
      <point x="918" y="1827" type="curve" smooth="yes"/>
      <point x="911" y="1820"/>
      <point x="895" y="1818"/>
      <point x="887" y="1815" type="curve" smooth="yes"/>
      <point x="860" y="1805"/>
      <point x="829" y="1799"/>
      <point x="805" y="1786" type="curve" smooth="yes"/>
      <point x="793" y="1780"/>
      <point x="782" y="1764"/>
      <point x="773" y="1755" type="curve" smooth="yes"/>
      <point x="757" y="1737"/>
      <point x="739" y="1720"/>
      <point x="723" y="1703" type="curve" smooth="yes"/>
      <point x="660" y="1640"/>
      <point x="600" y="1575"/>
      <point x="539" y="1511" type="curve" smooth="yes"/>
      <point x="520" y="1491"/>
      <point x="500" y="1471"/>
      <point x="482" y="1452" type="curve" smooth="yes"/>
      <point x="472" y="1441"/>
      <point x="462" y="1428"/>
      <point x="450" y="1419" type="curve" smooth="yes"/>
      <point x="439" y="1411"/>
      <point x="419" y="1408"/>
      <point x="406" y="1403" type="curve" smooth="yes"/>
      <point x="371" y="1391"/>
      <point x="336" y="1375"/>
      <point x="300" y="1375" type="curve" smooth="yes"/>
    </contour>
    <contour>
      <point x="2268" y="242" type="move"/>
      <point x="2089" y="242" type="line"/>
      <point x="2032" y="242" type="line" smooth="yes"/>
      <point x="2022" y="242"/>
      <point x="2012" y="240"/>
      <point x="2003" y="242" type="curve" smooth="yes"/>
      <point x="1993" y="244"/>
      <point x="1984" y="249"/>
      <point x="1976" y="253" type="curve" smooth="yes"/>
      <point x="1960" y="260"/>
      <point x="1944" y="267"/>
      <point x="1929" y="274" type="curve" smooth="yes"/>
      <point x="1911" y="281"/>
      <point x="1887" y="287"/>
      <point x="1872" y="299" type="curve" smooth="yes"/>
      <point x="1866" y="303"/>
      <point x="1865" y="318"/>
      <point x="1864" y="325" type="curve" smooth="yes"/>
      <point x="1859" y="345"/>
      <point x="1856" y="368"/>
      <point x="1844" y="387" type="curve" smooth="yes"/>
      <point x="1790" y="473"/>
      <point x="1735" y="559"/>
      <point x="1679" y="645" type="curve" smooth="yes"/>
      <point x="1508" y="907"/>
      <point x="1339" y="1172"/>
      <point x="1172" y="1437" type="curve" smooth="yes"/>
      <point x="1116" y="1524"/>
      <point x="1060" y="1611"/>
      <point x="1004" y="1699" type="curve" smooth="yes"/>
      <point x="987" y="1725"/>
      <point x="970" y="1751"/>
      <point x="953" y="1778" type="curve" smooth="yes"/>
      <point x="942" y="1794"/>
      <point x="933" y="1813"/>
      <point x="919" y="1827" type="curve" smooth="yes"/>
    </contour>
    <contour>
      <point x="299" y="305" type="move"/>
      <point x="597" y="242" type="line"/>
      <point x="433" y="242" type="line"/>
      <point x="385" y="242" type="line"/>
      <point x="363" y="242" type="line"/>
      <point x="343" y="261" type="line"/>
    </contour>
    <contour>
      <point x="1870" y="300" type="move"/>
      <point x="1830" y="260" type="line"/>
      <point x="1811" y="242" type="line"/>
      <point x="1785" y="242" type="line"/>
      <point x="1727" y="242" type="line"/>
      <point x="1532" y="242" type="line"/>
    </contour>
  </outline>
</glyph>
<glyph name="L" format="1">
  <advance width="1822"/>
  <unicode hex="004C"/>
  <outline>
    <contour>
      <point x="0" y="2820" type="move"/>
      <point x="164" y="2820" type="line"/>
      <point x="212" y="2820" type="line" smooth="yes"/>
      <point x="218" y="2820"/>
      <point x="227" y="2821"/>
      <point x="234" y="2819" type="curve" smooth="yes"/>
      <point x="240" y="2817"/>
      <point x="245" y="2809"/>
      <point x="250" y="2805" type="curve" smooth="yes"/>
      <point x="283" y="2772" type="line" smooth="yes"/>
      <point x="287" y="2767"/>
      <point x="295" y="2761"/>
      <point x="298" y="2755" type="curve" smooth="yes"/>
      <point x="303" y="2741"/>
      <point x="299" y="2719"/>
      <point x="299" y="2706" type="curve" smooth="yes"/>
      <point x="299" y="2593" type="line"/>
      <point x="299" y="2210" type="line"/>
      <point x="299" y="913" type="line"/>
      <point x="299" y="477" type="line"/>
      <point x="299" y="355" type="line"/>
      <point x="299" y="321" type="line" smooth="yes"/>
      <point x="299" y="316"/>
      <point x="300" y="310"/>
      <point x="297" y="306" type="curve" smooth="yes"/>
      <point x="294" y="299"/>
      <point x="287" y="294"/>
      <point x="283" y="290" type="curve" smooth="yes"/>
      <point x="252" y="259" type="line" smooth="yes"/>
      <point x="246" y="253"/>
      <point x="240" y="245"/>
      <point x="234" y="242" type="curve" smooth="yes"/>
      <point x="227" y="240"/>
      <point x="218" y="242"/>
      <point x="212" y="242" type="curve" smooth="yes"/>
      <point x="164" y="242" type="line"/>
      <point x="0" y="242" type="line"/>
    </contour>
    <contour>
      <point x="299" y="2757" type="move"/>
      <point x="343" y="2801" type="line"/>
      <point x="363" y="2819" type="line"/>
      <point x="385" y="2820" type="line"/>
      <point x="433" y="2820" type="line"/>
      <point x="597" y="2820" type="line"/>
    </contour>
    <contour>
      <point x="1822" y="812" type="move" smooth="yes"/>
      <point x="1822" y="689"/>
      <point x="1812" y="569"/>
      <point x="1792" y="449" type="curve" smooth="yes"/>
      <point x="1786" y="418"/>
      <point x="1779" y="388"/>
      <point x="1772" y="359" type="curve" smooth="yes"/>
      <point x="1770" y="350"/>
      <point x="1768" y="331"/>
      <point x="1761" y="325" type="curve" smooth="yes"/>
      <point x="1757" y="321"/>
      <point x="1748" y="319"/>
      <point x="1743" y="317" type="curve" smooth="yes"/>
      <point x="1726" y="311"/>
      <point x="1709" y="306"/>
      <point x="1692" y="300" type="curve" smooth="yes"/>
      <point x="1622" y="277"/>
      <point x="1548" y="264"/>
      <point x="1476" y="254" type="curve" smooth="yes"/>
      <point x="1356" y="239"/>
      <point x="1235" y="242"/>
      <point x="1115" y="242" type="curve" smooth="yes"/>
      <point x="644" y="242" type="line"/>
      <point x="447" y="242" type="line"/>
      <point x="389" y="242" type="line" smooth="yes"/>
      <point x="381" y="242"/>
      <point x="370" y="239"/>
      <point x="363" y="242" type="curve" smooth="yes"/>
      <point x="355" y="245"/>
      <point x="348" y="255"/>
      <point x="343" y="261" type="curve" smooth="yes"/>
      <point x="299" y="305" type="line"/>
    </contour>
  </outline>
</glyph>
<glyph name="N" format="1">
  <advance width="2268"/>
  <unicode hex="004E"/>
  <outline>
    <contour>
      <point x="0" y="2820" type="move"/>
      <point x="174" y="2820" type="line"/>
      <point x="226" y="2820" type="line" smooth="yes"/>
      <point x="232" y="2820"/>
      <point x="242" y="2821"/>
      <point x="249" y="2819" type="curve" smooth="yes"/>
      <point x="255" y="2816"/>
      <point x="261" y="2808"/>
      <point x="266" y="2804" type="curve" smooth="yes"/>
      <point x="278" y="2791"/>
      <point x="293" y="2779"/>
      <point x="304" y="2765" type="curve" smooth="yes"/>
      <point x="307" y="2761"/>
      <point x="307" y="2755"/>
      <point x="310" y="2752" type="curve" smooth="yes"/>
      <point x="328" y="2738"/>
      <point x="359" y="2739"/>
      <point x="375" y="2723" type="curve" smooth="yes"/>
      <point x="390" y="2710"/>
      <point x="400" y="2688"/>
      <point x="412" y="2673" type="curve" smooth="yes"/>
      <point x="438" y="2636"/>
      <point x="463" y="2599"/>
      <point x="489" y="2562" type="curve" smooth="yes"/>
      <point x="557" y="2461"/>
      <point x="628" y="2362"/>
      <point x="698" y="2263" type="curve" smooth="yes"/>
      <point x="869" y="2021"/>
      <point x="1038" y="1777"/>
      <point x="1207" y="1535" type="curve" smooth="yes"/>
      <point x="1331" y="1357"/>
      <point x="1457" y="1180"/>
      <point x="1581" y="1002" type="curve" smooth="yes"/>
      <point x="1643" y="911"/>
      <point x="1707" y="822"/>
      <point x="1770" y="732" type="curve" smooth="yes"/>
      <point x="1810" y="674"/>
      <point x="1848" y="615"/>
      <point x="1890" y="560" type="curve" smooth="yes"/>
      <point x="1899" y="547"/>
      <point x="1926" y="541"/>
      <point x="1941" y="535" type="curve" smooth="yes"/>
      <point x="1946" y="533"/>
      <point x="1955" y="531"/>
      <point x="1958" y="525" type="curve" smooth="yes"/>
      <point x="1963" y="518"/>
      <point x="1964" y="505"/>
      <point x="1966" y="497" type="curve" smooth="yes"/>
      <point x="1971" y="477"/>
      <point x="1976" y="457"/>
      <point x="1981" y="438" type="curve" smooth="yes"/>
      <point x="1998" y="372"/>
      <point x="2013" y="307"/>
      <point x="2032" y="243" type="curve" smooth="yes"/>
    </contour>
    <contour>
      <point x="1797" y="2820" type="move"/>
      <point x="2268" y="2820" type="line"/>
    </contour>
    <contour>
      <point x="2032" y="2819" type="move"/>
      <point x="2032" y="1151" type="line"/>
      <point x="2032" y="766" type="line"/>
      <point x="2032" y="652" type="line" smooth="yes"/>
      <point x="2032" y="638"/>
      <point x="2036" y="616"/>
      <point x="2031" y="603" type="curve" smooth="yes"/>
      <point x="2028" y="594"/>
      <point x="2016" y="586"/>
      <point x="2010" y="580" type="curve" smooth="yes"/>
      <point x="1958" y="528" type="line"/>
    </contour>
    <contour>
      <point x="309" y="2752" type="move"/>
      <point x="269" y="2712" type="line"/>
      <point x="263" y="2706"/>
      <point x="253,734" y="2700,11"/>
      <point x="251" y="2693" type="curve" smooth="yes"/>
      <point x="246" y="2680"/>
      <point x="251" y="2659"/>
      <point x="251" y="2646" type="curve" smooth="yes"/>
      <point x="251" y="2537" type="line"/>
      <point x="251" y="2168" type="line"/>
      <point x="251" y="784" type="line"/>
      <point x="251" y="396" type="line"/>
      <point x="251" y="288" type="line"/>
      <point x="251" y="257" type="line" smooth="yes"/>
      <point x="251" y="253"/>
      <point x="249" y="247"/>
      <point x="251" y="244" type="curve" smooth="yes"/>
      <point x="253" y="240"/>
      <point x="262" y="242"/>
      <point x="266" y="242" type="curve" smooth="yes"/>
      <point x="308" y="242" type="line"/>
      <point x="486" y="242" type="line"/>
    </contour>
    <contour>
      <point x="15" y="242" type="move"/>
      <point x="250" y="242" type="line"/>
    </contour>
  </outline>
</glyph>
<glyph name="Q" format="1">
  <advance width="2221"/>
  <unicode hex="0051"/>
  <outline>
    <contour>
      <point x="2220" y="239" type="move" smooth="yes"/>
      <point x="2174" y="151"/>
      <point x="2113" y="64"/>
      <point x="2019" y="22" type="curve" smooth="yes"/>
      <point x="1979" y="4"/>
      <point x="1937" y="-6"/>
      <point x="1894" y="-14" type="curve" smooth="yes"/>
      <point x="1877" y="-18"/>
      <point x="1856" y="-24"/>
      <point x="1838" y="-23" type="curve" smooth="yes"/>
      <point x="1820" y="-23"/>
      <point x="1800" y="-19"/>
      <point x="1781" y="-16" type="curve" smooth="yes"/>
      <point x="1749" y="-11"/>
      <point x="1717" y="-6"/>
      <point x="1686" y="7" type="curve" smooth="yes"/>
      <point x="1641" y="29"/>
      <point x="1600" y="64"/>
      <point x="1566" y="101" type="curve" smooth="yes"/>
      <point x="1548" y="120"/>
      <point x="1524" y="141"/>
      <point x="1512" y="166" type="curve" smooth="yes"/>
      <point x="1506" y="177"/>
      <point x="1504" y="193"/>
      <point x="1501" y="206" type="curve" smooth="yes"/>
      <point x="1495" y="228"/>
      <point x="1487" y="252"/>
      <point x="1484" y="276" type="curve" smooth="yes"/>
      <point x="1483" y="285"/>
      <point x="1502" y="298"/>
      <point x="1508" y="305" type="curve" smooth="yes"/>
      <point x="1518" y="314"/>
      <point x="1528" y="329"/>
      <point x="1540" y="336" type="curve" smooth="yes"/>
      <point x="1550" y="341"/>
      <point x="1564" y="340"/>
      <point x="1574" y="342" type="curve" smooth="yes"/>
      <point x="1587" y="345"/>
      <point x="1600" y="354"/>
      <point x="1611" y="360" type="curve" smooth="yes"/>
      <point x="1741" y="431"/>
      <point x="1852" y="528"/>
      <point x="1940" y="648" type="curve" smooth="yes"/>
      <point x="2046" y="791"/>
      <point x="2118" y="954"/>
      <point x="2162" y="1127" type="curve" smooth="yes"/>
      <point x="2184" y="1211"/>
      <point x="2194" y="1298"/>
      <point x="2203" y="1385" type="curve" smooth="yes"/>
      <point x="2215" y="1510"/>
      <point x="2214" y="1638"/>
      <point x="2196" y="1763" type="curve" smooth="yes"/>
      <point x="2179" y="1879"/>
      <point x="2152" y="1992"/>
      <point x="2108" y="2102" type="curve" smooth="yes"/>
      <point x="2032" y="2290"/>
      <point x="1906" y="2458"/>
      <point x="1749" y="2586" type="curve" smooth="yes"/>
      <point x="1563" y="2739"/>
      <point x="1324" y="2799"/>
      <point x="1086" y="2794" type="curve" smooth="yes"/>
      <point x="866" y="2788"/>
      <point x="651" y="2729"/>
      <point x="474" y="2593" type="curve" smooth="yes"/>
      <point x="413" y="2546"/>
      <point x="358" y="2493"/>
      <point x="308" y="2435" type="curve" smooth="yes"/>
      <point x="-28" y="2042"/>
      <point x="-73" y="1468"/>
      <point x="95" y="994" type="curve" smooth="yes"/>
      <point x="122" y="917"/>
      <point x="159" y="844"/>
      <point x="200" y="775" type="curve" smooth="yes"/>
      <point x="214" y="752"/>
      <point x="228" y="730"/>
      <point x="243" y="709" type="curve" smooth="yes"/>
      <point x="248" y="701"/>
      <point x="253" y="692"/>
      <point x="259" y="685" type="curve" smooth="yes"/>
      <point x="263" y="681"/>
      <point x="269" y="679"/>
      <point x="274" y="677" type="curve" smooth="yes"/>
      <point x="286" y="673"/>
      <point x="298" y="669"/>
      <point x="309" y="665" type="curve" smooth="yes"/>
      <point x="314" y="663"/>
      <point x="322" y="662"/>
      <point x="326" y="657" type="curve" smooth="yes"/>
      <point x="330" y="651"/>
      <point x="331" y="641"/>
      <point x="333" y="635" type="curve" smooth="yes"/>
      <point x="341" y="612"/>
      <point x="345" y="584"/>
      <point x="357" y="565" type="curve" smooth="yes"/>
      <point x="366" y="551"/>
      <point x="380" y="540"/>
      <point x="391" y="529" type="curve" smooth="yes"/>
      <point x="418" y="503"/>
      <point x="445" y="478"/>
      <point x="474" y="455" type="curve" smooth="yes"/>
      <point x="665" y="306"/>
      <point x="911" y="239"/>
      <point x="1151" y="250" type="curve" smooth="yes"/>
      <point x="1192" y="251"/>
      <point x="1231" y="255"/>
      <point x="1271" y="257" type="curve" smooth="yes"/>
      <point x="1287" y="258"/>
      <point x="1309" y="255"/>
      <point x="1323" y="260" type="curve" smooth="yes"/>
      <point x="1329" y="262"/>
      <point x="1333" y="268"/>
      <point x="1336" y="272" type="curve" smooth="yes"/>
      <point x="1363" y="299" type="line" smooth="yes"/>
      <point x="1367" y="302"/>
      <point x="1372" y="310"/>
      <point x="1377" y="311" type="curve" smooth="yes"/>
      <point x="1385" y="312"/>
      <point x="1397" y="302"/>
      <point x="1404" y="300" type="curve" smooth="yes"/>
      <point x="1415" y="298"/>
      <point x="1427" y="302"/>
      <point x="1438" y="299" type="curve" smooth="yes"/>
      <point x="1454" y="295"/>
      <point x="1468" y="284"/>
      <point x="1483" y="280" type="curve" smooth="yes"/>
    </contour>
    <contour>
      <point x="325" y="659" type="move" smooth="yes"/>
      <point x="339" y="672"/>
      <point x="353" y="689"/>
      <point x="368" y="701" type="curve" smooth="yes"/>
      <point x="376" y="707"/>
      <point x="388" y="709"/>
      <point x="393" y="717" type="curve" smooth="yes"/>
      <point x="400" y="726"/>
      <point x="404" y="739"/>
      <point x="410" y="750" type="curve" smooth="yes"/>
      <point x="420" y="771"/>
      <point x="431" y="792"/>
      <point x="443" y="813" type="curve" smooth="yes"/>
      <point x="497" y="908"/>
      <point x="563" y="1007"/>
      <point x="664" y="1058" type="curve" smooth="yes"/>
      <point x="701" y="1077"/>
      <point x="742" y="1085"/>
      <point x="782" y="1091" type="curve" smooth="yes"/>
      <point x="831" y="1097"/>
      <point x="876" y="1099"/>
      <point x="924" y="1088" type="curve" smooth="yes"/>
      <point x="994" y="1072"/>
      <point x="1049" y="1021"/>
      <point x="1093" y="968" type="curve" smooth="yes"/>
      <point x="1183" y="857"/>
      <point x="1222" y="718"/>
      <point x="1277" y="589" type="curve" smooth="yes"/>
      <point x="1290" y="556"/>
      <point x="1304" y="524"/>
      <point x="1320" y="493" type="curve" smooth="yes"/>
      <point x="1331" y="470"/>
      <point x="1345" y="448"/>
      <point x="1353" y="425" type="curve" smooth="yes"/>
      <point x="1357" y="411"/>
      <point x="1359" y="397"/>
      <point x="1362" y="384" type="curve" smooth="yes"/>
      <point x="1367" y="360"/>
      <point x="1372" y="336"/>
      <point x="1377" y="313" type="curve" smooth="yes"/>
    </contour>
  </outline>
</glyph>
<glyph name="V" format="1">
  <advance width="2565"/>
  <unicode hex="0056"/>
  <outline>
    <contour>
      <point x="0" y="2820" type="move"/>
      <point x="161" y="2820" type="line"/>
      <point x="210" y="2820" type="line" smooth="yes"/>
      <point x="217" y="2820"/>
      <point x="226" y="2821"/>
      <point x="234" y="2819" type="curve" smooth="yes"/>
      <point x="249" y="2814"/>
      <point x="264" y="2802"/>
      <point x="279" y="2795" type="curve" smooth="yes"/>
      <point x="292" y="2787"/>
      <point x="306" y="2780"/>
      <point x="320" y="2772" type="curve" smooth="yes"/>
      <point x="324" y="2769"/>
      <point x="332" y="2767"/>
      <point x="336" y="2762" type="curve" smooth="yes"/>
      <point x="339" y="2757"/>
      <point x="339" y="2746"/>
      <point x="340" y="2740" type="curve" smooth="yes"/>
      <point x="343" y="2721"/>
      <point x="345" y="2701"/>
      <point x="350" y="2684" type="curve" smooth="yes"/>
      <point x="355" y="2665"/>
      <point x="365" y="2646"/>
      <point x="372" y="2629" type="curve" smooth="yes"/>
      <point x="385" y="2598"/>
      <point x="397" y="2568"/>
      <point x="409" y="2538" type="curve" smooth="yes"/>
      <point x="486" y="2344"/>
      <point x="565" y="2151"/>
      <point x="644" y="1958" type="curve" smooth="yes"/>
      <point x="799" y="1578"/>
      <point x="950" y="1197"/>
      <point x="1107" y="818" type="curve" smooth="yes"/>
      <point x="1155" y="701"/>
      <point x="1202" y="584"/>
      <point x="1249" y="468" type="curve" smooth="yes"/>
      <point x="1251" y="461"/>
      <point x="1253" y="452"/>
      <point x="1260" y="448" type="curve" smooth="yes"/>
      <point x="1266" y="443"/>
      <point x="1286" y="438"/>
      <point x="1288" y="429" type="curve" smooth="yes"/>
      <point x="1292" y="418"/>
      <point x="1289" y="403"/>
      <point x="1289" y="392" type="curve" smooth="yes"/>
      <point x="1290" y="360"/>
      <point x="1289" y="328"/>
      <point x="1290" y="297" type="curve" smooth="yes"/>
      <point x="1290" y="282"/>
      <point x="1288" y="265"/>
      <point x="1291" y="251" type="curve" smooth="yes"/>
    </contour>
    <contour>
      <point x="337" y="2764" type="move"/>
      <point x="376" y="2803" type="line"/>
      <point x="394" y="2819" type="line"/>
      <point x="419" y="2820" type="line"/>
      <point x="473" y="2820" type="line"/>
      <point x="659" y="2820" type="line"/>
    </contour>
    <contour>
      <point x="1984" y="2820" type="move"/>
      <point x="2565" y="2820" type="line"/>
      <point x="2390" y="2820" type="line"/>
      <point x="2303" y="2819" type="line"/>
      <point x="2269" y="2803" type="line"/>
      <point x="2246" y="2819" type="line"/>
      <point x="2159" y="2820" type="line"/>
    </contour>
    <contour>
      <point x="2268" y="2802" type="move" smooth="yes"/>
      <point x="2261" y="2717"/>
      <point x="2223" y="2638"/>
      <point x="2192" y="2560" type="curve" smooth="yes"/>
      <point x="2146" y="2443"/>
      <point x="2101" y="2326"/>
      <point x="2057" y="2210" type="curve" smooth="yes"/>
      <point x="1903" y="1806"/>
      <point x="1748" y="1403"/>
      <point x="1590" y="1001" type="curve" smooth="yes"/>
      <point x="1542" y="880"/>
      <point x="1497" y="758"/>
      <point x="1450" y="638" type="curve" smooth="yes"/>
      <point x="1436" y="603"/>
      <point x="1423" y="568"/>
      <point x="1410" y="534" type="curve" smooth="yes"/>
      <point x="1405" y="521"/>
      <point x="1401" y="501"/>
      <point x="1392" y="491" type="curve" smooth="yes"/>
      <point x="1384" y="482"/>
      <point x="1369" y="477"/>
      <point x="1360" y="472" type="curve" smooth="yes"/>
      <point x="1336" y="459"/>
      <point x="1314" y="444"/>
      <point x="1290" y="433" type="curve" smooth="yes"/>
    </contour>
  </outline>
</glyph>
<glyph name="W" format="1">
  <advance width="3393"/>
  <unicode hex="0057"/>
  <outline>
    <contour>
      <point x="0" y="2820" type="move"/>
      <point x="129" y="2820" type="line" smooth="yes"/>
      <point x="146" y="2820"/>
      <point x="170" y="2824"/>
      <point x="187" y="2819" type="curve" smooth="yes"/>
      <point x="203" y="2814"/>
      <point x="221" y="2798"/>
      <point x="236" y="2789" type="curve" smooth="yes"/>
      <point x="247" y="2782"/>
      <point x="266" y="2774"/>
      <point x="274" y="2764" type="curve" smooth="yes"/>
      <point x="277" y="2761"/>
      <point x="276" y="2755"/>
      <point x="277" y="2752" type="curve" smooth="yes"/>
      <point x="278" y="2742"/>
      <point x="279" y="2732"/>
      <point x="281" y="2723" type="curve" smooth="yes"/>
      <point x="284" y="2694"/>
      <point x="290" y="2667"/>
      <point x="298" y="2640" type="curve" smooth="yes"/>
      <point x="334" y="2522"/>
      <point x="368" y="2403"/>
      <point x="403" y="2286" type="curve" smooth="yes"/>
      <point x="469" y="2068"/>
      <point x="531" y="1849"/>
      <point x="596" y="1632" type="curve" smooth="yes"/>
      <point x="654" y="1440"/>
      <point x="712" y="1248"/>
      <point x="767" y="1056" type="curve" smooth="yes"/>
      <point x="808" y="914"/>
      <point x="852" y="772"/>
      <point x="893" y="631" type="curve" smooth="yes"/>
      <point x="901" y="603"/>
      <point x="909" y="575"/>
      <point x="917" y="548" type="curve" smooth="yes"/>
      <point x="920" y="537"/>
      <point x="922" y="522"/>
      <point x="928" y="514" type="curve" smooth="yes"/>
      <point x="934" y="505"/>
      <point x="956" y="492"/>
      <point x="966" y="489" type="curve" smooth="yes"/>
      <point x="972" y="487"/>
      <point x="985" y="499"/>
      <point x="991" y="503" type="curve" smooth="yes"/>
      <point x="1008" y="514"/>
      <point x="1026" y="526"/>
      <point x="1045" y="537" type="curve" smooth="yes"/>
      <point x="1052" y="542"/>
      <point x="1064" y="547"/>
      <point x="1067" y="556" type="curve" smooth="yes"/>
      <point x="1073" y="569"/>
      <point x="1075" y="584"/>
      <point x="1079" y="598" type="curve" smooth="yes"/>
      <point x="1087" y="627"/>
      <point x="1096" y="657"/>
      <point x="1104" y="688" type="curve" smooth="yes"/>
      <point x="1127" y="773"/>
      <point x="1151" y="859"/>
      <point x="1174" y="945" type="curve" smooth="yes"/>
      <point x="1230" y="1149"/>
      <point x="1286" y="1353"/>
      <point x="1343" y="1557" type="curve" smooth="yes"/>
      <point x="1395" y="1742"/>
      <point x="1443" y="1928"/>
      <point x="1496" y="2114" type="curve" smooth="yes"/>
      <point x="1524" y="2214"/>
      <point x="1551" y="2316"/>
      <point x="1579" y="2417" type="curve" smooth="yes"/>
      <point x="1586" y="2442"/>
      <point x="1594" y="2468"/>
      <point x="1601" y="2495" type="curve" smooth="yes"/>
      <point x="1603" y="2503"/>
      <point x="1604" y="2519"/>
      <point x="1612" y="2526" type="curve" smooth="yes"/>
      <point x="1633" y="2544"/>
      <point x="1661" y="2557"/>
      <point x="1685" y="2573" type="curve" smooth="yes"/>
      <point x="1690" y="2577"/>
      <point x="1703" y="2589"/>
      <point x="1711" y="2587" type="curve" smooth="yes"/>
      <point x="1720" y="2584"/>
      <point x="1741" y="2572"/>
      <point x="1747" y="2564" type="curve" smooth="yes"/>
      <point x="1753" y="2556"/>
      <point x="1755" y="2541"/>
      <point x="1759" y="2531" type="curve" smooth="yes"/>
      <point x="1784" y="2456" type="line" smooth="yes"/>
      <point x="1828" y="2323"/>
      <point x="1871" y="2190"/>
      <point x="1915" y="2058" type="curve" smooth="yes"/>
      <point x="2041" y="1679"/>
      <point x="2165" y="1299"/>
      <point x="2292" y="921" type="curve" smooth="yes"/>
      <point x="2319" y="837"/>
      <point x="2348" y="754"/>
      <point x="2375" y="671" type="curve" smooth="yes"/>
      <point x="2390" y="623"/>
      <point x="2404" y="575"/>
      <point x="2422" y="529" type="curve" smooth="yes"/>
      <point x="2426" y="517"/>
      <point x="2443" y="511"/>
      <point x="2454" y="505" type="curve" smooth="yes"/>
      <point x="2458" y="502"/>
      <point x="2464" y="500"/>
      <point x="2465" y="494" type="curve" smooth="yes"/>
      <point x="2467" y="486"/>
      <point x="2466" y="474"/>
      <point x="2466" y="466" type="curve" smooth="yes"/>
      <point x="2466" y="451"/>
      <point x="2466" y="435"/>
      <point x="2467" y="421" type="curve" smooth="yes"/>
      <point x="2468" y="367"/>
      <point x="2470" y="314"/>
      <point x="2470" y="261" type="curve" smooth="yes"/>
    </contour>
    <contour>
      <point x="276" y="2765" type="move"/>
      <point x="314" y="2803" type="line"/>
      <point x="332" y="2819" type="line"/>
      <point x="350" y="2820" type="line"/>
      <point x="388" y="2820" type="line"/>
      <point x="518" y="2820" type="line"/>
    </contour>
    <contour>
      <point x="3000" y="2820" type="move"/>
      <point x="3393" y="2820" type="line" smooth="yes"/>
      <point x="3337" y="2820"/>
      <point x="3280" y="2824"/>
      <point x="3225" y="2819" type="curve" smooth="yes"/>
      <point x="3212" y="2819"/>
      <point x="3203" y="2802"/>
      <point x="3192" y="2802" type="curve" smooth="yes"/>
      <point x="3182" y="2802"/>
      <point x="3178" y="2819"/>
      <point x="3168" y="2819" type="curve" smooth="yes"/>
      <point x="3149" y="2821"/>
      <point x="3130" y="2820"/>
      <point x="3112" y="2820" type="curve" smooth="yes"/>
    </contour>
    <contour>
      <point x="1705" y="2803" type="move"/>
      <point x="1709" y="2589" type="line"/>
    </contour>
    <contour>
      <point x="3191" y="2801" type="move" smooth="yes"/>
      <point x="3190" y="2727"/>
      <point x="3163" y="2655"/>
      <point x="3143" y="2586" type="curve" smooth="yes"/>
      <point x="3111" y="2474"/>
      <point x="3079" y="2362"/>
      <point x="3048" y="2251" type="curve" smooth="yes"/>
      <point x="2938" y="1856"/>
      <point x="2825" y="1463"/>
      <point x="2713" y="1070" type="curve" smooth="yes"/>
      <point x="2679" y="952"/>
      <point x="2646" y="834"/>
      <point x="2613" y="717" type="curve" smooth="yes"/>
      <point x="2583" y="612" type="line" smooth="yes"/>
      <point x="2579" y="598"/>
      <point x="2577" y="576"/>
      <point x="2569" y="565" type="curve" smooth="yes"/>
      <point x="2563" y="556"/>
      <point x="2548" y="550"/>
      <point x="2539" y="544" type="curve" smooth="yes"/>
      <point x="2514" y="528"/>
      <point x="2490" y="513"/>
      <point x="2466" y="498" type="curve" smooth="yes"/>
    </contour>
    <contour>
      <point x="968" y="488" type="move"/>
      <point x="970" y="258" type="line"/>
    </contour>
  </outline>
</glyph>
<glyph name="X" format="1">
  <advance width="2283"/>
  <unicode hex="0058"/>
  <outline>
    <contour>
      <point x="8" y="2812" type="move"/>
      <point x="144" y="2812" type="line" smooth="yes"/>
      <point x="165" y="2812"/>
      <point x="188" y="2814"/>
      <point x="210" y="2811" type="curve" smooth="yes"/>
      <point x="228" y="2808"/>
      <point x="249" y="2795"/>
      <point x="267" y="2788" type="curve" smooth="yes"/>
      <point x="280" y="2782"/>
      <point x="298" y="2778"/>
      <point x="309" y="2769" type="curve" smooth="yes"/>
      <point x="315" y="2765"/>
      <point x="316" y="2751"/>
      <point x="317" y="2745" type="curve" smooth="yes"/>
      <point x="322" y="2725"/>
      <point x="325" y="2697"/>
      <point x="336" y="2680" type="curve" smooth="yes"/>
      <point x="349" y="2657"/>
      <point x="366" y="2635"/>
      <point x="381" y="2614" type="curve" smooth="yes"/>
      <point x="497" y="2447" type="line" smooth="yes"/>
      <point x="626" y="2258"/>
      <point x="758" y="2071"/>
      <point x="887" y="1883" type="curve" smooth="yes"/>
      <point x="932" y="1818"/>
      <point x="976" y="1754"/>
      <point x="1021" y="1691" type="curve" smooth="yes"/>
      <point x="1060" y="1634" type="line" smooth="yes"/>
      <point x="1067" y="1624"/>
      <point x="1073" y="1613"/>
      <point x="1081" y="1605" type="curve" smooth="yes"/>
      <point x="1087" y="1599"/>
      <point x="1098" y="1596"/>
      <point x="1106" y="1593" type="curve" smooth="yes"/>
      <point x="1116" y="1589"/>
      <point x="1123" y="1584"/>
      <point x="1132" y="1576" type="curve"/>
      <point x="1147" y="1591"/>
      <point x="1162" y="1609"/>
      <point x="1179" y="1622" type="curve" smooth="yes"/>
      <point x="1186" y="1628"/>
      <point x="1197" y="1629"/>
      <point x="1204" y="1636" type="curve" smooth="yes"/>
      <point x="1213" y="1645"/>
      <point x="1220" y="1658"/>
      <point x="1228" y="1670" type="curve" smooth="yes"/>
      <point x="1246" y="1695"/>
      <point x="1264" y="1722"/>
      <point x="1282" y="1748" type="curve" smooth="yes"/>
      <point x="1337" y="1826"/>
      <point x="1392" y="1906"/>
      <point x="1447" y="1985" type="curve" smooth="yes"/>
      <point x="1564" y="2152"/>
      <point x="1683" y="2318"/>
      <point x="1797" y="2487" type="curve" smooth="yes"/>
      <point x="1833" y="2541"/>
      <point x="1872" y="2593"/>
      <point x="1909" y="2648" type="curve" smooth="yes"/>
      <point x="1925" y="2671"/>
      <point x="1948" y="2695"/>
      <point x="1955" y="2723" type="curve" smooth="yes"/>
      <point x="1960" y="2741"/>
      <point x="1965" y="2758"/>
      <point x="1969" y="2777" type="curve" smooth="yes"/>
      <point x="1971" y="2782"/>
      <point x="1975" y="2792"/>
      <point x="1973" y="2798" type="curve" smooth="yes"/>
      <point x="1961" y="2820"/>
      <point x="1920" y="2812"/>
      <point x="1899" y="2812" type="curve" smooth="yes"/>
      <point x="1680" y="2812" type="line"/>
    </contour>
    <contour>
      <point x="312" y="2770" type="move"/>
      <point x="341" y="2799" type="line"/>
      <point x="355" y="2811" type="line"/>
      <point x="378" y="2812" type="line"/>
      <point x="429" y="2812" type="line"/>
      <point x="603" y="2812" type="line"/>
    </contour>
    <contour>
      <point x="1976" y="2798" type="move"/>
      <point x="2010" y="2811" type="line"/>
      <point x="2044" y="2812" type="line"/>
      <point x="2114" y="2812" type="line"/>
      <point x="2275" y="2812" type="line"/>
    </contour>
    <contour>
      <point x="1132" y="1576" type="move"/>
      <point x="1132" y="1513" type="line" smooth="yes"/>
      <point x="1132" y="1505"/>
      <point x="1129" y="1493"/>
      <point x="1133" y="1487" type="curve" smooth="yes"/>
      <point x="1143" y="1466"/>
      <point x="1172" y="1470"/>
      <point x="1185" y="1454" type="curve" smooth="yes"/>
      <point x="1199" y="1437"/>
      <point x="1211" y="1417"/>
      <point x="1224" y="1399" type="curve" smooth="yes"/>
      <point x="1249" y="1361"/>
      <point x="1275" y="1325"/>
      <point x="1300" y="1288" type="curve" smooth="yes"/>
      <point x="1459" y="1055"/>
      <point x="1620" y="823"/>
      <point x="1782" y="593" type="curve" smooth="yes"/>
      <point x="1833" y="519"/>
      <point x="1887" y="447"/>
      <point x="1935" y="372" type="curve" smooth="yes"/>
      <point x="1945" y="356"/>
      <point x="1947" y="332"/>
      <point x="1951" y="315" type="curve" smooth="yes"/>
      <point x="1953" y="308"/>
      <point x="1954" y="297"/>
      <point x="1959" y="292" type="curve" smooth="yes"/>
      <point x="1964" y="289"/>
      <point x="1971" y="287"/>
      <point x="1977" y="285" type="curve" smooth="yes"/>
      <point x="1989" y="279"/>
      <point x="2002" y="274"/>
      <point x="2016" y="268" type="curve" smooth="yes"/>
      <point x="2036" y="260"/>
      <point x="2058" y="246"/>
      <point x="2080" y="242" type="curve" smooth="yes"/>
      <point x="2100" y="238"/>
      <point x="2125" y="242"/>
      <point x="2146" y="242" type="curve" smooth="yes"/>
      <point x="2283" y="242" type="line"/>
    </contour>
    <contour>
      <point x="1132" y="1487" type="move" smooth="yes"/>
      <point x="1116" y="1471"/>
      <point x="1101" y="1452"/>
      <point x="1084" y="1439" type="curve" smooth="yes"/>
      <point x="1076" y="1433"/>
      <point x="1065" y="1433"/>
      <point x="1059" y="1426" type="curve" smooth="yes"/>
      <point x="1050" y="1416"/>
      <point x="1043" y="1404"/>
      <point x="1035" y="1393" type="curve" smooth="yes"/>
      <point x="1020" y="1370"/>
      <point x="1004" y="1348"/>
      <point x="989" y="1326" type="curve" smooth="yes"/>
      <point x="937" y="1251"/>
      <point x="885" y="1176"/>
      <point x="833" y="1102" type="curve" smooth="yes"/>
      <point x="714" y="932"/>
      <point x="595" y="762"/>
      <point x="478" y="592" type="curve" smooth="yes"/>
      <point x="420" y="509"/>
      <point x="363" y="427"/>
      <point x="306" y="345" type="curve" smooth="yes"/>
      <point x="294" y="327"/>
      <point x="290" y="305"/>
      <point x="285" y="285" type="curve" smooth="yes"/>
      <point x="284" y="278"/>
      <point x="283" y="264"/>
      <point x="276" y="260" type="curve" smooth="yes"/>
      <point x="245" y="239"/>
      <point x="209" y="242"/>
      <point x="173" y="242" type="curve" smooth="yes"/>
      <point x="0" y="242" type="line"/>
    </contour>
    <contour>
      <point x="1957" y="294" type="move"/>
      <point x="1921" y="258" type="line"/>
      <point x="1904" y="242" type="line"/>
      <point x="1885" y="242" type="line"/>
      <point x="1844" y="242" type="line"/>
      <point x="1703" y="242" type="line"/>
    </contour>
    <contour>
      <point x="280" y="261" type="move"/>
      <point x="300" y="242" type="line"/>
      <point x="323" y="242" type="line"/>
      <point x="373" y="242" type="line"/>
      <point x="580" y="242" type="line"/>
    </contour>
  </outline>
</glyph>
<glyph name="Y" format="1">
  <advance width="2331"/>
  <unicode hex="0059"/>
  <outline>
    <contour>
      <point x="0" y="2812" type="move"/>
      <point x="148" y="2812" type="line"/>
      <point x="170" y="2812"/>
      <point x="197,113" y="2816,47"/>
      <point x="219" y="2811" type="curve" smooth="yes"/>
      <point x="239" y="2806"/>
      <point x="260" y="2791"/>
      <point x="280" y="2782" type="curve" smooth="yes"/>
      <point x="293" y="2776"/>
      <point x="312" y="2770"/>
      <point x="324" y="2761" type="curve" smooth="yes"/>
      <point x="330" y="2756"/>
      <point x="330" y="2741"/>
      <point x="332" y="2735" type="curve" smooth="yes"/>
      <point x="336" y="2714"/>
      <point x="338" y="2687"/>
      <point x="347" y="2668" type="curve" smooth="yes"/>
      <point x="361" y="2640"/>
      <point x="377" y="2613"/>
      <point x="392" y="2586" type="curve" smooth="yes"/>
      <point x="426" y="2524"/>
      <point x="459" y="2463"/>
      <point x="493" y="2402" type="curve" smooth="yes"/>
      <point x="631" y="2154"/>
      <point x="768" y="1906"/>
      <point x="903" y="1657" type="curve" smooth="yes"/>
      <point x="949" y="1571"/>
      <point x="997" y="1487"/>
      <point x="1043" y="1402" type="curve" smooth="yes"/>
      <point x="1058" y="1374"/>
      <point x="1073" y="1347"/>
      <point x="1088" y="1321" type="curve" smooth="yes"/>
      <point x="1094" y="1308"/>
      <point x="1100" y="1292"/>
      <point x="1109" y="1282" type="curve" smooth="yes"/>
      <point x="1119" y="1270"/>
      <point x="1138" y="1268"/>
      <point x="1150" y="1257" type="curve"/>
      <point x="1165" y="1272"/>
      <point x="1180" y="1293"/>
      <point x="1199" y="1305" type="curve" smooth="yes"/>
      <point x="1210" y="1312"/>
      <point x="1231" y="1315"/>
      <point x="1240" y="1326" type="curve" smooth="yes"/>
      <point x="1252" y="1340"/>
      <point x="1260" y="1359"/>
      <point x="1269" y="1375" type="curve" smooth="yes"/>
      <point x="1288" y="1407"/>
      <point x="1307" y="1439"/>
      <point x="1326" y="1472" type="curve" smooth="yes"/>
      <point x="1383" y="1569"/>
      <point x="1440" y="1666"/>
      <point x="1497" y="1764" type="curve" smooth="yes"/>
      <point x="1623" y="1981"/>
      <point x="1752" y="2196"/>
      <point x="1878" y="2414" type="curve" smooth="yes"/>
      <point x="1932" y="2506"/>
      <point x="1988" y="2598"/>
      <point x="2041" y="2692" type="curve" smooth="yes"/>
      <point x="2045" y="2699"/>
      <point x="2050" y="2706"/>
      <point x="2053" y="2714" type="curve" smooth="yes"/>
      <point x="2060" y="2732"/>
      <point x="2062" y="2753"/>
      <point x="2067" y="2772" type="curve" smooth="yes"/>
      <point x="2068" y="2779"/>
      <point x="2075" y="2795"/>
      <point x="2072" y="2802" type="curve" smooth="yes"/>
      <point x="2066" y="2812"/>
      <point x="2057" y="2812"/>
      <point x="2048" y="2812" type="curve" smooth="yes"/>
      <point x="2004" y="2812" type="line"/>
      <point x="1797" y="2812" type="line"/>
    </contour>
    <contour>
      <point x="327" y="2761" type="move"/>
      <point x="362" y="2796" type="line"/>
      <point x="379" y="2811" type="line"/>
      <point x="404" y="2812" type="line"/>
      <point x="458" y="2812" type="line"/>
      <point x="643" y="2812" type="line"/>
    </contour>
    <contour>
      <point x="2074" y="2801" type="move" smooth="yes"/>
      <point x="2097" y="2817"/>
      <point x="2128" y="2812"/>
      <point x="2156" y="2812" type="curve" smooth="yes"/>
      <point x="2331" y="2812" type="line"/>
    </contour>
    <contour>
      <point x="1150" y="1257" type="move"/>
      <point x="1150" y="526" type="line"/>
      <point x="1150" y="373" type="line"/>
      <point x="1150" y="328" type="line"/>
      <point x="1150" y="307" type="line"/>
      <point x="1168" y="288" type="line"/>
      <point x="1212" y="244" type="line"/>
      <point x="1231" y="242" type="line"/>
      <point x="1275" y="242" type="line"/>
      <point x="1448" y="242" type="line"/>
    </contour>
    <contour>
      <point x="1150" y="306" type="move"/>
      <point x="1105" y="261" type="line"/>
      <point x="1085" y="242" type="line"/>
      <point x="1063" y="242" type="line"/>
      <point x="1015" y="242" type="line"/>
      <point x="852" y="242" type="line"/>
    </contour>
  </outline>
</glyph>
<glyph name="Z" format="1">
  <advance width="1610"/>
  <unicode hex="005A"/>
  <outline>
    <contour>
      <point x="0" y="2360" type="move" smooth="yes"/>
      <point x="0" y="2456"/>
      <point x="6" y="2553"/>
      <point x="25" y="2648" type="curve" smooth="yes"/>
      <point x="30" y="2671"/>
      <point x="35" y="2694"/>
      <point x="41" y="2717" type="curve" smooth="yes"/>
      <point x="43" y="2724"/>
      <point x="45" y="2738"/>
      <point x="50" y="2744" type="curve" smooth="yes"/>
      <point x="53" y="2748"/>
      <point x="61" y="2749"/>
      <point x="66" y="2751" type="curve" smooth="yes"/>
      <point x="79" y="2756"/>
      <point x="93" y="2760"/>
      <point x="107" y="2764" type="curve" smooth="yes"/>
      <point x="161" y="2781"/>
      <point x="216" y="2791"/>
      <point x="273" y="2799" type="curve" smooth="yes"/>
      <point x="375" y="2813"/>
      <point x="478" y="2812"/>
      <point x="582" y="2812" type="curve" smooth="yes"/>
      <point x="965" y="2812" type="line"/>
      <point x="1369" y="2812" type="line"/>
      <point x="1427" y="2812" type="line" smooth="yes"/>
      <point x="1434" y="2812"/>
      <point x="1445" y="2814"/>
      <point x="1452" y="2810" type="curve" smooth="yes"/>
      <point x="1463" y="2805"/>
      <point x="1474" y="2789"/>
      <point x="1484" y="2780" type="curve" smooth="yes"/>
      <point x="1490" y="2773"/>
      <point x="1502" y="2765"/>
      <point x="1505" y="2757" type="curve" smooth="yes"/>
      <point x="1506" y="2753"/>
      <point x="1504" y="2747"/>
      <point x="1503" y="2744" type="curve" smooth="yes"/>
      <point x="1501" y="2734"/>
      <point x="1499" y="2724"/>
      <point x="1496" y="2715" type="curve" smooth="yes"/>
      <point x="1493" y="2700"/>
      <point x="1491" y="2683"/>
      <point x="1486" y="2670" type="curve" smooth="yes"/>
      <point x="1474" y="2641"/>
      <point x="1452" y="2613"/>
      <point x="1437" y="2587" type="curve" smooth="yes"/>
      <point x="1352" y="2446"/>
      <point x="1266" y="2305"/>
      <point x="1184" y="2164" type="curve" smooth="yes"/>
      <point x="1085" y="1993"/>
      <point x="982" y="1825"/>
      <point x="881" y="1656" type="curve" smooth="yes"/>
      <point x="718" y="1383"/>
      <point x="556" y="1110"/>
      <point x="393" y="839" type="curve" smooth="yes"/>
      <point x="324" y="723"/>
      <point x="255" y="607"/>
      <point x="186" y="492" type="curve" smooth="yes"/>
      <point x="172" y="468"/>
      <point x="158" y="445"/>
      <point x="144" y="422" type="curve" smooth="yes"/>
      <point x="138" y="411"/>
      <point x="130" y="401"/>
      <point x="126" y="390" type="curve" smooth="yes"/>
      <point x="120" y="376"/>
      <point x="118" y="358"/>
      <point x="115" y="344" type="curve" smooth="yes"/>
      <point x="112" y="331"/>
      <point x="105" y="316"/>
      <point x="106" y="304" type="curve" smooth="yes"/>
      <point x="106" y="295"/>
      <point x="123" y="283"/>
      <point x="129" y="278" type="curve" smooth="yes"/>
      <point x="136" y="270"/>
      <point x="147" y="254"/>
      <point x="158" y="250" type="curve" smooth="yes"/>
      <point x="165" y="247"/>
      <point x="177" y="250"/>
      <point x="186" y="250" type="curve" smooth="yes"/>
      <point x="250" y="250" type="line"/>
      <point x="736" y="250" type="line" smooth="yes"/>
      <point x="940" y="250"/>
      <point x="1147" y="239"/>
      <point x="1350" y="273" type="curve" smooth="yes"/>
      <point x="1399" y="281"/>
      <point x="1447" y="294"/>
      <point x="1496" y="307" type="curve" smooth="yes"/>
      <point x="1508" y="311"/>
      <point x="1521" y="316"/>
      <point x="1534" y="320" type="curve" smooth="yes"/>
      <point x="1538" y="321"/>
      <point x="1545" y="323"/>
      <point x="1549" y="327" type="curve" smooth="yes"/>
      <point x="1554" y="333"/>
      <point x="1556" y="347"/>
      <point x="1558" y="356" type="curve" smooth="yes"/>
      <point x="1565" y="381"/>
      <point x="1570" y="406"/>
      <point x="1576" y="432" type="curve" smooth="yes"/>
      <point x="1594" y="511"/>
      <point x="1601" y="592"/>
      <point x="1606" y="673" type="curve" smooth="yes"/>
      <point x="1608" y="694"/>
      <point x="1609" y="717"/>
      <point x="1609" y="739" type="curve" smooth="yes"/>
      <point x="1609" y="752"/>
      <point x="1607" y="767"/>
      <point x="1610" y="781" type="curve" smooth="yes"/>
    </contour>
  </outline>
</glyph>
<glyph name="grave" format="1">
  <advance width="780"/>
  <unicode hex="0060"/>
  <outline>
    <contour>
      <point x="0" y="3420" type="move" smooth="yes"/>
      <point x="21" y="3417"/>
      <point x="43" y="3409"/>
      <point x="64" y="3404" type="curve" smooth="yes"/>
      <point x="186" y="3373" type="line"/>
      <point x="252" y="3357" type="line" smooth="yes"/>
      <point x="261" y="3354"/>
      <point x="274" y="3353"/>
      <point x="284" y="3348" type="curve" smooth="yes"/>
      <point x="301" y="3339"/>
      <point x="316" y="3319"/>
      <point x="331" y="3306" type="curve" smooth="yes"/>
      <point x="366" y="3274"/>
      <point x="401" y="3241"/>
      <point x="437" y="3208" type="curve" smooth="yes"/>
      <point x="550" y="3103"/>
      <point x="664" y="2996"/>
      <point x="780" y="2893" type="curve" smooth="yes"/>
    </contour>
  </outline>
</glyph>
<glyph name="d" format="1">
  <advance width="1481"/>
  <unicode hex="0064"/>
  <outline>
    <contour>
      <point x="1480" y="319" type="move" smooth="yes"/>
      <point x="1462" y="318"/>
      <point x="1443" y="315"/>
      <point x="1424" y="313" type="curve" smooth="yes"/>
      <point x="1390" y="309"/>
      <point x="1355" y="305"/>
      <point x="1320" y="301" type="curve" smooth="yes"/>
      <point x="1306" y="299"/>
      <point x="1290" y="298"/>
      <point x="1275" y="296" type="curve" smooth="yes"/>
      <point x="1270" y="295"/>
      <point x="1260" y="293"/>
      <point x="1254" y="295" type="curve" smooth="yes"/>
      <point x="1250" y="297"/>
      <point x="1246" y="302"/>
      <point x="1242" y="306" type="curve" smooth="yes"/>
      <point x="1234" y="314"/>
      <point x="1225" y="321"/>
      <point x="1218" y="331" type="curve" smooth="yes"/>
      <point x="1212" y="338"/>
      <point x="1215" y="357"/>
      <point x="1215" y="367" type="curve" smooth="yes"/>
      <point x="1215" y="460" type="line"/>
      <point x="1215" y="820" type="line"/>
      <point x="1215" y="2205" type="line"/>
      <point x="1215" y="2691" type="line"/>
      <point x="1215" y="2805" type="line" smooth="yes"/>
      <point x="1215" y="2822"/>
      <point x="1219" y="2839"/>
      <point x="1201" y="2850" type="curve" smooth="yes"/>
      <point x="1197" y="2853"/>
      <point x="1189" y="2849"/>
      <point x="1183" y="2849" type="curve" smooth="yes"/>
      <point x="1168" y="2846"/>
      <point x="1153" y="2842"/>
      <point x="1137" y="2840" type="curve" smooth="yes"/>
      <point x="1075" y="2829"/>
      <point x="1011" y="2819"/>
      <point x="949" y="2804" type="curve" smooth="yes"/>
    </contour>
    <contour>
      <point x="1214" y="491" type="move" smooth="yes"/>
      <point x="1204" y="491"/>
      <point x="1192" y="492"/>
      <point x="1181" y="490" type="curve" smooth="yes"/>
      <point x="1159" y="486"/>
      <point x="1137" y="476"/>
      <point x="1115" y="469" type="curve" smooth="yes"/>
      <point x="1100" y="465"/>
      <point x="1079" y="462"/>
      <point x="1065" y="454" type="curve" smooth="yes"/>
      <point x="1059" y="450"/>
      <point x="1055" y="443"/>
      <point x="1049" y="439" type="curve" smooth="yes"/>
      <point x="1038" y="428"/>
      <point x="1026" y="417"/>
      <point x="1013" y="407" type="curve" smooth="yes"/>
      <point x="978" y="377"/>
      <point x="940" y="351"/>
      <point x="900" y="328" type="curve" smooth="yes"/>
      <point x="793" y="267"/>
      <point x="672" y="245"/>
      <point x="550" y="253" type="curve" smooth="yes"/>
      <point x="505" y="257"/>
      <point x="459" y="261"/>
      <point x="415" y="276" type="curve" smooth="yes"/>
      <point x="370" y="292"/>
      <point x="326" y="311"/>
      <point x="286" y="339" type="curve" smooth="yes"/>
      <point x="208" y="395"/>
      <point x="152" y="475"/>
      <point x="109" y="561" type="curve" smooth="yes"/>
      <point x="43" y="693"/>
      <point x="15" y="840"/>
      <point x="5" y="987" type="curve" smooth="yes"/>
      <point x="3" y="1021"/>
      <point x="0" y="1055"/>
      <point x="0" y="1090" type="curve" smooth="yes"/>
      <point x="0" y="1145"/>
      <point x="6" y="1203"/>
      <point x="13" y="1259" type="curve" smooth="yes"/>
      <point x="24" y="1341"/>
      <point x="45" y="1422"/>
      <point x="78" y="1499" type="curve" smooth="yes"/>
      <point x="132" y="1622"/>
      <point x="208" y="1741"/>
      <point x="327" y="1810" type="curve" smooth="yes"/>
      <point x="508" y="1913"/>
      <point x="735" y="1877"/>
      <point x="912" y="1788" type="curve" smooth="yes"/>
      <point x="950" y="1769"/>
      <point x="986" y="1746"/>
      <point x="1019" y="1722" type="curve" smooth="yes"/>
      <point x="1035" y="1711"/>
      <point x="1050" y="1696"/>
      <point x="1067" y="1687" type="curve" smooth="yes"/>
      <point x="1081" y="1680"/>
      <point x="1100" y="1677"/>
      <point x="1114" y="1673" type="curve" smooth="yes"/>
      <point x="1134" y="1668"/>
      <point x="1155" y="1659"/>
      <point x="1175" y="1656" type="curve" smooth="yes"/>
      <point x="1188" y="1654"/>
      <point x="1202" y="1656"/>
      <point x="1214" y="1656" type="curve" smooth="yes"/>
    </contour>
  </outline>
</glyph>
<glyph name="f" format="1">
  <advance width="1232"/>
  <unicode hex="0066"/>
  <outline>
    <contour>
      <point x="139" y="242" type="move"/>
      <point x="310" y="242" type="line"/>
      <point x="355" y="242" type="line" smooth="yes"/>
      <point x="360" y="242"/>
      <point x="369" y="240"/>
      <point x="374" y="243" type="curve" smooth="yes"/>
      <point x="391" y="254"/>
      <point x="405" y="274"/>
      <point x="420" y="289" type="curve" smooth="yes"/>
      <point x="425" y="294"/>
      <point x="434" y="300"/>
      <point x="437" y="307" type="curve" smooth="yes"/>
      <point x="441" y="317"/>
      <point x="438" y="335"/>
      <point x="438" y="346" type="curve" smooth="yes"/>
      <point x="438" y="439" type="line"/>
      <point x="438" y="887" type="line"/>
      <point x="438" y="2080" type="line" smooth="yes"/>
      <point x="438" y="2201"/>
      <point x="436" y="2322"/>
      <point x="452" y="2443" type="curve" smooth="yes"/>
      <point x="463" y="2526"/>
      <point x="483" y="2611"/>
      <point x="530" y="2683" type="curve" smooth="yes"/>
      <point x="575" y="2752"/>
      <point x="645" y="2796"/>
      <point x="727" y="2808" type="curve" smooth="yes"/>
      <point x="763" y="2813"/>
      <point x="800" y="2812"/>
      <point x="837" y="2812" type="curve" smooth="yes"/>
      <point x="927" y="2812"/>
      <point x="1016" y="2800"/>
      <point x="1096" y="2752" type="curve" smooth="yes"/>
      <point x="1121" y="2737"/>
      <point x="1146" y="2719"/>
      <point x="1168" y="2699" type="curve" smooth="yes"/>
      <point x="1174" y="2692"/>
      <point x="1182" y="2687"/>
      <point x="1187" y="2680" type="curve" smooth="yes"/>
      <point x="1194" y="2669"/>
      <point x="1197" y="2655"/>
      <point x="1200" y="2644" type="curve" smooth="yes"/>
      <point x="1206" y="2622"/>
      <point x="1213" y="2600"/>
      <point x="1218" y="2578" type="curve" smooth="yes"/>
      <point x="1223" y="2561"/>
      <point x="1226" y="2544"/>
      <point x="1229" y="2528" type="curve" smooth="yes"/>
      <point x="1230" y="2521"/>
      <point x="1233" y="2512"/>
      <point x="1231" y="2507" type="curve" smooth="yes"/>
      <point x="1229" y="2500"/>
      <point x="1223" y="2495"/>
      <point x="1219" y="2490" type="curve" smooth="yes"/>
      <point x="1209" y="2478"/>
      <point x="1199" y="2467"/>
      <point x="1189" y="2457" type="curve" smooth="yes"/>
    </contour>
    <contour>
      <point x="0" y="1898" type="move"/>
      <point x="1002" y="1898" type="line"/>
    </contour>
    <contour>
      <point x="438" y="306" type="move"/>
      <point x="483" y="261" type="line"/>
      <point x="503" y="242" type="line"/>
      <point x="525" y="242" type="line"/>
      <point x="573" y="242" type="line"/>
      <point x="735" y="242" type="line"/>
    </contour>
  </outline>
</glyph>
<glyph name="k" format="1">
  <advance width="1690"/>
  <unicode hex="006B"/>
  <outline>
    <contour>
      <point x="596" y="242" type="move"/>
      <point x="433" y="242" type="line"/>
      <point x="385" y="242" type="line" smooth="yes"/>
      <point x="378" y="242"/>
      <point x="369" y="240"/>
      <point x="363" y="242" type="curve" smooth="yes"/>
      <point x="355" y="245"/>
      <point x="349" y="254"/>
      <point x="344" y="260" type="curve" smooth="yes"/>
      <point x="330" y="273"/>
      <point x="310" y="288"/>
      <point x="299" y="305" type="curve" smooth="yes"/>
      <point x="294" y="313"/>
      <point x="298" y="333"/>
      <point x="298" y="344" type="curve" smooth="yes"/>
      <point x="298" y="443" type="line"/>
      <point x="298" y="814" type="line"/>
      <point x="298" y="2201" type="line"/>
      <point x="298" y="2688" type="line"/>
      <point x="298" y="2788" type="line" smooth="yes"/>
      <point x="298" y="2800"/>
      <point x="301" y="2819"/>
      <point x="297" y="2831" type="curve" smooth="yes"/>
      <point x="294" y="2838"/>
      <point x="280" y="2850"/>
      <point x="274" y="2855" type="curve" smooth="yes"/>
      <point x="269" y="2858"/>
      <point x="261" y="2855"/>
      <point x="256" y="2854" type="curve" smooth="yes"/>
      <point x="240" y="2852"/>
      <point x="225" y="2849"/>
      <point x="210" y="2846" type="curve" smooth="yes"/>
      <point x="148" y="2835"/>
      <point x="84" y="2827"/>
      <point x="24" y="2812" type="curve" smooth="yes"/>
    </contour>
    <contour>
      <point x="946" y="1890" type="move"/>
      <point x="1130" y="1890" type="line"/>
      <point x="1160" y="1890"/>
      <point x="1190,86" y="1889"/>
      <point x="1222" y="1889" type="curve" smooth="yes"/>
      <point x="1231" y="1889"/>
      <point x="1235" y="1873"/>
      <point x="1245" y="1873" type="curve" smooth="yes"/>
      <point x="1261" y="1872"/>
      <point x="1278" y="1889"/>
      <point x="1295" y="1889" type="curve" smooth="yes"/>
      <point x="1381" y="1894"/>
      <point x="1557" y="1890"/>
      <point x="1557" y="1890" type="curve" smooth="yes"/>
    </contour>
    <contour>
      <point x="1243" y="1871" type="move"/>
      <point x="1226" y="1815" type="line"/>
      <point x="1218" y="1789" type="line"/>
      <point x="1178" y="1742" type="line"/>
      <point x="1095" y="1645" type="line"/>
      <point x="935" y="1459" type="line"/>
      <point x="891" y="1408" type="line"/>
      <point x="865" y="1377" type="line"/>
      <point x="851" y="1330" type="line"/>
      <point x="828" y="1249" type="line"/>
      <point x="841" y="1242"/>
      <point x="846" y="1232"/>
      <point x="853" y="1220" type="curve" smooth="yes"/>
      <point x="880" y="1175" type="line" smooth="yes"/>
      <point x="916" y="1111"/>
      <point x="952" y="1048"/>
      <point x="990" y="986" type="curve" smooth="yes"/>
      <point x="1089" y="820"/>
      <point x="1187" y="654"/>
      <point x="1282" y="487" type="curve" smooth="yes"/>
      <point x="1297" y="461"/>
      <point x="1311" y="436"/>
      <point x="1326" y="412" type="curve" smooth="yes"/>
      <point x="1334" y="399"/>
      <point x="1344" y="385"/>
      <point x="1349" y="372" type="curve" smooth="yes"/>
      <point x="1355" y="354"/>
      <point x="1358" y="334"/>
      <point x="1362" y="317" type="curve" smooth="yes"/>
      <point x="1363" y="311"/>
      <point x="1364" y="300"/>
      <point x="1369" y="295" type="curve" smooth="yes"/>
      <point x="1381" y="285"/>
      <point x="1401" y="280"/>
      <point x="1416" y="274" type="curve" smooth="yes"/>
      <point x="1430" y="267"/>
      <point x="1445" y="261"/>
      <point x="1460" y="254" type="curve" smooth="yes"/>
      <point x="1468" y="250"/>
      <point x="1477" y="244"/>
      <point x="1487" y="242" type="curve" smooth="yes"/>
      <point x="1507" y="238"/>
      <point x="1532" y="242"/>
      <point x="1553" y="242" type="curve" smooth="yes"/>
      <point x="1690" y="242" type="line"/>
    </contour>
    <contour>
      <point x="299" y="844" type="move" smooth="yes"/>
      <point x="335" y="844"/>
      <point x="369" y="861"/>
      <point x="404" y="873" type="curve" smooth="yes"/>
      <point x="417" y="878"/>
      <point x="436" y="882"/>
      <point x="447" y="890" type="curve" smooth="yes"/>
      <point x="457" y="897"/>
      <point x="464" y="909"/>
      <point x="472" y="918" type="curve" smooth="yes"/>
      <point x="486" y="935"/>
      <point x="501" y="952"/>
      <point x="516" y="970" type="curve" smooth="yes"/>
      <point x="564" y="1025"/>
      <point x="611" y="1081"/>
      <point x="659" y="1137" type="curve" smooth="yes"/>
      <point x="673" y="1152"/>
      <point x="686" y="1169"/>
      <point x="700" y="1185" type="curve" smooth="yes"/>
      <point x="707" y="1192"/>
      <point x="713" y="1202"/>
      <point x="721" y="1208" type="curve" smooth="yes"/>
      <point x="730" y="1214"/>
      <point x="744" y="1217"/>
      <point x="755" y="1221" type="curve" smooth="yes"/>
      <point x="778" y="1230"/>
      <point x="802" y="1240"/>
      <point x="827" y="1248" type="curve" smooth="yes"/>
    </contour>
    <contour>
      <point x="298" y="306" type="move"/>
      <point x="253" y="261" type="line"/>
      <point x="233" y="242" type="line"/>
      <point x="211" y="242" type="line"/>
      <point x="163" y="242" type="line"/>
      <point x="0" y="242" type="line"/>
    </contour>
    <contour>
      <point x="1367" y="297" type="move"/>
      <point x="1329" y="259" type="line"/>
      <point x="1311" y="242" type="line"/>
      <point x="1289" y="242" type="line"/>
      <point x="1241" y="242" type="line"/>
      <point x="1078" y="242" type="line"/>
    </contour>
  </outline>
</glyph>
<glyph name="l" format="1">
  <advance width="753"/>
  <unicode hex="006C"/>
  <outline>
    <contour>
      <point x="753" y="242" type="move"/>
      <point x="524" y="242" type="line"/>
      <point x="456" y="242" type="line" smooth="yes"/>
      <point x="447" y="242"/>
      <point x="434" y="239"/>
      <point x="426" y="242" type="curve" smooth="yes"/>
      <point x="418" y="245"/>
      <point x="412" y="254"/>
      <point x="407" y="260" type="curve" smooth="yes"/>
      <point x="393" y="273"/>
      <point x="373" y="288"/>
      <point x="362" y="305" type="curve" smooth="yes"/>
      <point x="359" y="309"/>
      <point x="361" y="315"/>
      <point x="361" y="320" type="curve" smooth="yes"/>
      <point x="361" y="355" type="line"/>
      <point x="361" y="487" type="line"/>
      <point x="361" y="978" type="line"/>
      <point x="361" y="2096" type="line"/>
      <point x="361" y="2539" type="line"/>
      <point x="361" y="2682" type="line" smooth="yes"/>
      <point x="361" y="2704"/>
      <point x="357" y="2730"/>
      <point x="361" y="2753" type="curve" smooth="yes"/>
      <point x="362" y="2761"/>
      <point x="369" y="2770"/>
      <point x="372" y="2778" type="curve" smooth="yes"/>
      <point x="379" y="2791"/>
      <point x="384" y="2805"/>
      <point x="389" y="2820" type="curve" smooth="yes"/>
      <point x="402" y="2858"/>
      <point x="406" y="2897"/>
      <point x="416" y="2936" type="curve" smooth="yes"/>
    </contour>
    <contour>
      <point x="1" y="2804" type="move"/>
      <point x="224" y="2804" type="line"/>
      <point x="278" y="2807" type="line"/>
      <point x="304" y="2809" type="line"/>
      <point x="322" y="2793" type="line"/>
      <point x="361" y="2754" type="line"/>
    </contour>
    <contour>
      <point x="361" y="306" type="move"/>
      <point x="316" y="261" type="line"/>
      <point x="296" y="242" type="line"/>
      <point x="269" y="242" type="line"/>
      <point x="208" y="242" type="line"/>
      <point x="0" y="242" type="line"/>
    </contour>
  </outline>
</glyph>
<glyph name="p" format="1">
  <advance width="1576"/>
  <unicode hex="0070"/>
  <outline>
    <contour>
      <point x="994" y="1880" type="curve" smooth="yes"/>
      <point x="1225" y="1864"/>
      <point x="1429" y="1693"/>
      <point x="1511" y="1480" type="curve" smooth="yes"/>
      <point x="1539" y="1405"/>
      <point x="1554" y="1330"/>
      <point x="1565" y="1252" type="curve" smooth="yes"/>
      <point x="1576" y="1173"/>
      <point x="1578" y="1092"/>
      <point x="1573" y="1013" type="curve" smooth="yes"/>
      <point x="1568" y="948"/>
      <point x="1561" y="883"/>
      <point x="1548" y="820" type="curve" smooth="yes"/>
      <point x="1513" y="647"/>
      <point x="1423" y="478"/>
      <point x="1283" y="370" type="curve" smooth="yes"/>
      <point x="1245" y="341"/>
      <point x="1203" y="318"/>
      <point x="1160" y="299" type="curve" smooth="yes"/>
      <point x="1113" y="278"/>
      <point x="1060" y="264"/>
      <point x="1010" y="258" type="curve" smooth="yes"/>
      <point x="871" y="241"/>
      <point x="727" y="255"/>
      <point x="599" y="310" type="curve" smooth="yes"/>
      <point x="562" y="326"/>
      <point x="526" y="345"/>
      <point x="492" y="366" type="curve" smooth="yes"/>
      <point x="475" y="377"/>
      <point x="460" y="389"/>
      <point x="444" y="399" type="curve" smooth="yes"/>
      <point x="437" y="403"/>
      <point x="428" y="403"/>
      <point x="421" y="405" type="curve" smooth="yes"/>
      <point x="400" y="410"/>
      <point x="378" y="413"/>
      <point x="358" y="420" type="curve" smooth="yes"/>
      <point x="351" y="422"/>
      <point x="346" y="429"/>
      <point x="341" y="435" type="curve" smooth="yes"/>
      <point x="313" y="463" type="line" smooth="yes"/>
      <point x="308" y="467"/>
      <point x="302" y="471"/>
      <point x="300" y="477" type="curve" smooth="yes"/>
      <point x="297" y="481"/>
      <point x="299" y="488"/>
      <point x="299" y="494" type="curve" smooth="yes"/>
      <point x="299" y="531" type="line"/>
      <point x="299" y="667" type="line"/>
      <point x="299" y="1151" type="line"/>
      <point x="299" y="1502" type="line"/>
      <point x="299" y="1596" type="line" smooth="yes"/>
      <point x="299" y="1605"/>
      <point x="295" y="1624"/>
      <point x="300" y="1633" type="curve" smooth="yes"/>
      <point x="308" y="1645"/>
      <point x="322" y="1655"/>
      <point x="333" y="1666" type="curve" smooth="yes"/>
      <point x="337" y="1670"/>
      <point x="342" y="1677"/>
      <point x="349" y="1680" type="curve" smooth="yes"/>
      <point x="370" y="1689"/>
      <point x="395" y="1693"/>
      <point x="418" y="1700" type="curve" smooth="yes"/>
      <point x="426" y="1702"/>
      <point x="436" y="1703"/>
      <point x="444" y="1708" type="curve" smooth="yes"/>
      <point x="463" y="1719"/>
      <point x="481" y="1736"/>
      <point x="500" y="1750" type="curve" smooth="yes"/>
      <point x="533" y="1774"/>
      <point x="569" y="1795"/>
      <point x="607" y="1813" type="curve" smooth="yes"/>
      <point x="670" y="1844"/>
      <point x="738" y="1865"/>
      <point x="808" y="1874" type="curve" smooth="yes"/>
      <point x="839" y="1878"/>
      <point x="872" y="1877"/>
      <point x="904" y="1881" type="curve" smooth="yes"/>
      <point x="933" y="1885"/>
      <point x="964" y="1882"/>
    </contour>
    <contour>
      <point x="41" y="1765" type="move" smooth="yes"/>
      <point x="102" y="1780"/>
      <point x="167" y="1786"/>
      <point x="230" y="1796" type="curve" smooth="yes"/>
      <point x="268" y="1803" type="line" smooth="yes"/>
      <point x="272" y="1803"/>
      <point x="279" y="1806"/>
      <point x="284" y="1804" type="curve" smooth="yes"/>
      <point x="288" y="1802"/>
      <point x="293" y="1796"/>
      <point x="296" y="1793" type="curve" smooth="yes"/>
      <point x="303" y="1784"/>
      <point x="299" y="1760"/>
      <point x="299" y="1750" type="curve" smooth="yes"/>
      <point x="299" y="1634" type="line"/>
    </contour>
    <contour>
      <point x="299" y="475" type="move"/>
      <point x="299" y="-108" type="line"/>
      <point x="299" y="-222" type="line" smooth="yes"/>
      <point x="299" y="-235"/>
      <point x="303" y="-257"/>
      <point x="298" y="-271" type="curve" smooth="yes"/>
      <point x="295" y="-278"/>
      <point x="286" y="-284"/>
      <point x="281" y="-290" type="curve" smooth="yes"/>
      <point x="267" y="-303"/>
      <point x="252" y="-323"/>
      <point x="236" y="-334" type="curve" smooth="yes"/>
      <point x="231" y="-337"/>
      <point x="222" y="-336"/>
      <point x="217" y="-336" type="curve" smooth="yes"/>
      <point x="171" y="-336" type="line"/>
      <point x="0" y="-336" type="line"/>
    </contour>
    <contour>
      <point x="299" y="-273" type="move"/>
      <point x="343" y="-317" type="line"/>
      <point x="363" y="-335" type="line"/>
      <point x="385" y="-336" type="line"/>
      <point x="433" y="-336" type="line"/>
      <point x="596" y="-336" type="line"/>
    </contour>
  </outline>
</glyph>
<glyph name="q" format="1">
  <advance width="1512"/>
  <unicode hex="0071"/>
  <outline>
    <contour>
      <point x="1213" y="420" type="move" smooth="yes"/>
      <point x="1199" y="420"/>
      <point x="1184" y="421"/>
      <point x="1171" y="419" type="curve" smooth="yes"/>
      <point x="1150" y="416"/>
      <point x="1129" y="408"/>
      <point x="1109" y="403" type="curve" smooth="yes"/>
      <point x="1095" y="399"/>
      <point x="1077" y="398"/>
      <point x="1064" y="391" type="curve" smooth="yes"/>
      <point x="1045" y="383"/>
      <point x="1029" y="367"/>
      <point x="1011" y="357" type="curve" smooth="yes"/>
      <point x="975" y="335"/>
      <point x="936" y="316"/>
      <point x="897" y="301" type="curve" smooth="yes"/>
      <point x="687" y="222"/>
      <point x="423" y="223"/>
      <point x="252" y="386" type="curve" smooth="yes"/>
      <point x="165" y="469"/>
      <point x="105" y="579"/>
      <point x="65" y="692" type="curve" smooth="yes"/>
      <point x="29" y="793"/>
      <point x="10" y="900"/>
      <point x="3" y="1008" type="curve" smooth="yes"/>
      <point x="-7" y="1162"/>
      <point x="6" y="1322"/>
      <point x="58" y="1470" type="curve" smooth="yes"/>
      <point x="112" y="1620"/>
      <point x="214" y="1762"/>
      <point x="361" y="1831" type="curve" smooth="yes"/>
      <point x="402" y="1851"/>
      <point x="448" y="1862"/>
      <point x="493" y="1868" type="curve" smooth="yes"/>
      <point x="525" y="1873"/>
      <point x="558" y="1873"/>
      <point x="590" y="1873" type="curve" smooth="yes"/>
      <point x="651" y="1873"/>
      <point x="711" y="1868"/>
      <point x="771" y="1855" type="curve" smooth="yes"/>
      <point x="845" y="1838"/>
      <point x="917" y="1809"/>
      <point x="981" y="1768" type="curve" smooth="yes"/>
      <point x="999" y="1757"/>
      <point x="1017" y="1745"/>
      <point x="1033" y="1732" type="curve" smooth="yes"/>
      <point x="1044" y="1723"/>
      <point x="1056" y="1710"/>
      <point x="1069" y="1704" type="curve" smooth="yes"/>
      <point x="1102" y="1688"/>
      <point x="1143" y="1688"/>
      <point x="1175" y="1670" type="curve" smooth="yes"/>
      <point x="1183" y="1665"/>
      <point x="1189" y="1656"/>
      <point x="1196" y="1650" type="curve" smooth="yes"/>
      <point x="1201" y="1644"/>
      <point x="1209" y="1638"/>
      <point x="1213" y="1632" type="curve" smooth="yes"/>
      <point x="1217" y="1623"/>
      <point x="1214" y="1607"/>
      <point x="1214" y="1598" type="curve" smooth="yes"/>
      <point x="1214" y="1516" type="line"/>
      <point x="1214" y="1224" type="line"/>
      <point x="1214" y="177" type="line"/>
      <point x="1214" y="-146" type="line"/>
      <point x="1214" y="-236" type="line" smooth="yes"/>
      <point x="1214" y="-246"/>
      <point x="1217" y="-264"/>
      <point x="1213" y="-273" type="curve" smooth="yes"/>
      <point x="1210" y="-279"/>
      <point x="1203" y="-284"/>
      <point x="1198" y="-289" type="curve" smooth="yes"/>
      <point x="1167" y="-320" type="line" smooth="yes"/>
      <point x="1162" y="-325"/>
      <point x="1156" y="-333"/>
      <point x="1149" y="-336" type="curve" smooth="yes"/>
      <point x="1143" y="-338"/>
      <point x="1133" y="-337"/>
      <point x="1127" y="-337" type="curve" smooth="yes"/>
      <point x="1079" y="-337" type="line"/>
      <point x="916" y="-337" type="line"/>
    </contour>
    <contour>
      <point x="1245" y="1865" type="move"/>
      <point x="1214" y="1634" type="line"/>
      <point x="1232" y="1767" type="line"/>
    </contour>
    <contour>
      <point x="1214" y="-274" type="move"/>
      <point x="1258" y="-318" type="line"/>
      <point x="1278" y="-336" type="line"/>
      <point x="1300" y="-337" type="line"/>
      <point x="1348" y="-337" type="line"/>
      <point x="1512" y="-337" type="line"/>
    </contour>
  </outline>
</glyph>
<glyph name="s" format="1">
  <advance width="1142"/>
  <unicode hex="0073"/>
  <outline>
    <contour>
      <point x="0" y="811" type="move" smooth="yes"/>
      <point x="1" y="802"/>
      <point x="0" y="793"/>
      <point x="1" y="784" type="curve" smooth="yes"/>
      <point x="2" y="756"/>
      <point x="3" y="729"/>
      <point x="6" y="702" type="curve" smooth="yes"/>
      <point x="13" y="628"/>
      <point x="22" y="555"/>
      <point x="38" y="483" type="curve" smooth="yes"/>
      <point x="44" y="457"/>
      <point x="50" y="431"/>
      <point x="57" y="406" type="curve" smooth="yes"/>
      <point x="59" y="398"/>
      <point x="61" y="383"/>
      <point x="67" y="378" type="curve" smooth="yes"/>
      <point x="70" y="375"/>
      <point x="76" y="376"/>
      <point x="81" y="375" type="curve" smooth="yes"/>
      <point x="92" y="374"/>
      <point x="104" y="374"/>
      <point x="116" y="370" type="curve" smooth="yes"/>
      <point x="147" y="362"/>
      <point x="178" y="352"/>
      <point x="210" y="344" type="curve" smooth="yes"/>
      <point x="228" y="340"/>
      <point x="248" y="337"/>
      <point x="267" y="331" type="curve" smooth="yes"/>
      <point x="282" y="325"/>
      <point x="297" y="316"/>
      <point x="312" y="309" type="curve" smooth="yes"/>
      <point x="340" y="296"/>
      <point x="371" y="284"/>
      <point x="402" y="276" type="curve" smooth="yes"/>
      <point x="457" y="261"/>
      <point x="511" y="255"/>
      <point x="568" y="251" type="curve" smooth="yes"/>
      <point x="701" y="242"/>
      <point x="853" y="258"/>
      <point x="955" y="355" type="curve" smooth="yes"/>
      <point x="974" y="373"/>
      <point x="990" y="394"/>
      <point x="1005" y="417" type="curve" smooth="yes"/>
      <point x="1021" y="442"/>
      <point x="1032" y="470"/>
      <point x="1041" y="499" type="curve" smooth="yes"/>
      <point x="1050" y="527"/>
      <point x="1054" y="558"/>
      <point x="1059" y="588" type="curve" smooth="yes"/>
      <point x="1061" y="602"/>
      <point x="1065" y="618"/>
      <point x="1064" y="633" type="curve" smooth="yes"/>
      <point x="1062" y="681"/>
      <point x="1053" y="736"/>
      <point x="1035" y="781" type="curve" smooth="yes"/>
      <point x="1002" y="862"/>
      <point x="932" y="914"/>
      <point x="858" y="956" type="curve" smooth="yes"/>
      <point x="772" y="1005"/>
      <point x="675" y="1039"/>
      <point x="581" y="1066" type="curve" smooth="yes"/>
      <point x="510" y="1086"/>
      <point x="436" y="1100"/>
      <point x="369" y="1128" type="curve" smooth="yes"/>
      <point x="307" y="1154"/>
      <point x="244" y="1181"/>
      <point x="195" y="1227" type="curve" smooth="yes"/>
      <point x="138" y="1280"/>
      <point x="112" y="1346"/>
      <point x="98" y="1422" type="curve" smooth="yes"/>
      <point x="94" y="1445"/>
      <point x="87" y="1470"/>
      <point x="88" y="1494" type="curve" smooth="yes"/>
      <point x="88" y="1512"/>
      <point x="93" y="1532"/>
      <point x="96" y="1551" type="curve" smooth="yes"/>
      <point x="104" y="1599"/>
      <point x="116" y="1645"/>
      <point x="140" y="1689" type="curve" smooth="yes"/>
      <point x="154" y="1713"/>
      <point x="173" y="1737"/>
      <point x="193" y="1756" type="curve" smooth="yes"/>
      <point x="216" y="1779"/>
      <point x="240" y="1799"/>
      <point x="268" y="1815" type="curve" smooth="yes"/>
      <point x="362" y="1869"/>
      <point x="475" y="1877"/>
      <point x="581" y="1870" type="curve" smooth="yes"/>
      <point x="621" y="1867"/>
      <point x="662" y="1863"/>
      <point x="702" y="1854" type="curve" smooth="yes"/>
      <point x="732" y="1846"/>
      <point x="763" y="1838"/>
      <point x="792" y="1826" type="curve" smooth="yes"/>
      <point x="811" y="1818"/>
      <point x="829" y="1807"/>
      <point x="849" y="1801" type="curve" smooth="yes"/>
      <point x="865" y="1795"/>
      <point x="882" y="1793"/>
      <point x="899" y="1788" type="curve" smooth="yes"/>
      <point x="936" y="1778"/>
      <point x="972" y="1767"/>
      <point x="1009" y="1755" type="curve" smooth="yes"/>
      <point x="1020" y="1751"/>
      <point x="1031" y="1746"/>
      <point x="1043" y="1744" type="curve" smooth="yes"/>
      <point x="1048" y="1743"/>
      <point x="1058" y="1743"/>
      <point x="1062" y="1739" type="curve" smooth="yes"/>
      <point x="1067" y="1734"/>
      <point x="1068" y="1721"/>
      <point x="1070" y="1715" type="curve" smooth="yes"/>
      <point x="1077" y="1692"/>
      <point x="1082" y="1669"/>
      <point x="1088" y="1647" type="curve" smooth="yes"/>
      <point x="1110" y="1557"/>
      <point x="1124" y="1465"/>
      <point x="1142" y="1375" type="curve" smooth="yes"/>
    </contour>
  </outline>
</glyph>
<glyph name="u" format="1">
  <advance width="1727"/>
  <unicode hex="0075"/>
  <outline>
    <contour>
      <point x="1149" y="1773" type="move" smooth="yes"/>
      <point x="1221" y="1786"/>
      <point x="1295" y="1793"/>
      <point x="1368" y="1804" type="curve" smooth="yes"/>
      <point x="1385" y="1807"/>
      <point x="1403" y="1809"/>
      <point x="1422" y="1812" type="curve" smooth="yes"/>
      <point x="1428" y="1813"/>
      <point x="1437" y="1816"/>
      <point x="1443" y="1811" type="curve" smooth="yes"/>
      <point x="1448" y="1807"/>
      <point x="1458" y="1798"/>
      <point x="1461" y="1792" type="curve" smooth="yes"/>
      <point x="1463" y="1786"/>
      <point x="1462" y="1779"/>
      <point x="1462" y="1774" type="curve" smooth="yes"/>
      <point x="1462" y="1737" type="line"/>
      <point x="1462" y="1564" type="line"/>
      <point x="1462" y="1018" type="line"/>
      <point x="1462" y="850" type="line"/>
      <point x="1462" y="799" type="line" smooth="yes"/>
      <point x="1462" y="791"/>
      <point x="1463" y="782"/>
      <point x="1461" y="775" type="curve" smooth="yes"/>
      <point x="1460" y="771"/>
      <point x="1455" y="770"/>
      <point x="1452" y="768" type="curve" smooth="yes"/>
      <point x="1442" y="764"/>
      <point x="1432" y="759"/>
      <point x="1423" y="755" type="curve" smooth="yes"/>
      <point x="1396" y="743"/>
      <point x="1370" y="731"/>
      <point x="1344" y="720" type="curve" smooth="yes"/>
      <point x="1333" y="715"/>
      <point x="1316" y="712"/>
      <point x="1308" y="702" type="curve" smooth="yes"/>
      <point x="1294" y="685"/>
      <point x="1283" y="664"/>
      <point x="1270" y="646" type="curve" smooth="yes"/>
      <point x="1241" y="603"/>
      <point x="1210" y="563"/>
      <point x="1176" y="524" type="curve" smooth="yes"/>
      <point x="1098" y="432"/>
      <point x="999" y="349"/>
      <point x="884" y="308" type="curve" smooth="yes"/>
      <point x="827" y="288"/>
      <point x="766" y="279"/>
      <point x="706" y="276" type="curve" smooth="yes"/>
      <point x="685" y="274"/>
      <point x="661" y="279"/>
      <point x="641" y="281" type="curve" smooth="yes"/>
      <point x="600" y="286"/>
      <point x="559" y="294"/>
      <point x="522" y="313" type="curve" smooth="yes"/>
      <point x="426" y="360"/>
      <point x="362" y="461"/>
      <point x="336" y="563" type="curve" smooth="yes"/>
      <point x="302" y="693"/>
      <point x="306" y="828"/>
      <point x="306" y="962" type="curve" smooth="yes"/>
      <point x="306" y="1455" type="line"/>
      <point x="306" y="1715" type="line"/>
      <point x="306" y="1767" type="line" smooth="yes"/>
      <point x="306" y="1773"/>
      <point x="307" y="1783"/>
      <point x="305" y="1790" type="curve" smooth="yes"/>
      <point x="301" y="1799"/>
      <point x="285" y="1813"/>
      <point x="277" y="1819" type="curve" smooth="yes"/>
      <point x="271" y="1823"/>
      <point x="263" y="1819"/>
      <point x="257" y="1819" type="curve" smooth="yes"/>
      <point x="239" y="1816"/>
      <point x="222" y="1814"/>
      <point x="205" y="1811" type="curve" smooth="yes"/>
      <point x="136" y="1800"/>
      <point x="67" y="1793"/>
      <point x="0" y="1781" type="curve" smooth="yes"/>
    </contour>
    <contour>
      <point x="1462" y="771" type="move"/>
      <point x="1462" y="443" type="line"/>
      <point x="1462" y="384" type="line" smooth="yes"/>
      <point x="1462" y="376"/>
      <point x="1459" y="364"/>
      <point x="1462" y="357" type="curve" smooth="yes"/>
      <point x="1465" y="349"/>
      <point x="1480" y="334"/>
      <point x="1488" y="331" type="curve" smooth="yes"/>
      <point x="1492" y="328"/>
      <point x="1501" y="331"/>
      <point x="1507" y="332" type="curve" smooth="yes"/>
      <point x="1522" y="335"/>
      <point x="1537" y="337"/>
      <point x="1553" y="339" type="curve" smooth="yes"/>
      <point x="1593" y="345"/>
      <point x="1633" y="352"/>
      <point x="1674" y="358" type="curve" smooth="yes"/>
      <point x="1691" y="360"/>
      <point x="1709" y="365"/>
      <point x="1727" y="366" type="curve" smooth="yes"/>
    </contour>
  </outline>
</glyph>
<glyph name="braceright" format="1">
  <advance width="721"/>
  <unicode hex="007D"/>
  <outline>
    <contour>
      <point x="721" y="1562" type="move" smooth="yes"/>
      <point x="712" y="1562"/>
      <point x="698" y="1559"/>
      <point x="691" y="1563" type="curve" smooth="yes"/>
      <point x="685" y="1566"/>
      <point x="680" y="1574"/>
      <point x="677" y="1580" type="curve" smooth="yes"/>
      <point x="669" y="1591"/>
      <point x="663" y="1600"/>
      <point x="651" y="1606" type="curve" smooth="yes"/>
      <point x="626" y="1620"/>
      <point x="602" y="1636"/>
      <point x="582" y="1656" type="curve" smooth="yes"/>
      <point x="560" y="1676"/>
      <point x="540" y="1697"/>
      <point x="524" y="1723" type="curve" smooth="yes"/>
      <point x="461" y="1819"/>
      <point x="445" y="1930"/>
      <point x="434" y="2043" type="curve" smooth="yes"/>
      <point x="426" y="2129"/>
      <point x="431" y="2218"/>
      <point x="431" y="2305" type="curve" smooth="yes"/>
      <point x="431" y="2745" type="line" smooth="yes"/>
      <point x="431" y="2869"/>
      <point x="437" y="3013"/>
      <point x="357" y="3118" type="curve" smooth="yes"/>
      <point x="271" y="3229"/>
      <point x="131" y="3249"/>
      <point x="0" y="3249" type="curve" smooth="yes"/>
    </contour>
    <contour>
      <point x="689" y="1561" type="move" smooth="yes"/>
      <point x="682" y="1550"/>
      <point x="675" y="1541"/>
      <point x="668" y="1531" type="curve" smooth="yes"/>
      <point x="665" y="1525"/>
      <point x="662" y="1518"/>
      <point x="657" y="1513" type="curve" smooth="yes"/>
      <point x="647" y="1503"/>
      <point x="630" y="1497"/>
      <point x="619" y="1489" type="curve" smooth="yes"/>
      <point x="596" y="1473"/>
      <point x="576" y="1453"/>
      <point x="558" y="1433" type="curve" smooth="yes"/>
      <point x="499" y="1364"/>
      <point x="469" y="1274"/>
      <point x="452" y="1187" type="curve" smooth="yes"/>
      <point x="428" y="1070"/>
      <point x="431" y="949"/>
      <point x="431" y="831" type="curve" smooth="yes"/>
      <point x="431" y="406" type="line" smooth="yes"/>
      <point x="431" y="267"/>
      <point x="436" y="102"/>
      <point x="331" y="-4" type="curve" smooth="yes"/>
      <point x="312" y="-24"/>
      <point x="290" y="-41"/>
      <point x="266" y="-55" type="curve" smooth="yes"/>
      <point x="237" y="-72"/>
      <point x="205" y="-84"/>
      <point x="174" y="-92" type="curve" smooth="yes"/>
      <point x="118" y="-106"/>
      <point x="58" y="-110"/>
      <point x="1" y="-110" type="curve" smooth="yes"/>
    </contour>
  </outline>
</glyph>
<glyph name="asciitilde" format="1">
  <advance width="1422"/>
  <unicode hex="007E"/>
  <outline>
    <contour>
      <point x="0" y="3023" type="move" smooth="yes"/>
      <point x="30" y="3079"/>
      <point x="63" y="3136"/>
      <point x="106" y="3185" type="curve" smooth="yes"/>
      <point x="134" y="3216"/>
      <point x="164" y="3245"/>
      <point x="202" y="3266" type="curve" smooth="yes"/>
      <point x="229" y="3282"/>
      <point x="260" y="3287"/>
      <point x="292" y="3293" type="curve" smooth="yes"/>
      <point x="304" y="3295"/>
      <point x="318" y="3299"/>
      <point x="332" y="3298" type="curve" smooth="yes"/>
      <point x="345" y="3298"/>
      <point x="359" y="3295"/>
      <point x="373" y="3294" type="curve" smooth="yes"/>
      <point x="483" y="3280"/>
      <point x="578" y="3229"/>
      <point x="661" y="3156" type="curve" smooth="yes"/>
      <point x="738" y="3088"/>
      <point x="803" y="3006"/>
      <point x="894" y="2953" type="curve" smooth="yes"/>
      <point x="932" y="2931"/>
      <point x="969" y="2919"/>
      <point x="1013" y="2911" type="curve" smooth="yes"/>
      <point x="1028" y="2908"/>
      <point x="1045" y="2904"/>
      <point x="1062" y="2904" type="curve" smooth="yes"/>
      <point x="1075" y="2903"/>
      <point x="1089" y="2907"/>
      <point x="1103" y="2909" type="curve" smooth="yes"/>
      <point x="1137" y="2914"/>
      <point x="1171" y="2923"/>
      <point x="1202" y="2939" type="curve" smooth="yes"/>
      <point x="1262" y="2972"/>
      <point x="1311" y="3022"/>
      <point x="1352" y="3076" type="curve" smooth="yes"/>
      <point x="1370" y="3099"/>
      <point x="1387" y="3123"/>
      <point x="1402" y="3149" type="curve" smooth="yes"/>
      <point x="1409" y="3159"/>
      <point x="1418" y="3170"/>
      <point x="1422" y="3182" type="curve" smooth="yes"/>
    </contour>
  </outline>
</glyph>
<glyph name="sterling" format="1">
  <advance width="1596"/>
  <unicode hex="00A3"/>
  <outline>
    <contour>
      <point x="1595" y="676" type="move" smooth="yes"/>
      <point x="1567" y="590"/>
      <point x="1527" y="504"/>
      <point x="1471" y="434" type="curve" smooth="yes"/>
      <point x="1440" y="395"/>
      <point x="1404" y="360"/>
      <point x="1360" y="336" type="curve" smooth="yes"/>
      <point x="1325" y="317"/>
      <point x="1288" y="309"/>
      <point x="1248" y="302" type="curve" smooth="yes"/>
      <point x="1214" y="295"/>
      <point x="1183" y="293"/>
      <point x="1148" y="297" type="curve" smooth="yes"/>
      <point x="1108" y="302"/>
      <point x="1069" y="310"/>
      <point x="1030" y="324" type="curve" smooth="yes"/>
      <point x="971" y="347"/>
      <point x="918" y="382"/>
      <point x="869" y="423" type="curve" smooth="yes"/>
      <point x="852" y="438"/>
      <point x="837" y="456"/>
      <point x="819" y="470" type="curve" smooth="yes"/>
      <point x="814" y="475"/>
      <point x="806" y="476"/>
      <point x="798" y="479" type="curve" smooth="yes"/>
      <point x="782" y="484"/>
      <point x="764" y="488"/>
      <point x="748" y="495" type="curve" smooth="yes"/>
      <point x="740" y="498"/>
      <point x="733" y="508"/>
      <point x="726" y="515" type="curve"/>
      <point x="714" y="502"/>
      <point x="694" y="496"/>
      <point x="682" y="483" type="curve" smooth="yes"/>
      <point x="677" y="478"/>
      <point x="674" y="470"/>
      <point x="671" y="464" type="curve" smooth="yes"/>
      <point x="662" y="449"/>
      <point x="654" y="435"/>
      <point x="645" y="422" type="curve" smooth="yes"/>
      <point x="610" y="372"/>
      <point x="568" y="327"/>
      <point x="515" y="297" type="curve" smooth="yes"/>
      <point x="461" y="266"/>
      <point x="403" y="255"/>
      <point x="341" y="252" type="curve" smooth="yes"/>
      <point x="278" y="250"/>
      <point x="206" y="256"/>
      <point x="150" y="290" type="curve" smooth="yes"/>
      <point x="48" y="352"/>
      <point x="0" y="473"/>
      <point x="0" y="590" type="curve" smooth="yes"/>
      <point x="0" y="607"/>
      <point x="2" y="624"/>
      <point x="4" y="642" type="curve" smooth="yes"/>
      <point x="12" y="712"/>
      <point x="34" y="779"/>
      <point x="85" y="830" type="curve" smooth="yes"/>
      <point x="138" y="884"/>
      <point x="217" y="909"/>
      <point x="292" y="909" type="curve" smooth="yes"/>
      <point x="315" y="909"/>
      <point x="339" y="904"/>
      <point x="360" y="900" type="curve" smooth="yes"/>
      <point x="415" y="889"/>
      <point x="460" y="862"/>
      <point x="503" y="830" type="curve" smooth="yes"/>
      <point x="530" y="810"/>
      <point x="555" y="787"/>
      <point x="577" y="764" type="curve" smooth="yes"/>
      <point x="590" y="751"/>
      <point x="602" y="732"/>
      <point x="616" y="722" type="curve" smooth="yes"/>
      <point x="624" y="717"/>
      <point x="635" y="715"/>
      <point x="643" y="712" type="curve" smooth="yes"/>
      <point x="673" y="701"/>
      <point x="704" y="693"/>
      <point x="726" y="671" type="curve"/>
      <point x="733" y="677"/>
      <point x="747" y="682"/>
      <point x="751" y="691" type="curve" smooth="yes"/>
      <point x="757" y="701"/>
      <point x="756" y="716"/>
      <point x="758" y="728" type="curve" smooth="yes"/>
      <point x="765" y="762"/>
      <point x="768" y="797"/>
      <point x="771" y="832" type="curve" smooth="yes"/>
      <point x="773" y="866"/>
      <point x="776" y="901"/>
      <point x="775" y="936" type="curve" smooth="yes"/>
      <point x="773" y="1043"/>
      <point x="755" y="1147"/>
      <point x="726" y="1251" type="curve" smooth="yes"/>
      <point x="714" y="1294"/>
      <point x="699" y="1337"/>
      <point x="682" y="1379" type="curve" smooth="yes"/>
      <point x="672" y="1402"/>
      <point x="660" y="1426"/>
      <point x="652" y="1451" type="curve" smooth="yes"/>
      <point x="646" y="1471"/>
      <point x="644" y="1494"/>
      <point x="640" y="1516" type="curve" smooth="yes"/>
      <point x="638" y="1524"/>
      <point x="638" y="1536"/>
      <point x="634" y="1543" type="curve" smooth="yes"/>
      <point x="629" y="1552"/>
      <point x="614" y="1552"/>
      <point x="608" y="1560" type="curve" smooth="yes"/>
      <point x="593" y="1580"/>
      <point x="593" y="1610"/>
      <point x="580" y="1631" type="curve" smooth="yes"/>
      <point x="573" y="1641"/>
      <point x="556" y="1643"/>
      <point x="551" y="1654" type="curve" smooth="yes"/>
      <point x="547" y="1662"/>
      <point x="548" y="1675"/>
      <point x="547" y="1685" type="curve" smooth="yes"/>
      <point x="546" y="1708"/>
      <point x="546" y="1734"/>
      <point x="540" y="1758" type="curve" smooth="yes"/>
      <point x="523" y="1825"/>
      <point x="510" y="1892"/>
      <point x="502" y="1961" type="curve" smooth="yes"/>
      <point x="499" y="1988"/>
      <point x="495" y="2015"/>
      <point x="494" y="2043" type="curve" smooth="yes"/>
      <point x="494" y="2074"/>
      <point x="500" y="2106"/>
      <point x="503" y="2137" type="curve" smooth="yes"/>
      <point x="515" y="2237"/>
      <point x="541" y="2332"/>
      <point x="587" y="2423" type="curve" smooth="yes"/>
      <point x="627" y="2501"/>
      <point x="679" y="2577"/>
      <point x="747" y="2633" type="curve" smooth="yes"/>
      <point x="870" y="2733"/>
      <point x="1047" y="2751"/>
      <point x="1197" y="2715" type="curve" smooth="yes"/>
      <point x="1290" y="2693"/>
      <point x="1389" y="2636"/>
      <point x="1435" y="2551" type="curve" smooth="yes"/>
      <point x="1450" y="2525"/>
      <point x="1455" y="2492"/>
      <point x="1462" y="2464" type="curve" smooth="yes"/>
      <point x="1468" y="2442"/>
      <point x="1472" y="2420"/>
      <point x="1476" y="2399" type="curve" smooth="yes"/>
      <point x="1479" y="2381"/>
      <point x="1482" y="2364"/>
      <point x="1476" y="2347" type="curve" smooth="yes"/>
      <point x="1468" y="2325"/>
      <point x="1450" y="2304"/>
      <point x="1436" y="2287" type="curve" smooth="yes"/>
    </contour>
    <contour>
      <point x="550" y="1653" type="move"/>
      <point x="508" y="1611" type="line"/>
      <point x="489" y="1593" type="line"/>
      <point x="458" y="1593" type="line"/>
      <point x="388" y="1593" type="line"/>
      <point x="152" y="1593" type="line"/>
    </contour>
    <contour>
      <point x="634" y="1546" type="move"/>
      <point x="1449" y="1593" type="line"/>
      <point x="879" y="1593" type="line"/>
      <point x="741" y="1593" type="line"/>
      <point x="701" y="1593" type="line"/>
      <point x="682" y="1592" type="line"/>
      <point x="666" y="1578" type="line"/>
    </contour>
    <contour>
      <point x="726" y="671" type="move"/>
      <point x="726" y="515" type="line"/>
    </contour>
  </outline>
</glyph>
<glyph name="section" format="1">
  <advance width="1685"/>
  <unicode hex="00A7"/>
  <outline>
    <contour>
      <point x="1439" y="2761" type="move" smooth="yes"/>
      <point x="1454" y="2776"/>
      <point x="1471" y="2790"/>
      <point x="1487" y="2804" type="curve" smooth="yes"/>
      <point x="1493" y="2810"/>
      <point x="1504" y="2815"/>
      <point x="1507" y="2824" type="curve" smooth="yes"/>
      <point x="1510" y="2831"/>
      <point x="1505" y="2845"/>
      <point x="1503" y="2853" type="curve" smooth="yes"/>
      <point x="1499" y="2877"/>
      <point x="1493" y="2902"/>
      <point x="1487" y="2927" type="curve" smooth="yes"/>
      <point x="1480" y="2954"/>
      <point x="1472" y="2981"/>
      <point x="1463" y="3008" type="curve" smooth="yes"/>
      <point x="1460" y="3018"/>
      <point x="1458" y="3029"/>
      <point x="1453" y="3039" type="curve" smooth="yes"/>
      <point x="1442" y="3059"/>
      <point x="1420" y="3078"/>
      <point x="1403" y="3095" type="curve" smooth="yes"/>
      <point x="1357" y="3139"/>
      <point x="1305" y="3182"/>
      <point x="1248" y="3211" type="curve" smooth="yes"/>
      <point x="1179" y="3247"/>
      <point x="1109" y="3272"/>
      <point x="1034" y="3291" type="curve" smooth="yes"/>
      <point x="972" y="3307"/>
      <point x="908" y="3316"/>
      <point x="844" y="3321" type="curve" smooth="yes"/>
      <point x="803" y="3323"/>
      <point x="762" y="3326"/>
      <point x="721" y="3326" type="curve" smooth="yes"/>
      <point x="488" y="3324"/>
      <point x="218" y="3269"/>
      <point x="83" y="3059" type="curve" smooth="yes"/>
      <point x="63" y="3027"/>
      <point x="47" y="2994"/>
      <point x="35" y="2959" type="curve" smooth="yes"/>
      <point x="22" y="2916"/>
      <point x="14" y="2872"/>
      <point x="8" y="2829" type="curve" smooth="yes"/>
      <point x="5" y="2808"/>
      <point x="-0" y="2786"/>
      <point x="0" y="2765" type="curve" smooth="yes"/>
      <point x="0" y="2741"/>
      <point x="5" y="2716"/>
      <point x="10" y="2693" type="curve" smooth="yes"/>
      <point x="25" y="2603"/>
      <point x="57" y="2523"/>
      <point x="116" y="2453" type="curve" smooth="yes"/>
      <point x="153" y="2408"/>
      <point x="196" y="2371"/>
      <point x="243" y="2337" type="curve" smooth="yes"/>
      <point x="260" y="2324"/>
      <point x="278" y="2314"/>
      <point x="295" y="2302" type="curve" smooth="yes"/>
      <point x="306" y="2294"/>
      <point x="313" y="2269"/>
      <point x="320" y="2257" type="curve" smooth="yes"/>
      <point x="322" y="2252"/>
      <point x="324" y="2243"/>
      <point x="329" y="2241" type="curve" smooth="yes"/>
      <point x="339" y="2236"/>
      <point x="355" y="2236"/>
      <point x="366" y="2234" type="curve" smooth="yes"/>
      <point x="390" y="2229"/>
      <point x="415" y="2225"/>
      <point x="440" y="2221" type="curve" smooth="yes"/>
      <point x="452" y="2219"/>
      <point x="464" y="2219"/>
      <point x="476" y="2215" type="curve" smooth="yes"/>
      <point x="500" y="2207"/>
      <point x="523" y="2197"/>
      <point x="547" y="2189" type="curve" smooth="yes"/>
      <point x="595" y="2172"/>
      <point x="644" y="2158"/>
      <point x="694" y="2145" type="curve" smooth="yes"/>
      <point x="780" y="2123"/>
      <point x="868" y="2106"/>
      <point x="954" y="2085" type="curve" smooth="yes"/>
      <point x="1045" y="2062"/>
      <point x="1134" y="2034"/>
      <point x="1222" y="2001" type="curve" smooth="yes"/>
      <point x="1359" y="1949"/>
      <point x="1500" y="1874"/>
      <point x="1586" y="1752" type="curve" smooth="yes"/>
      <point x="1625" y="1697"/>
      <point x="1642" y="1636"/>
      <point x="1653" y="1571" type="curve" smooth="yes"/>
      <point x="1657" y="1549"/>
      <point x="1663" y="1525"/>
      <point x="1663" y="1503" type="curve" smooth="yes"/>
      <point x="1662" y="1463"/>
      <point x="1652" y="1420"/>
      <point x="1643" y="1382" type="curve" smooth="yes"/>
      <point x="1627" y="1315"/>
      <point x="1602" y="1251"/>
      <point x="1558" y="1198" type="curve" smooth="yes"/>
      <point x="1533" y="1166"/>
      <point x="1504" y="1137"/>
      <point x="1474" y="1110" type="curve" smooth="yes"/>
      <point x="1463" y="1100"/>
      <point x="1453" y="1091"/>
      <point x="1442" y="1082" type="curve" smooth="yes"/>
      <point x="1436" y="1077"/>
      <point x="1428" y="1073"/>
      <point x="1423" y="1066" type="curve" smooth="yes"/>
      <point x="1419" y="1061"/>
      <point x="1418" y="1054"/>
      <point x="1416" y="1048" type="curve" smooth="yes"/>
      <point x="1412" y="1034"/>
      <point x="1408" y="1019"/>
      <point x="1402" y="1006" type="curve" smooth="yes"/>
      <point x="1397" y="994"/>
      <point x="1382" y="983"/>
      <point x="1373" y="975" type="curve" smooth="yes"/>
      <point x="1369" y="971"/>
      <point x="1362" y="966"/>
      <point x="1364" y="961" type="curve" smooth="yes"/>
      <point x="1367" y="947"/>
      <point x="1376" y="934"/>
      <point x="1383" y="922" type="curve" smooth="yes"/>
      <point x="1385" y="916"/>
      <point x="1388" y="908"/>
      <point x="1392" y="904" type="curve" smooth="yes"/>
      <point x="1398" y="898"/>
      <point x="1407" y="894"/>
      <point x="1414" y="889" type="curve" smooth="yes"/>
      <point x="1428" y="881"/>
      <point x="1442" y="871"/>
      <point x="1455" y="862" type="curve" smooth="yes"/>
      <point x="1494" y="833"/>
      <point x="1533" y="801"/>
      <point x="1563" y="764" type="curve" smooth="yes"/>
      <point x="1601" y="717"/>
      <point x="1635" y="667"/>
      <point x="1654" y="611" type="curve" smooth="yes"/>
      <point x="1665" y="579"/>
      <point x="1671" y="546"/>
      <point x="1676" y="514" type="curve" smooth="yes"/>
      <point x="1679" y="493"/>
      <point x="1684" y="472"/>
      <point x="1685" y="452" type="curve" smooth="yes"/>
      <point x="1686" y="424"/>
      <point x="1677" y="393"/>
      <point x="1673" y="366" type="curve" smooth="yes"/>
      <point x="1658" y="277"/>
      <point x="1633" y="197"/>
      <point x="1577" y="126" type="curve" smooth="yes"/>
      <point x="1448" y="-38"/>
      <point x="1231" y="-92"/>
      <point x="1033" y="-106" type="curve" smooth="yes"/>
      <point x="986" y="-109"/>
      <point x="939" y="-110"/>
      <point x="892" y="-108" type="curve" smooth="yes"/>
      <point x="831" y="-105"/>
      <point x="770" y="-101"/>
      <point x="710" y="-88" type="curve" smooth="yes"/>
      <point x="641" y="-74"/>
      <point x="570" y="-57"/>
      <point x="506" y="-29" type="curve" smooth="yes"/>
      <point x="428" y="4"/>
      <point x="355" y="50"/>
      <point x="294" y="109" type="curve" smooth="yes"/>
      <point x="273" y="129"/>
      <point x="246" y="151"/>
      <point x="232" y="177" type="curve" smooth="yes"/>
      <point x="226" y="186"/>
      <point x="223" y="200"/>
      <point x="220" y="211" type="curve" smooth="yes"/>
      <point x="214" y="232"/>
      <point x="207" y="254"/>
      <point x="201" y="276" type="curve" smooth="yes"/>
      <point x="193" y="303"/>
      <point x="187" y="332"/>
      <point x="182" y="361" type="curve" smooth="yes"/>
      <point x="180" y="369"/>
      <point x="174" y="384"/>
      <point x="177" y="393" type="curve" smooth="yes"/>
      <point x="180" y="400"/>
      <point x="191" y="406"/>
      <point x="197" y="412" type="curve" smooth="yes"/>
      <point x="213" y="426"/>
      <point x="231" y="440"/>
      <point x="246" y="457" type="curve" smooth="yes"/>
    </contour>
    <contour>
      <point x="327" y="2241" type="move" smooth="yes"/>
      <point x="314" y="2228"/>
      <point x="294" y="2213"/>
      <point x="285" y="2198" type="curve" smooth="yes"/>
      <point x="278" y="2184"/>
      <point x="275" y="2168"/>
      <point x="270" y="2154" type="curve" smooth="yes"/>
      <point x="268" y="2148"/>
      <point x="267" y="2140"/>
      <point x="263" y="2136" type="curve" smooth="yes"/>
      <point x="246" y="2116"/>
      <point x="222" y="2101"/>
      <point x="203" y="2084" type="curve" smooth="yes"/>
      <point x="168" y="2053"/>
      <point x="135" y="2018"/>
      <point x="108" y="1979" type="curve" smooth="yes"/>
      <point x="64" y="1913"/>
      <point x="42" y="1839"/>
      <point x="31" y="1762" type="curve" smooth="yes"/>
      <point x="27" y="1741"/>
      <point x="22" y="1719"/>
      <point x="22" y="1698" type="curve" smooth="yes"/>
      <point x="22" y="1679"/>
      <point x="27" y="1660"/>
      <point x="30" y="1642" type="curve" smooth="yes"/>
      <point x="39" y="1581"/>
      <point x="53" y="1522"/>
      <point x="85" y="1469" type="curve" smooth="yes"/>
      <point x="125" y="1403"/>
      <point x="183" y="1354"/>
      <point x="244" y="1310" type="curve" smooth="yes"/>
      <point x="307" y="1264"/>
      <point x="382" y="1231"/>
      <point x="455" y="1203" type="curve" smooth="yes"/>
      <point x="556" y="1165"/>
      <point x="659" y="1135"/>
      <point x="765" y="1111" type="curve" smooth="yes"/>
      <point x="824" y="1098"/>
      <point x="884" y="1088"/>
      <point x="944" y="1074" type="curve" smooth="yes"/>
      <point x="1004" y="1059"/>
      <point x="1065" y="1042"/>
      <point x="1124" y="1022" type="curve" smooth="yes"/>
      <point x="1155" y="1012"/>
      <point x="1186" y="998"/>
      <point x="1218" y="989" type="curve" smooth="yes"/>
      <point x="1235" y="985"/>
      <point x="1254" y="983"/>
      <point x="1272" y="980" type="curve" smooth="yes"/>
      <point x="1302" y="975"/>
      <point x="1332" y="967"/>
      <point x="1362" y="964" type="curve" smooth="yes"/>
    </contour>
  </outline>
</glyph>
<glyph name="ordfeminine" format="1">
  <advance width="1230"/>
  <unicode hex="00AA"/>
  <outline>
    <contour>
      <point x="54" y="2481" type="move" smooth="yes"/>
      <point x="77" y="2512"/>
      <point x="100" y="2548"/>
      <point x="115" y="2585" type="curve" smooth="yes"/>
      <point x="128" y="2618"/>
      <point x="134" y="2653"/>
      <point x="150" y="2686" type="curve" smooth="yes"/>
      <point x="176" y="2737"/>
      <point x="216" y="2783"/>
      <point x="262" y="2817" type="curve" smooth="yes"/>
      <point x="314" y="2856"/>
      <point x="377" y="2881"/>
      <point x="443" y="2887" type="curve" smooth="yes"/>
      <point x="469" y="2890"/>
      <point x="494" y="2889"/>
      <point x="521" y="2888" type="curve" smooth="yes"/>
      <point x="569" y="2885"/>
      <point x="615" y="2879"/>
      <point x="660" y="2858" type="curve" smooth="yes"/>
      <point x="742" y="2821"/>
      <point x="808" y="2747"/>
      <point x="842" y="2665" type="curve" smooth="yes"/>
      <point x="884" y="2567"/>
      <point x="888" y="2457"/>
      <point x="891" y="2353" type="curve" smooth="yes"/>
      <point x="894" y="2217"/>
      <point x="892" y="2080"/>
      <point x="892" y="1945" type="curve" smooth="yes"/>
      <point x="892" y="1767" type="line"/>
      <point x="892" y="1717" type="line" smooth="yes"/>
      <point x="892" y="1710"/>
      <point x="893" y="1701"/>
      <point x="890" y="1696" type="curve" smooth="yes"/>
      <point x="887" y="1689"/>
      <point x="879" y="1683"/>
      <point x="874" y="1678" type="curve" smooth="yes"/>
      <point x="866" y="1670"/>
      <point x="859" y="1661"/>
      <point x="851" y="1655" type="curve" smooth="yes"/>
      <point x="842" y="1650"/>
      <point x="830" y="1648"/>
      <point x="821" y="1645" type="curve" smooth="yes"/>
      <point x="806" y="1641"/>
      <point x="792" y="1636"/>
      <point x="779" y="1632" type="curve" smooth="yes"/>
      <point x="768" y="1628"/>
      <point x="754" y="1627"/>
      <point x="745" y="1620" type="curve" smooth="yes"/>
      <point x="728" y="1609"/>
      <point x="713" y="1593"/>
      <point x="698" y="1580" type="curve" smooth="yes"/>
      <point x="669" y="1557"/>
      <point x="637" y="1536"/>
      <point x="605" y="1518" type="curve" smooth="yes"/>
      <point x="528" y="1476"/>
      <point x="448" y="1460"/>
      <point x="363" y="1454" type="curve" smooth="yes"/>
      <point x="286" y="1449"/>
      <point x="211" y="1455"/>
      <point x="142" y="1491" type="curve" smooth="yes"/>
      <point x="74" y="1526"/>
      <point x="32" y="1598"/>
      <point x="15" y="1670" type="curve" smooth="yes"/>
      <point x="8" y="1701"/>
      <point x="0" y="1736"/>
      <point x="0" y="1769" type="curve" smooth="yes"/>
      <point x="-0" y="1788"/>
      <point x="4" y="1808"/>
      <point x="7" y="1827" type="curve" smooth="yes"/>
      <point x="11" y="1850"/>
      <point x="15" y="1875"/>
      <point x="23" y="1898" type="curve" smooth="yes"/>
      <point x="41" y="1949"/>
      <point x="74" y="1994"/>
      <point x="112" y="2032" type="curve" smooth="yes"/>
      <point x="267" y="2187"/>
      <point x="500" y="2257"/>
      <point x="715" y="2271" type="curve" smooth="yes"/>
      <point x="773" y="2275"/>
      <point x="832" y="2272"/>
      <point x="891" y="2272" type="curve" smooth="yes"/>
    </contour>
    <contour>
      <point x="892" y="1694" type="move" smooth="yes"/>
      <point x="892" y="1645"/>
      <point x="900" y="1597"/>
      <point x="914" y="1551" type="curve" smooth="yes"/>
      <point x="921" y="1525"/>
      <point x="931" y="1499"/>
      <point x="952" y="1481" type="curve" smooth="yes"/>
      <point x="982" y="1455"/>
      <point x="1016" y="1460"/>
      <point x="1053" y="1467" type="curve" smooth="yes"/>
      <point x="1073" y="1471"/>
      <point x="1099" y="1474"/>
      <point x="1118" y="1485" type="curve" smooth="yes"/>
      <point x="1159" y="1508"/>
      <point x="1187" y="1559"/>
      <point x="1208" y="1601" type="curve" smooth="yes"/>
      <point x="1215" y="1616"/>
      <point x="1225" y="1631"/>
      <point x="1230" y="1648" type="curve" smooth="yes"/>
    </contour>
  </outline>
</glyph>
<glyph name="registered" format="1">
  <advance width="2281"/>
  <unicode hex="00AE"/>
  <outline>
    <contour>
      <point x="1194" y="2989" type="curve" smooth="yes"/>
      <point x="1249" y="2986"/>
      <point x="1303" y="2981"/>
      <point x="1357" y="2970" type="curve" smooth="yes"/>
      <point x="1418" y="2957"/>
      <point x="1479" y="2939"/>
      <point x="1537" y="2914" type="curve" smooth="yes"/>
      <point x="1811" y="2797"/>
      <point x="2006" y="2550"/>
      <point x="2128" y="2285" type="curve" smooth="yes"/>
      <point x="2192" y="2146"/>
      <point x="2234" y="1994"/>
      <point x="2255" y="1843" type="curve" smooth="yes"/>
      <point x="2324" y="1347"/>
      <point x="2265" y="792"/>
      <point x="1942" y="390" type="curve" smooth="yes"/>
      <point x="1835" y="256"/>
      <point x="1705" y="144"/>
      <point x="1548" y="74" type="curve" smooth="yes"/>
      <point x="1464" y="36"/>
      <point x="1375" y="13"/>
      <point x="1284" y="1" type="curve" smooth="yes"/>
      <point x="1189" y="-11"/>
      <point x="1090" y="-10"/>
      <point x="995" y="2" type="curve" smooth="yes"/>
      <point x="910" y="13"/>
      <point x="825" y="35"/>
      <point x="746" y="67" type="curve" smooth="yes"/>
      <point x="430" y="196"/>
      <point x="212" y="495"/>
      <point x="104" y="811" type="curve" smooth="yes"/>
      <point x="79" y="883"/>
      <point x="61" y="956"/>
      <point x="44" y="1031" type="curve" smooth="yes"/>
      <point x="17" y="1156"/>
      <point x="7" y="1284"/>
      <point x="2" y="1412" type="curve" smooth="yes"/>
      <point x="-14" y="1786"/>
      <point x="57" y="2181"/>
      <point x="266" y="2498" type="curve" smooth="yes"/>
      <point x="363" y="2646"/>
      <point x="488" y="2777"/>
      <point x="644" y="2865" type="curve" smooth="yes"/>
      <point x="747" y="2924"/>
      <point x="861" y="2960"/>
      <point x="978" y="2978" type="curve" smooth="yes"/>
      <point x="1012" y="2983"/>
      <point x="1046" y="2986"/>
      <point x="1081" y="2988" type="curve" smooth="yes"/>
      <point x="1097" y="2990"/>
      <point x="1114" y="2988"/>
      <point x="1131" y="2990" type="curve" smooth="yes"/>
      <point x="1151" y="2993"/>
      <point x="1173" y="2989"/>
    </contour>
    <contour>
      <point x="506" y="2320" type="move"/>
      <point x="659" y="2320" type="line"/>
      <point x="704" y="2320" type="line" smooth="yes"/>
      <point x="710" y="2320"/>
      <point x="718" y="2321"/>
      <point x="724" y="2319" type="curve" smooth="yes"/>
      <point x="731" y="2316"/>
      <point x="737" y="2307"/>
      <point x="743" y="2302" type="curve" smooth="yes"/>
      <point x="757" y="2288"/>
      <point x="777" y="2273"/>
      <point x="787" y="2257" type="curve" smooth="yes"/>
      <point x="791" y="2251"/>
      <point x="789" y="2239"/>
      <point x="789" y="2233" type="curve" smooth="yes"/>
      <point x="789" y="2175" type="line"/>
      <point x="789" y="1958" type="line"/>
      <point x="789" y="1146" type="line"/>
      <point x="789" y="909" type="line"/>
      <point x="789" y="846" type="line" smooth="yes"/>
      <point x="789" y="838"/>
      <point x="791" y="826"/>
      <point x="787" y="820" type="curve" smooth="yes"/>
      <point x="777" y="803"/>
      <point x="757" y="788"/>
      <point x="743" y="775" type="curve" smooth="yes"/>
      <point x="737" y="769"/>
      <point x="731" y="760"/>
      <point x="724" y="757" type="curve" smooth="yes"/>
      <point x="718" y="755"/>
      <point x="710" y="757"/>
      <point x="704" y="757" type="curve" smooth="yes"/>
      <point x="659" y="757" type="line"/>
      <point x="507" y="757" type="line"/>
    </contour>
    <contour>
      <point x="789" y="2257" type="move"/>
      <point x="833" y="2301" type="line" smooth="yes"/>
      <point x="838" y="2306"/>
      <point x="845" y="2316"/>
      <point x="853" y="2319" type="curve" smooth="yes"/>
      <point x="859" y="2321"/>
      <point x="868" y="2320"/>
      <point x="875" y="2320" type="curve" smooth="yes"/>
      <point x="923" y="2320" type="line"/>
      <point x="1087" y="2320" type="line" smooth="yes"/>
      <point x="1181" y="2320"/>
      <point x="1280" y="2326"/>
      <point x="1371" y="2298" type="curve" smooth="yes"/>
      <point x="1476" y="2266"/>
      <point x="1564" y="2191"/>
      <point x="1613" y="2093" type="curve" smooth="yes"/>
      <point x="1634" y="2050"/>
      <point x="1645" y="2004"/>
      <point x="1653" y="1958" type="curve" smooth="yes"/>
      <point x="1657" y="1937"/>
      <point x="1662" y="1916"/>
      <point x="1663" y="1896" type="curve" smooth="yes"/>
      <point x="1664" y="1866"/>
      <point x="1655" y="1833"/>
      <point x="1649" y="1805" type="curve" smooth="yes"/>
      <point x="1641" y="1760"/>
      <point x="1629" y="1717"/>
      <point x="1610" y="1677" type="curve" smooth="yes"/>
      <point x="1563" y="1580"/>
      <point x="1481" y="1504"/>
      <point x="1381" y="1465" type="curve" smooth="yes"/>
      <point x="1337" y="1449"/>
      <point x="1292" y="1441"/>
      <point x="1246" y="1438" type="curve" smooth="yes"/>
      <point x="1230" y="1436"/>
      <point x="1213" y="1437"/>
      <point x="1197" y="1437" type="curve" smooth="yes"/>
      <point x="1190" y="1437"/>
      <point x="1179" y="1438"/>
      <point x="1173" y="1436" type="curve" smooth="yes"/>
      <point x="1160" y="1431"/>
      <point x="1147" y="1412"/>
      <point x="1138" y="1403" type="curve" smooth="yes"/>
      <point x="1134" y="1399"/>
      <point x="1128" y="1394"/>
      <point x="1126" y="1390" type="curve" smooth="yes"/>
      <point x="1124" y="1384"/>
      <point x="1129" y="1374"/>
      <point x="1130" y="1369" type="curve" smooth="yes"/>
      <point x="1136" y="1347"/>
      <point x="1141" y="1331"/>
      <point x="1154" y="1314" type="curve" smooth="yes"/>
      <point x="1200" y="1257"/>
      <point x="1248" y="1202"/>
      <point x="1295" y="1147" type="curve" smooth="yes"/>
      <point x="1366" y="1063"/>
      <point x="1435" y="980"/>
      <point x="1506" y="897" type="curve" smooth="yes"/>
      <point x="1525" y="873"/>
      <point x="1545" y="849"/>
      <point x="1565" y="826" type="curve" smooth="yes"/>
      <point x="1574" y="815"/>
      <point x="1582" y="800"/>
      <point x="1594" y="794" type="curve" smooth="yes"/>
      <point x="1608" y="785"/>
      <point x="1628" y="781"/>
      <point x="1644" y="775" type="curve" smooth="yes"/>
      <point x="1661" y="769"/>
      <point x="1680" y="759"/>
      <point x="1698" y="757" type="curve" smooth="yes"/>
      <point x="1729" y="753"/>
      <point x="1764" y="757"/>
      <point x="1796" y="757" type="curve" smooth="yes"/>
      <point x="1976" y="757" type="line"/>
    </contour>
    <contour>
      <point x="790" y="1429" type="move"/>
      <point x="1125" y="1390" type="line" smooth="yes"/>
      <point x="1100" y="1396"/>
      <point x="1076" y="1408"/>
      <point x="1052" y="1417" type="curve" smooth="yes"/>
      <point x="1043" y="1421"/>
      <point x="1033" y="1426"/>
      <point x="1023" y="1428" type="curve" smooth="yes"/>
      <point x="999" y="1432"/>
      <point x="971" y="1429"/>
      <point x="947" y="1429" type="curve" smooth="yes"/>
    </contour>
    <contour>
      <point x="789" y="820" type="move"/>
      <point x="833" y="776" type="line"/>
      <point x="853" y="757" type="line"/>
      <point x="873" y="757" type="line"/>
      <point x="918" y="757" type="line"/>
      <point x="1070" y="757" type="line"/>
    </contour>
  </outline>
</glyph>
<glyph name="degree" format="1">
  <advance width="762"/>
  <unicode hex="00B0"/>
  <outline>
    <contour>
      <point x="366" y="3231" type="move" smooth="yes"/>
      <point x="406" y="3236"/>
      <point x="452" y="3227"/>
      <point x="491" y="3218" type="curve" smooth="yes"/>
      <point x="531" y="3208"/>
      <point x="567" y="3190"/>
      <point x="601" y="3168" type="curve" smooth="yes"/>
      <point x="637" y="3144"/>
      <point x="666" y="3114"/>
      <point x="690" y="3079" type="curve" smooth="yes"/>
      <point x="718" y="3038"/>
      <point x="739" y="2996"/>
      <point x="751" y="2949" type="curve" smooth="yes"/>
      <point x="790" y="2783"/>
      <point x="723" y="2602"/>
      <point x="573" y="2516" type="curve" smooth="yes"/>
      <point x="535" y="2494"/>
      <point x="493" y="2481"/>
      <point x="450" y="2475" type="curve" smooth="yes"/>
      <point x="329" y="2457"/>
      <point x="201" y="2488"/>
      <point x="111" y="2574" type="curve" smooth="yes"/>
      <point x="-38" y="2717"/>
      <point x="-36" y="2983"/>
      <point x="112" y="3125" type="curve" smooth="yes"/>
      <point x="159" y="3170"/>
      <point x="217" y="3204"/>
      <point x="280" y="3219" type="curve" smooth="yes"/>
      <point x="309" y="3226"/>
      <point x="337" y="3227"/>
      <point x="366" y="3231" type="curve" smooth="yes"/>
    </contour>
  </outline>
</glyph>
<glyph name="plusminus" format="1">
  <advance width="2549"/>
  <unicode hex="00B1"/>
  <outline>
    <contour>
      <point x="1274" y="3047" type="move"/>
      <point x="1274" y="781" type="line"/>
    </contour>
    <contour>
      <point x="0" y="1914" type="move"/>
      <point x="2549" y="1914" type="line"/>
    </contour>
    <contour>
      <point x="0" y="273" type="move"/>
      <point x="2549" y="273" type="line"/>
    </contour>
  </outline>
</glyph>
<glyph name="uni00B2" format="1">
  <advance width="878"/>
  <unicode hex="00B2"/>
  <outline>
    <contour>
      <point x="78" y="2855" type="move"/>
      <point x="65" y="2867"/>
      <point x="51" y="2879"/>
      <point x="38" y="2891" type="curve" smooth="yes"/>
      <point x="32" y="2896"/>
      <point x="22" y="2901"/>
      <point x="19" y="2909" type="curve" smooth="yes"/>
      <point x="9" y="2930"/>
      <point x="18" y="2961"/>
      <point x="23" y="2983" type="curve" smooth="yes"/>
      <point x="27" y="3005"/>
      <point x="31" y="3032"/>
      <point x="40" y="3054" type="curve" smooth="yes"/>
      <point x="58" y="3096"/>
      <point x="102" y="3132"/>
      <point x="139" y="3158" type="curve" smooth="yes"/>
      <point x="213" y="3210"/>
      <point x="300" y="3227"/>
      <point x="389" y="3231" type="curve" smooth="yes"/>
      <point x="455" y="3233"/>
      <point x="523" y="3228"/>
      <point x="585" y="3200" type="curve" smooth="yes"/>
      <point x="651" y="3170"/>
      <point x="711" y="3118"/>
      <point x="743" y="3052" type="curve" smooth="yes"/>
      <point x="756" y="3025"/>
      <point x="763" y="2996"/>
      <point x="768" y="2967" type="curve" smooth="yes"/>
      <point x="770" y="2951"/>
      <point x="775" y="2934"/>
      <point x="775" y="2919" type="curve" smooth="yes"/>
      <point x="775" y="2900"/>
      <point x="770" y="2880"/>
      <point x="766" y="2863" type="curve" smooth="yes"/>
      <point x="758" y="2819"/>
      <point x="747" y="2779"/>
      <point x="726" y="2740" type="curve" smooth="yes"/>
      <point x="664" y="2625"/>
      <point x="560" y="2539"/>
      <point x="460" y="2460" type="curve" smooth="yes"/>
      <point x="372" y="2392"/>
      <point x="284" y="2323"/>
      <point x="198" y="2253" type="curve" smooth="yes"/>
      <point x="172" y="2233"/>
      <point x="145" y="2212"/>
      <point x="120" y="2192" type="curve" smooth="yes"/>
      <point x="109" y="2183"/>
      <point x="93" y="2175"/>
      <point x="85" y="2163" type="curve" smooth="yes"/>
      <point x="80" y="2155"/>
      <point x="78" y="2144"/>
      <point x="74" y="2136" type="curve" smooth="yes"/>
      <point x="66" y="2116"/>
      <point x="59" y="2096"/>
      <point x="51" y="2076" type="curve" smooth="yes"/>
      <point x="48" y="2066"/>
      <point x="44" y="2048"/>
      <point x="37" y="2041" type="curve" smooth="yes"/>
      <point x="29" y="2034"/>
      <point x="10" y="2033"/>
      <point x="0" y="2030" type="curve"/>
    </contour>
    <contour>
      <point x="878" y="2278" type="move" smooth="yes"/>
      <point x="877" y="2258"/>
      <point x="868" y="2238"/>
      <point x="864" y="2220" type="curve" smooth="yes"/>
      <point x="855" y="2181"/>
      <point x="845" y="2142"/>
      <point x="836" y="2104" type="curve" smooth="yes"/>
      <point x="832" y="2088"/>
      <point x="831" y="2065"/>
      <point x="823" y="2051" type="curve" smooth="yes"/>
      <point x="818" y="2043"/>
      <point x="809" y="2037"/>
      <point x="803" y="2033" type="curve" smooth="yes"/>
      <point x="792" y="2025"/>
      <point x="771" y="2030"/>
      <point x="759" y="2030" type="curve" smooth="yes"/>
      <point x="645" y="2030" type="line"/>
      <point x="210" y="2030" type="line"/>
      <point x="92" y="2030" type="line" smooth="yes"/>
      <point x="80" y="2030"/>
      <point x="62" y="2026"/>
      <point x="51" y="2030" type="curve" smooth="yes"/>
      <point x="46" y="2032"/>
      <point x="42" y="2037"/>
      <point x="39" y="2041" type="curve" smooth="yes"/>
    </contour>
  </outline>
</glyph>
<glyph name="paragraph" format="1">
  <advance width="1050"/>
  <unicode hex="00B6"/>
  <outline>
    <contour>
      <point x="259" y="133" type="move"/>
      <point x="259" y="1238" type="line"/>
      <point x="259" y="1597" type="line"/>
      <point x="259" y="1713" type="line" smooth="yes"/>
      <point x="259" y="1731"/>
      <point x="262" y="1751"/>
      <point x="259" y="1770" type="curve" smooth="yes"/>
      <point x="258" y="1778"/>
      <point x="244" y="1787"/>
      <point x="238" y="1794" type="curve" smooth="yes"/>
      <point x="221" y="1811"/>
      <point x="206" y="1828"/>
      <point x="191" y="1848" type="curve" smooth="yes"/>
      <point x="152" y="1901"/>
      <point x="124" y="1965"/>
      <point x="101" y="2028" type="curve" smooth="yes"/>
      <point x="68" y="2115"/>
      <point x="43" y="2206"/>
      <point x="23" y="2298" type="curve" smooth="yes"/>
      <point x="16" y="2327"/>
      <point x="10" y="2357"/>
      <point x="5" y="2387" type="curve" smooth="yes"/>
      <point x="3" y="2398"/>
      <point x="0" y="2410"/>
      <point x="0" y="2422" type="curve" smooth="yes"/>
      <point x="-0" y="2440"/>
      <point x="6" y="2462"/>
      <point x="10" y="2481" type="curve" smooth="yes"/>
      <point x="18" y="2520"/>
      <point x="26" y="2559"/>
      <point x="36" y="2599" type="curve" smooth="yes"/>
      <point x="56" y="2684"/>
      <point x="82" y="2770"/>
      <point x="115" y="2852" type="curve" smooth="yes"/>
      <point x="150" y="2935"/>
      <point x="194" y="3015"/>
      <point x="264" y="3074" type="curve" smooth="yes"/>
      <point x="273" y="3082"/>
      <point x="296" y="3078"/>
      <point x="307" y="3078" type="curve" smooth="yes"/>
      <point x="422" y="3078" type="line"/>
      <point x="874" y="3078" type="line"/>
      <point x="1002" y="3078" type="line" smooth="yes"/>
      <point x="1019" y="3078"/>
      <point x="1040" y="3080"/>
      <point x="1048" y="3060" type="curve" smooth="yes"/>
      <point x="1050" y="3053"/>
      <point x="1048" y="3043"/>
      <point x="1048" y="3036" type="curve" smooth="yes"/>
      <point x="1048" y="2984" type="line"/>
      <point x="1048" y="2805" type="line"/>
      <point x="1048" y="2198" type="line"/>
      <point x="1048" y="141" type="line"/>
    </contour>
  </outline>
</glyph>
<glyph name="periodcentered" format="1">
  <advance width="3"/>
  <unicode hex="00B7"/>
  <outline>
    <contour>
      <point x="0" y="1179" type="move"/>
      <point x="3" y="1179" type="line"/>
    </contour>
  </outline>
</glyph>
<glyph name="onequarter" format="1">
  <advance width="1602"/>
  <unicode hex="00BC"/>
  <outline>
    <contour>
      <point x="1363" y="3183" type="move"/>
      <point x="1327" y="3091" type="line"/>
      <point x="1252" y="2894" type="line"/>
      <point x="1035" y="2324" type="line"/>
      <point x="427" y="727" type="line"/>
      <point x="226" y="199" type="line"/>
      <point x="162" y="31" type="line"/>
      <point x="122" y="-75" type="line"/>
    </contour>
    <contour>
      <point x="0" y="3125" type="move" smooth="yes"/>
      <point x="23" y="3126"/>
      <point x="47" y="3132"/>
      <point x="70" y="3136" type="curve" smooth="yes"/>
      <point x="117" y="3144"/>
      <point x="164" y="3153"/>
      <point x="212" y="3161" type="curve" smooth="yes"/>
      <point x="229" y="3164"/>
      <point x="245" y="3167"/>
      <point x="263" y="3170" type="curve" smooth="yes"/>
      <point x="270" y="3171"/>
      <point x="277" y="3174"/>
      <point x="284" y="3168" type="curve" smooth="yes"/>
      <point x="291" y="3162"/>
      <point x="290" y="3155"/>
      <point x="290" y="3146" type="curve" smooth="yes"/>
      <point x="290" y="3101" type="line"/>
      <point x="290" y="2910" type="line"/>
      <point x="290" y="2263" type="line"/>
      <point x="290" y="2090" type="line"/>
      <point x="290" y="2044" type="line" smooth="yes"/>
      <point x="290" y="2038"/>
      <point x="291" y="2029"/>
      <point x="288" y="2024" type="curve" smooth="yes"/>
      <point x="282" y="2015"/>
      <point x="265" y="1996"/>
      <point x="256" y="1992" type="curve" smooth="yes"/>
      <point x="250" y="1990"/>
      <point x="243" y="1992"/>
      <point x="238" y="1992" type="curve" smooth="yes"/>
      <point x="200" y="1992" type="line"/>
      <point x="69" y="1992" type="line"/>
    </contour>
    <contour>
      <point x="509" y="1992" type="move"/>
      <point x="379" y="1992" type="line"/>
      <point x="341" y="1992" type="line" smooth="yes"/>
      <point x="335" y="1992"/>
      <point x="328" y="1990"/>
      <point x="323" y="1992" type="curve" smooth="yes"/>
      <point x="311" y="1996"/>
      <point x="298" y="2015"/>
      <point x="290" y="2024" type="curve" smooth="yes"/>
    </contour>
    <contour>
      <point x="1359" y="1093" type="move" smooth="yes"/>
      <point x="1357" y="1081"/>
      <point x="1350" y="1069"/>
      <point x="1350" y="1058" type="curve" smooth="yes"/>
      <point x="1350" y="1051"/>
      <point x="1358" y="1048"/>
      <point x="1359" y="1043" type="curve" smooth="yes"/>
      <point x="1362" y="1031"/>
      <point x="1360" y="1016"/>
      <point x="1360" y="1005" type="curve" smooth="yes"/>
      <point x="1360" y="809" type="line"/>
      <point x="1360" y="206" type="line"/>
      <point x="1360" y="-26" type="line"/>
      <point x="1360" y="-86" type="line" smooth="yes"/>
      <point x="1360" y="-93"/>
      <point x="1362" y="-104"/>
      <point x="1357" y="-110" type="curve" smooth="yes"/>
      <point x="1352" y="-116"/>
      <point x="1341" y="-129"/>
      <point x="1334" y="-132" type="curve" smooth="yes"/>
      <point x="1329" y="-134"/>
      <point x="1322" y="-133"/>
      <point x="1317" y="-133" type="curve" smooth="yes"/>
      <point x="1282" y="-133" type="line"/>
      <point x="1132" y="-133" type="line"/>
    </contour>
    <contour>
      <point x="1602" y="257" type="move"/>
      <point x="951" y="257" type="line"/>
      <point x="785" y="257" type="line"/>
      <point x="743" y="257" type="line" smooth="yes"/>
      <point x="736" y="257"/>
      <point x="730" y="255"/>
      <point x="725" y="260" type="curve" smooth="yes"/>
      <point x="722" y="262"/>
      <point x="719" y="264"/>
      <point x="719" y="268" type="curve" smooth="yes"/>
      <point x="718" y="272"/>
      <point x="721" y="279"/>
      <point x="722" y="284" type="curve" smooth="yes"/>
      <point x="725" y="295"/>
      <point x="728" y="306"/>
      <point x="731" y="318" type="curve" smooth="yes"/>
      <point x="733" y="325"/>
      <point x="735" y="333"/>
      <point x="738" y="340" type="curve" smooth="yes"/>
      <point x="745" y="355"/>
      <point x="760" y="369"/>
      <point x="770" y="383" type="curve" smooth="yes"/>
      <point x="793" y="414"/>
      <point x="817" y="444"/>
      <point x="840" y="476" type="curve" smooth="yes"/>
      <point x="929" y="598"/>
      <point x="1021" y="718"/>
      <point x="1114" y="838" type="curve" smooth="yes"/>
      <point x="1145" y="877"/>
      <point x="1175" y="918"/>
      <point x="1206" y="959" type="curve" smooth="yes"/>
      <point x="1215" y="971"/>
      <point x="1224" y="983"/>
      <point x="1234" y="996" type="curve" smooth="yes"/>
      <point x="1238" y="1002"/>
      <point x="1243" y="1010"/>
      <point x="1250" y="1015" type="curve" smooth="yes"/>
      <point x="1258" y="1022"/>
      <point x="1272" y="1025"/>
      <point x="1283" y="1029" type="curve" smooth="yes"/>
      <point x="1305" y="1038"/>
      <point x="1326" y="1047"/>
      <point x="1349" y="1056" type="curve" smooth="yes"/>
    </contour>
    <contour>
      <point x="1360" y="-109" type="move" smooth="yes"/>
      <point x="1366" y="-115"/>
      <point x="1375" y="-128"/>
      <point x="1385" y="-132" type="curve" smooth="yes"/>
      <point x="1389" y="-134"/>
      <point x="1396" y="-133"/>
      <point x="1402" y="-133" type="curve" smooth="yes"/>
      <point x="1437" y="-133" type="line"/>
      <point x="1556" y="-133" type="line"/>
    </contour>
  </outline>
</glyph>
<glyph name="threequarters" format="1">
  <advance width="1713"/>
  <unicode hex="00BE"/>
  <outline>
    <contour>
      <point x="0" y="2877" type="move" smooth="yes"/>
      <point x="18" y="2948"/>
      <point x="32" y="3021"/>
      <point x="51" y="3093" type="curve" smooth="yes"/>
      <point x="55" y="3111"/>
      <point x="59" y="3129"/>
      <point x="64" y="3148" type="curve" smooth="yes"/>
      <point x="66" y="3155"/>
      <point x="66" y="3164"/>
      <point x="73" y="3170" type="curve" smooth="yes"/>
      <point x="80" y="3177"/>
      <point x="93" y="3190"/>
      <point x="103" y="3193" type="curve" smooth="yes"/>
      <point x="114" y="3197"/>
      <point x="132" y="3194"/>
      <point x="145" y="3194" type="curve" smooth="yes"/>
      <point x="237" y="3194" type="line"/>
      <point x="655" y="3194" type="line"/>
      <point x="782" y="3194" type="line" smooth="yes"/>
      <point x="793" y="3194"/>
      <point x="818" y="3198"/>
      <point x="826" y="3188" type="curve" smooth="yes"/>
      <point x="832" y="3182"/>
      <point x="821" y="3163"/>
      <point x="818" y="3156" type="curve" smooth="yes"/>
      <point x="810" y="3133"/>
      <point x="802" y="3109"/>
      <point x="794" y="3087" type="curve" smooth="yes"/>
      <point x="790" y="3077"/>
      <point x="788" y="3063"/>
      <point x="780" y="3056" type="curve" smooth="yes"/>
      <point x="752" y="3027"/>
      <point x="721" y="3002"/>
      <point x="692" y="2975" type="curve" smooth="yes"/>
      <point x="617" y="2908"/>
      <point x="544" y="2841"/>
      <point x="470" y="2773" type="curve" smooth="yes"/>
      <point x="461" y="2765"/>
      <point x="446" y="2756"/>
      <point x="440" y="2746" type="curve" smooth="yes"/>
      <point x="432" y="2730"/>
      <point x="428" y="2711"/>
      <point x="422" y="2695" type="curve" smooth="yes"/>
      <point x="417" y="2682"/>
      <point x="416" y="2673"/>
      <point x="403" y="2669" type="curve" smooth="yes"/>
    </contour>
    <contour>
      <point x="1474" y="3183" type="move" smooth="yes"/>
      <point x="1457" y="3152"/>
      <point x="1448" y="3116"/>
      <point x="1435" y="3084" type="curve" smooth="yes"/>
      <point x="1413" y="3024"/>
      <point x="1391" y="2966"/>
      <point x="1368" y="2907" type="curve" smooth="yes"/>
      <point x="1294" y="2712"/>
      <point x="1220" y="2518"/>
      <point x="1146" y="2324" type="curve" smooth="yes"/>
      <point x="946" y="1798"/>
      <point x="746" y="1273"/>
      <point x="546" y="748" type="curve" smooth="yes"/>
      <point x="337" y="199" type="line"/>
      <point x="270" y="23" type="line" smooth="yes"/>
      <point x="258" y="-9"/>
      <point x="247" y="-43"/>
      <point x="233" y="-75" type="curve" smooth="yes"/>
    </contour>
    <contour>
      <point x="415" y="2673" type="move" smooth="yes"/>
      <point x="419" y="2668"/>
      <point x="424" y="2661"/>
      <point x="430" y="2659" type="curve" smooth="yes"/>
      <point x="439" y="2656"/>
      <point x="454" y="2659"/>
      <point x="465" y="2659" type="curve" smooth="yes"/>
      <point x="490" y="2659"/>
      <point x="518" y="2660"/>
      <point x="544" y="2657" type="curve" smooth="yes"/>
      <point x="592" y="2652"/>
      <point x="638" y="2634"/>
      <point x="681" y="2610" type="curve" smooth="yes"/>
      <point x="698" y="2600"/>
      <point x="717" y="2588"/>
      <point x="731" y="2574" type="curve" smooth="yes"/>
      <point x="781" y="2527"/>
      <point x="802" y="2469"/>
      <point x="812" y="2403" type="curve" smooth="yes"/>
      <point x="828" y="2288"/>
      <point x="798" y="2163"/>
      <point x="700" y="2093" type="curve" smooth="yes"/>
      <point x="608" y="2029"/>
      <point x="500" y="2011"/>
      <point x="391" y="2018" type="curve" smooth="yes"/>
      <point x="340" y="2022"/>
      <point x="292" y="2029"/>
      <point x="244" y="2045" type="curve" smooth="yes"/>
      <point x="207" y="2057"/>
      <point x="170" y="2083"/>
      <point x="141" y="2108" type="curve" smooth="yes"/>
      <point x="131" y="2117"/>
      <point x="117" y="2127"/>
      <point x="110" y="2138" type="curve" smooth="yes"/>
      <point x="104" y="2146"/>
      <point x="103" y="2157"/>
      <point x="100" y="2167" type="curve" smooth="yes"/>
      <point x="94" y="2184"/>
      <point x="89" y="2202"/>
      <point x="84" y="2220" type="curve" smooth="yes"/>
      <point x="79" y="2237"/>
      <point x="74" y="2255"/>
      <point x="71" y="2274" type="curve" smooth="yes"/>
      <point x="70" y="2279"/>
      <point x="66" y="2289"/>
      <point x="68" y="2295" type="curve" smooth="yes"/>
      <point x="71" y="2305"/>
      <point x="86" y="2315"/>
      <point x="95" y="2322" type="curve" smooth="yes"/>
    </contour>
    <contour>
      <point x="1470" y="1093" type="move" smooth="yes"/>
      <point x="1468" y="1081"/>
      <point x="1461" y="1069"/>
      <point x="1461" y="1058" type="curve" smooth="yes"/>
      <point x="1461" y="1051"/>
      <point x="1469" y="1048"/>
      <point x="1470" y="1043" type="curve" smooth="yes"/>
      <point x="1473" y="1031"/>
      <point x="1471" y="1016"/>
      <point x="1471" y="1005" type="curve" smooth="yes"/>
      <point x="1471" y="809" type="line"/>
      <point x="1471" y="206" type="line"/>
      <point x="1471" y="-26" type="line"/>
      <point x="1471" y="-86" type="line" smooth="yes"/>
      <point x="1471" y="-93"/>
      <point x="1473" y="-104"/>
      <point x="1468" y="-110" type="curve" smooth="yes"/>
      <point x="1463" y="-116"/>
      <point x="1452" y="-129"/>
      <point x="1445" y="-132" type="curve" smooth="yes"/>
      <point x="1440" y="-134"/>
      <point x="1433" y="-133"/>
      <point x="1428" y="-133" type="curve" smooth="yes"/>
      <point x="1393" y="-133" type="line"/>
      <point x="1243" y="-133" type="line"/>
    </contour>
    <contour>
      <point x="1713" y="257" type="move"/>
      <point x="1062" y="257" type="line"/>
      <point x="896" y="257" type="line"/>
      <point x="854" y="257" type="line" smooth="yes"/>
      <point x="847" y="257"/>
      <point x="841" y="255"/>
      <point x="836" y="260" type="curve" smooth="yes"/>
      <point x="833" y="262"/>
      <point x="830" y="264"/>
      <point x="830" y="268" type="curve" smooth="yes"/>
      <point x="829" y="272"/>
      <point x="832" y="279"/>
      <point x="833" y="284" type="curve" smooth="yes"/>
      <point x="836" y="295"/>
      <point x="839" y="306"/>
      <point x="842" y="318" type="curve" smooth="yes"/>
      <point x="844" y="325"/>
      <point x="846" y="333"/>
      <point x="849" y="340" type="curve" smooth="yes"/>
      <point x="856" y="355"/>
      <point x="871" y="369"/>
      <point x="881" y="383" type="curve" smooth="yes"/>
      <point x="904" y="414"/>
      <point x="928" y="444"/>
      <point x="951" y="476" type="curve" smooth="yes"/>
      <point x="1042" y="597"/>
      <point x="1133" y="718"/>
      <point x="1226" y="839" type="curve" smooth="yes"/>
      <point x="1256" y="878"/>
      <point x="1286" y="918"/>
      <point x="1316" y="958" type="curve" smooth="yes"/>
      <point x="1325" y="970"/>
      <point x="1335" y="983"/>
      <point x="1345" y="996" type="curve" smooth="yes"/>
      <point x="1350" y="1002"/>
      <point x="1354" y="1010"/>
      <point x="1361" y="1015" type="curve" smooth="yes"/>
      <point x="1369" y="1022"/>
      <point x="1383" y="1025"/>
      <point x="1394" y="1029" type="curve" smooth="yes"/>
      <point x="1416" y="1038"/>
      <point x="1437" y="1047"/>
      <point x="1460" y="1056" type="curve" smooth="yes"/>
    </contour>
    <contour>
      <point x="1471" y="-109" type="move" smooth="yes"/>
      <point x="1477" y="-115"/>
      <point x="1486" y="-128"/>
      <point x="1496" y="-132" type="curve" smooth="yes"/>
      <point x="1500" y="-134"/>
      <point x="1507" y="-133"/>
      <point x="1513" y="-133" type="curve" smooth="yes"/>
      <point x="1548" y="-133" type="line"/>
      <point x="1667" y="-133" type="line"/>
    </contour>
  </outline>
</glyph>
